<?xml version="1.0" encoding="UTF-8"?>
<svg xmlns="http://www.w3.org/2000/svg" xmlns:xlink="http://www.w3.org/1999/xlink" version="1.1" viewBox="0 0 1399.2 338.4">
  <!-- Generator: Adobe Illustrator 29.6.1, SVG Export Plug-In . SVG Version: 2.1.1 Build 9)  -->
  <defs>
    <style>
      .st0, .st1, .st2 {
        fill: none;
      }

      .st3 {
        fill: #fff;
      }

      .st4 {
        fill: #f6f3e7;
      }

      .st5 {
        fill: #2e659e;
      }

      .st6 {
        clip-path: url(#clippath);
      }

      .st1 {
        stroke-width: 200px;
      }

      .st1, .st2 {
        stroke: #f6f3e7;
        stroke-miterlimit: 10;
      }

      .st2 {
        stroke-width: 85px;
      }
    </style>
    <clipPath id="clippath">
      <path class="st0" d="M146.8,173.1v167.3h149.6v-167.3h-149.6ZM227.2,217.7l-.9.4c-.6,0-1.2-.2-1.7-.4-3.5-1.1-5.8-2.9-8-6.3v-1.2c3.4-4.3,4.2-9.8,2.1-14.4l.8-1.4h.6c1.7,0,3.2.5,4.4,1,1.8.7,5.5,2.1,7.5,4.1l.3.7c.4,6.4-1.4,12.5-5.1,17.6h0Z"/>
    </clipPath>
  </defs>
  <g id="_レイヤー_1" data-name="レイヤー_1">
    <g id="_レイヤー_2">
      <g id="TOP">
        <g>
          <path class="st5" d="M223.5,220.4c-1.1,1.1-2.9,2.3-4.2,3l5.6,33.5,18-3.6,2.3,15.1v.4l-17.9,3.5,8.2,49.1c1.1-.6,2.5-.8,3.7-1.4,9.9-4.4,19.3-12.1,24.9-21.5,2.8-4.7,6.4-13.7,6.5-19.1,0-.3-.1-.6-.1-.9-.8.5-1.5,0-2.2-.2-.4,0-.7.1-1.1,0-.4,0-2.5-.8-2.6-1.1.9-3.2.9-6.6,1.2-9.9.7-7.1,1.5-14.5,1.7-21.8,0-.7-.5-1.4,0-2.2,1.4.5,3.2.9,4.5,1.5,8.5,3.6,16.7,13.7,20.8,21.8.6,1.3,1,3,1.7,4.3-3,1-5.5,3.1-8.4,4.4-.5,4.8-.9,9.7-2.1,14.4-7.8,32-36.7,49.2-68.5,48.5-24.8-.5-43.4-12.1-55.3-33.6-.8-1.5-1.1-3.2-2.3-4.5l-9.1-2.1c-.2-.2.1-4.7.2-5.3.4-4.1,1.7-9.4,3.2-13.3,2.1-5.7,5.9-11.5,11.1-14.9l15.5,30.1c-.8,2-3.3,2.4-4.8,3.6v.4c1.7,2.1,3,4.7,4.6,6.8,10.1,12.7,25.7,18.5,41.6,18.7.9,0,2-.5,2.9.1l-10.6-49.5-16.4,2.8-3.6-14.2,17-3.4-6.7-32.5c-5.7-.3-12-3.2-16.1-7.3-17.4-17.4-3.4-47.3,21.3-45,22,2.1,31.3,29.9,15.6,45.2h0ZM217,191.6c-15-16.3-37.1,5.4-22.8,20.9,2.1,2.3,7.2,4.5,10.4,4.6,13.3.2,21.5-15.6,12.4-25.5h0Z"/>
          <g>
            <path class="st4" d="M4.7,127.1c152,70.4,286.2,98.6,377.8,110.9,160.9,21.7,282.4,0,525.2-43.2,68.5-12.2,144.7-32.7,174.2-87.6,16.1-29.9,14.5-73.9-14.9-90.7-28-16-64.1,1.5-85.5,25.7-18.4,20.8-31.3,47.7-30.4,75.5,1.1,32.3,20.9,61.9,46.8,81.1,30.7,22.6,61.9,32.1,89,36,115.9,16.7,267.7-15.9,309.7-25.4"/>
            <g>
              <g>
                <path class="st3" d="M23.9,128c0-.4-.5-1.2-1.6-2.1-.6-.5-1.4-.9-2.2-1.3-2.2-1-5-1.5-7.5-.7-3.1,1-5.5,3.8-6.4,6.1-.5,1.2-.4,2-.2,2.3,0,.2.4.4.8.5,2.7-.5,5.2-1.4,7.9-2.3,3-1,6-2.1,9.2-2.6h0Z"/>
                <path class="st3" d="M7.9,135.2c2.4,3.1,5.5,5.4,9.5,7.2,2.6,1.2,5,1.8,7.2,2.1l6.2-14.2c-5.7-.8-10.4.9-15.4,2.6-2.4.8-4.9,1.7-7.6,2.2h.1Z"/>
                <path class="st5" d="M24.6,144.6l-1,2.4c-2.2-.4-4.6-1.1-7.2-2.2-5.1-2.3-8.9-5.4-11.7-9.7l-.7-1.1s0-.2-.2-.3h0v-.2c0,0,0,0,0,0-.5-1.1-.5-2.6.2-4.2,1.1-2.8,4-6.3,8-7.5,4.3-1.4,9.1.2,11.9,2.3,1.6,1.2,2.5,2.5,2.6,3.8,1.8,0,3.6,0,5.6.3l-1,2.4c-5.7-.8-10.4.9-15.4,2.6-2.4.8-4.9,1.7-7.6,2.2,2.4,3.1,5.5,5.4,9.5,7.2,2.6,1.2,5,1.8,7.2,2.1h-.2ZM6.8,132.9c2.7-.5,5.2-1.4,7.9-2.3,3-1,6-2.1,9.2-2.6,0-.4-.5-1.2-1.6-2.1-.6-.5-1.4-.9-2.2-1.3-2.2-1-5-1.5-7.5-.7-3.1,1-5.5,3.8-6.4,6.1-.5,1.2-.4,2-.2,2.3,0,.2.4.4.8.5h0Z"/>
                <polygon class="st0" points="0 137.3 23.2 147.8 32.3 127.2 9.5 116.9 0 137.3"/>
              </g>
              <g>
                <path class="st3" d="M30.7,144.6h.3c1.2-.2,2.3-.5,3.4-.8h0c.7-.2,1.4-.4,2.2-.7h0c.3-.1.7-.3,1.1-.4h0c.7-.3,1.5-.6,2.2-.8,2.4-.9,4.9-1.8,7.5-2.4-2.5-3-5.5-5.3-9.5-7-2.6-1.1-4.9-1.8-7.1-2.1l-6.2,14.2c2.2.3,4.2.2,6.1,0h0Z"/>
                <path class="st3" d="M33.4,146.6c2.5,3,5.6,5.3,9.7,7,2.6,1.1,5,1.7,7.3,2l6-14.3c-5.7-.6-10.4,1.1-15.3,2.9-2.4.9-4.9,1.8-7.5,2.4h-.2Z"/>
                <path class="st5" d="M43,153.6c-4.1-1.7-7.2-4-9.6-7,2.6-.6,5.1-1.5,7.5-2.4,4.9-1.8,9.6-3.6,15.4-2.9l1-2.4c-2.5-.4-4.8-.3-7,0-2.8-3.9-6.4-6.7-11.3-8.7-2.6-1.1-4.9-1.8-7.1-2.1l-1,2.4c2.2.3,4.5,1,7.1,2.1,4,1.7,7.1,3.9,9.5,7-2.6.6-5,1.5-7.5,2.4-.8.3-1.5.5-2.2.8h0c-.4.1-.7.3-1.1.4h0c-.7.3-1.4.5-2.2.7h0c-1.1.3-2.3.6-3.4.8h-.3c-1.9.3-4,.3-6.1,0l-1,2.4c2.5.4,4.9.4,7.1.1,2.9,3.9,6.5,6.7,11.4,8.8,2.6,1.1,5,1.8,7.2,2.1l1-2.4c-2.2-.3-4.6-.9-7.3-2h-.1Z"/>
              </g>
              <g>
                <path class="st3" d="M56.4,155.4h.3c1.2-.2,2.3-.5,3.4-.9h0c.7-.2,1.4-.5,2.2-.7h0c.3-.2.7-.3,1-.4h0c.7-.3,1.5-.6,2.2-.9,2.4-.9,4.8-1.9,7.4-2.6-2.5-3-5.6-5.1-9.7-6.8-2.6-1.1-5-1.7-7.2-1.9l-6,14.3c2.2.2,4.2.2,6.1-.1h.3Z"/>
                <path class="st3" d="M59.1,157.4c2.5,3,5.7,5.2,9.8,6.8,2.7,1.1,5.1,1.6,7.3,1.8l5.7-14.4c-5.7-.5-10.4,1.3-15.3,3.2-2.4.9-4.8,1.9-7.5,2.6h0Z"/>
                <path class="st5" d="M68.9,164.2c-4.1-1.6-7.3-3.8-9.8-6.8,2.6-.7,5.1-1.6,7.5-2.6,4.9-1.9,9.6-3.8,15.3-3.2l.9-2.4c-2.5-.3-4.8-.2-7,.2-2.9-3.8-6.6-6.5-11.4-8.5-2.5-1.1-4.9-1.7-7.1-2l-1,2.4c2.2.2,4.6.9,7.2,1.9,4,1.6,7.2,3.8,9.7,6.8-2.6.7-5,1.6-7.4,2.6-.8.3-1.5.6-2.2.9h0c-.3.2-.7.3-1,.4h0c-.7.3-1.4.5-2.2.8h0c-1.1.4-2.2.6-3.4.8h-.3c-1.9.4-4,.4-6.1.2l-1,2.4c2.5.4,4.9.3,7.1,0,2.9,3.9,6.7,6.6,11.6,8.6,2.6,1,5,1.6,7.3,1.9l.9-2.4c-2.2-.2-4.7-.8-7.3-1.8h0l-.3-.2Z"/>
              </g>
              <g>
                <path class="st3" d="M82.3,165.8h.3c1.2-.3,2.3-.6,3.4-.9h0c.7-.2,1.4-.5,2.1-.8h0c.3-.2.7-.3,1-.4h0c.7-.3,1.4-.6,2.2-.9,2.4-1,4.8-2,7.4-2.7-2.6-2.9-5.8-5-9.8-6.6-2.6-1-5-1.6-7.2-1.8l-5.7,14.4c2.2.2,4.2,0,6.1-.3h.2Z"/>
                <path class="st3" d="M85.1,167.7c2.6,3,5.8,5.1,9.9,6.6,2.7,1,5.1,1.5,7.3,1.7l5.4-14.5c-5.8-.4-10.4,1.6-15.2,3.6-2.4,1-4.8,2-7.4,2.7h0Z"/>
                <path class="st5" d="M95,174.3c-4.1-1.6-7.3-3.6-9.9-6.6,2.6-.7,5-1.7,7.4-2.7,4.8-2,9.5-4,15.2-3.6l.9-2.4c-2.5-.2-4.8,0-7,.3-3-3.8-6.7-6.3-11.6-8.3-2.6-1-4.9-1.6-7.2-1.9l-.9,2.4c2.2.2,4.6.8,7.2,1.8,4.1,1.6,7.2,3.6,9.8,6.6-2.6.7-5,1.7-7.4,2.7-.7.3-1.5.6-2.2.9h0c-.3.2-.7.3-1,.4h0c-.7.3-1.4.5-2.1.8h0c-1.1.4-2.2.6-3.4.9h-.3c-1.9.4-3.9.5-6.1.3l-.9,2.4c2.5.3,4.9.2,7.1-.1,3,3.9,6.8,6.5,11.8,8.4,2.6,1,5.1,1.5,7.3,1.8l.9-2.4c-2.2-.2-4.7-.7-7.3-1.7h-.3Z"/>
              </g>
              <g>
                <path class="st3" d="M108.5,175.6h.3c1.2-.3,2.3-.6,3.4-1h0c.7-.2,1.4-.5,2.1-.8h0c.3-.2.7-.3,1-.5h0c.7-.3,1.4-.6,2.2-1,2.4-1,4.8-2.1,7.3-2.9-1.3-1.4-2.8-2.7-4.4-3.7-1.7-1-3.5-1.9-5.5-2.7-2.6-1-5-1.5-7.2-1.6l-5.4,14.5c2.2.1,4.2,0,6.1-.4h0Z"/>
                <path class="st3" d="M111.2,177.5c2.6,2.9,5.9,4.9,10.1,6.4,2.7.9,5.1,1.4,7.4,1.5l5.1-14.6c-5.8-.3-10.3,1.8-15.2,3.9-2.3,1-4.8,2.1-7.3,2.8h-.1Z"/>
                <path class="st5" d="M121.3,183.9c-4.2-1.5-7.4-3.5-10.1-6.4,2.6-.7,5-1.8,7.3-2.8,4.8-2.1,9.4-4.2,15.1-3.9l.9-2.4c-2.5-.2-4.8,0-7,.5-1.5-1.9-3.2-3.4-5.2-4.7-1.9-1.3-4.1-2.4-6.6-3.3-2.6-1-5-1.5-7.2-1.7l-.9,2.4c2.2.1,4.6.6,7.2,1.6,2,.8,3.9,1.7,5.5,2.7s3.1,2.3,4.4,3.7c-2.6.8-4.9,1.8-7.3,2.9-.7.3-1.5.6-2.2.9h0c-.3.2-.7.3-1,.4h0c-.7.3-1.4.6-2.1.8h0c-1.1.4-2.2.7-3.4.9h-.3c-1.9.4-3.9.6-6.1.5l-.9,2.4c2.5.3,4.9.1,7.1-.3,3.1,3.8,6.9,6.4,11.9,8.1,2.7.9,5.1,1.4,7.4,1.6l.8-2.4c-2.2-.1-4.7-.6-7.4-1.5h0Z"/>
              </g>
              <g>
                <path class="st3" d="M134.8,184.9h.3c1.1-.3,2.3-.7,3.4-1.1h0c.7-.3,1.4-.5,2.1-.8h0c.3-.2.7-.3,1-.5h0c.7-.3,1.4-.7,2.1-1,2.4-1.1,4.7-2.2,7.2-3-1.4-1.4-2.8-2.6-4.5-3.6s-3.5-1.9-5.6-2.6c-2.7-.9-5.1-1.4-7.3-1.5l-5.1,14.6c2.2.1,4.2-.1,6.1-.5h.3Z"/>
                <path class="st3" d="M137.6,186.7c2.7,2.9,6,4.8,10.2,6.2,2.7.9,5.1,1.3,7.4,1.4l4.8-14.8c-5.8-.1-10.3,2-15.1,4.2-2.3,1.1-4.7,2.2-7.3,3h0Z"/>
                <path class="st5" d="M147.8,192.9c-4.2-1.4-7.5-3.3-10.2-6.2,2.6-.8,5-1.9,7.3-3,4.8-2.2,9.3-4.4,15.1-4.2l.8-2.5c-2.5-.1-4.8.1-7,.6-1.6-1.8-3.3-3.4-5.3-4.6-2-1.3-4.2-2.3-6.6-3.2-2.6-.9-5-1.4-7.2-1.6l-.9,2.4c2.2.1,4.6.6,7.3,1.5,2.1.7,3.9,1.6,5.6,2.6,1.7,1,3.1,2.2,4.5,3.6-2.5.8-4.9,1.9-7.2,3-.7.3-1.4.7-2.1,1h0c-.3.2-.7.3-1,.5h0c-.7.3-1.4.6-2.1.9h0c-1.1.4-2.2.8-3.4,1h-.3c-1.9.5-3.9.7-6.1.6l-.8,2.4c2.5.2,4.9,0,7.1-.4,3.1,3.8,7,6.2,12.1,7.9,2.7.9,5.1,1.3,7.4,1.4l.8-2.5c-2.2,0-4.7-.5-7.4-1.4h0l-.4.2Z"/>
              </g>
              <g>
                <path class="st3" d="M161.3,193.6h.3c1.1-.4,2.2-.7,3.3-1.2h0c.7-.3,1.4-.6,2.1-.9h0c.3-.2.7-.3,1-.5h0c.7-.4,1.4-.7,2.1-1.1,2.3-1.1,4.7-2.3,7.2-3.2-2.8-2.8-6.1-4.6-10.2-6-2.7-.9-5.1-1.3-7.3-1.3l-4.8,14.8c2.2,0,4.2-.2,6.1-.7h.2Z"/>
                <path class="st3" d="M164.1,195.4c2.8,2.8,6.1,4.7,10.3,6,2.7.8,5.2,1.2,7.4,1.2l4.4-14.9c-5.8,0-10.3,2.2-15,4.5-2.3,1.1-4.7,2.3-7.2,3.1h.1Z"/>
                <path class="st5" d="M174.5,201.4c-4.2-1.3-7.6-3.2-10.3-6,2.5-.8,4.9-2,7.2-3.1,4.7-2.3,9.2-4.5,15-4.5l.7-2.5c-2.5,0-4.8.2-7,.8-3.2-3.6-7.1-5.9-12.1-7.5-2.6-.9-5-1.3-7.3-1.4l-.8,2.5c2.2,0,4.6.5,7.3,1.3,4.1,1.4,7.4,3.2,10.2,6-2.5.9-4.9,2-7.2,3.2-.7.4-1.4.7-2.1,1h0c-.3.2-.7.3-1,.5h0c-.7.4-1.4.6-2.1.9h0c-1.1.4-2.2.8-3.3,1.1h-.3c-1.9.5-3.9.8-6.1.7l-.8,2.5c2.6.1,4.9-.1,7.1-.6,3.2,3.7,7.2,6,12.3,7.6,2.7.8,5.1,1.2,7.4,1.3l.7-2.5c-2.2,0-4.7-.4-7.4-1.2h0Z"/>
              </g>
              <g>
                <path class="st3" d="M188,201.8h.3c1.1-.4,2.2-.8,3.3-1.2h0c.7-.3,1.4-.6,2.1-.9h0c.3-.2.7-.4,1-.5h0c.7-.4,1.4-.7,2.1-1.1,2.3-1.2,4.6-2.4,7.1-3.3-2.8-2.7-6.1-4.5-10.3-5.7-2.7-.8-5.1-1.2-7.3-1.2l-4.4,14.9c2.2,0,4.2-.3,6.1-.8h0v-.2Z"/>
                <path class="st3" d="M190.9,203.5c2.8,2.7,6.2,4.6,10.4,5.8,2.8.8,5.2,1.1,7.4,1.1l4.1-14.9c-5.8,0-10.2,2.4-14.9,4.8-2.3,1.2-4.6,2.4-7.2,3.3h.2Z"/>
                <path class="st5" d="M201.3,209.2c-4.2-1.2-7.6-3.1-10.4-5.8,2.5-.9,4.9-2.1,7.2-3.3,4.7-2.4,9.1-4.7,14.9-4.8l.7-2.5c-2.5,0-4.8.3-6.9.9-3.3-3.5-7.2-5.8-12.3-7.3-2.6-.8-5.1-1.2-7.3-1.3l-.7,2.5c2.2,0,4.6.4,7.3,1.2,4.2,1.2,7.5,3,10.3,5.7-2.5.9-4.8,2.1-7.1,3.3-.7.4-1.4.7-2.1,1.1h0c-.3.2-.7.4-1,.5h0c-.7.4-1.4.7-2.1,1h0c-1.1.5-2.2.9-3.3,1.2h-.3c-1.9.6-3.9.9-6.1.9l-.7,2.5c2.6.1,4.9-.2,7-.7,3.3,3.6,7.3,5.9,12.4,7.3,2.7.8,5.2,1.1,7.4,1.2l.7-2.5c-2.2,0-4.7-.3-7.4-1.1h-.2Z"/>
              </g>
              <g>
                <path class="st3" d="M214.8,209.4h.3c1.1-.4,2.2-.9,3.3-1.3h0c.7-.3,1.4-.6,2-1h0c.3-.2.7-.4,1-.5h0c.7-.4,1.4-.8,2.1-1.1,2.3-1.2,4.6-2.5,7-3.5-2.9-2.6-6.2-4.4-10.4-5.5-2.7-.7-5.1-1.1-7.4-1l-4.1,14.9c2.2,0,4.2-.4,6.1-.9h0Z"/>
                <path class="st3" d="M217.8,211c2.9,2.7,6.3,4.4,10.6,5.6,2.8.7,5.2,1,7.5.9l3.8-15c-5.8.2-10.1,2.6-14.8,5.1-2.2,1.2-4.6,2.5-7.1,3.4h0Z"/>
                <path class="st5" d="M228.3,216.6c-4.3-1.1-7.7-2.9-10.6-5.6,2.5-1,4.8-2.2,7.1-3.4,4.6-2.5,9-4.9,14.8-5.1l.6-2.5c-2.5,0-4.8.4-6.9,1-3.4-3.4-7.3-5.7-12.4-7-2.7-.7-5.1-1.1-7.3-1.1l-.7,2.5c2.2,0,4.6.3,7.4,1,4.2,1.1,7.6,2.9,10.4,5.5-2.5,1-4.8,2.2-7,3.5-.7.4-1.4.8-2.1,1.1h0c-.3.2-.7.4-1,.5h0c-.7.4-1.4.7-2,1h0c-1.1.5-2.1.9-3.3,1.3h-.3c-1.9.6-3.9,1-6.1,1l-.7,2.5c2.6,0,4.9-.3,7-.9,3.4,3.5,7.4,5.7,12.6,7.1,2.7.7,5.2,1,7.5,1l.6-2.5c-2.2,0-4.7-.2-7.5-.9h-.1Z"/>
              </g>
              <g>
                <path class="st3" d="M241.8,216.4h.3c1.1-.5,2.2-.9,3.3-1.4h0c.7-.3,1.4-.7,2-1h0c.3-.2.6-.4,1-.6h0c.7-.4,1.4-.8,2.1-1.2,2.2-1.3,4.5-2.6,7-3.6-2.9-2.6-6.3-4.3-10.5-5.3-2.7-.7-5.2-.9-7.4-.8l-3.8,15c2.2,0,4.2-.5,6.1-1.1h-.1Z"/>
                <path class="st3" d="M244.8,218c2.9,2.6,6.4,4.3,10.7,5.4,2.8.7,5.2.9,7.5.8l3.5-15.1c-5.8.4-10.1,2.8-14.6,5.4-2.2,1.3-4.5,2.6-7,3.6h0Z"/>
                <path class="st5" d="M255.5,223.3c-4.3-1-7.7-2.8-10.7-5.4,2.5-1,4.8-2.3,7-3.6,4.6-2.6,8.9-5,14.6-5.4l.6-2.5c-2.5.1-4.8.5-6.9,1.2-3.4-3.4-7.4-5.6-12.6-6.8-2.7-.6-5.1-.9-7.4-.9l-.6,2.5c2.2,0,4.7.1,7.4.8,4.2,1,7.6,2.7,10.5,5.3-2.4,1-4.7,2.3-7,3.6-.7.4-1.4.8-2.1,1.1h0c-.3.2-.7.4-1,.6h0c-.7.4-1.3.7-2,1.1h0c-1.1.5-2.1,1-3.3,1.3h-.3c-1.9.7-3.9,1.1-6.1,1.2l-.6,2.5c2.6,0,4.9-.4,7-1.1,3.5,3.4,7.5,5.6,12.7,6.8,2.7.6,5.2.9,7.5.9l.6-2.5c-2.3.2-4.7,0-7.5-.8h.2Z"/>
              </g>
              <g>
                <path class="st3" d="M269,222.8h.3c1.1-.5,2.2-1,3.2-1.5h0c.7-.4,1.3-.7,2-1.1h0c.3-.2.6-.4,1-.6h0c.7-.4,1.3-.8,2-1.2,2.2-1.3,4.5-2.6,6.9-3.7-3-2.6-6.4-4.2-10.6-5.1-2.8-.6-5.2-.8-7.4-.6l-3.5,15.1c2.2-.1,4.2-.6,6-1.2h.1Z"/>
                <path class="st3" d="M272,224.3c3,2.6,6.5,4.2,10.8,5.2,2.8.6,5.3.7,7.5.5l3.2-15.2c-2.9.2-5.4,1-7.7,2.1-2.4,1-4.5,2.3-6.8,3.7-2.2,1.3-4.5,2.6-6.9,3.7h-.1Z"/>
                <path class="st5" d="M282.8,229.5c-4.3-1-7.8-2.6-10.8-5.2,2.5-1.1,4.7-2.4,6.9-3.7,2.2-1.3,4.4-2.6,6.8-3.7,2.4-1.1,4.9-1.8,7.7-2.1l.5-2.5c-2.5.1-4.8.6-6.9,1.4-3.5-3.3-7.5-5.4-12.7-6.6-2.7-.6-5.1-.8-7.4-.7l-.6,2.5c2.2-.1,4.7,0,7.4.6,4.2.9,7.7,2.6,10.6,5.1-2.4,1.1-4.7,2.4-6.9,3.7-.7.4-1.4.8-2,1.2h0c-.3.2-.6.4-1,.6h0c-.7.4-1.3.8-2,1.1h0c-1,.5-2.1,1-3.2,1.4h-.3c-1.9.8-3.8,1.2-6,1.3l-.6,2.5c2.6,0,4.9-.6,7-1.2,3.5,3.3,7.6,5.4,12.9,6.6,2.8.6,5.2.7,7.5.6l.5-2.5c-2.2.2-4.7,0-7.5-.5h.1Z"/>
              </g>
              <g>
                <path class="st3" d="M296.3,228.7h.3c1.1-.5,2.2-1,3.2-1.5h0c.7-.4,1.3-.7,2-1.1h0c.3-.2.6-.4,1-.6h0c.7-.4,1.3-.8,2-1.3,2.2-1.3,4.4-2.8,6.8-3.9-3-2.4-6.5-4-10.8-4.9-2.8-.6-5.2-.7-7.4-.5l-3.2,15.2c2.2-.2,4.1-.7,6-1.3h.1Z"/>
                <path class="st3" d="M299.3,230.2c1.5,1.2,3.2,2.3,5,3.1s3.8,1.4,5.9,1.8c2.8.5,5.3.6,7.5.4l2.8-15.2c-5.7.6-10,3.3-14.4,6.1-2.2,1.3-4.4,2.7-6.8,3.8h0Z"/>
                <path class="st5" d="M310.2,235.1c-2.2-.4-4.1-1-5.9-1.8s-3.4-1.9-5-3.1c2.4-1.1,4.7-2.5,6.8-3.8,4.5-2.8,8.7-5.5,14.4-6.1l.5-2.6c-2.5.2-4.8.7-6.8,1.5-1.8-1.6-3.7-2.9-5.8-3.9-2.1-1-4.4-1.8-7-2.4-2.7-.6-5.1-.7-7.4-.6l-.5,2.5c2.2-.2,4.7,0,7.4.5,4.3.9,7.7,2.5,10.8,4.9-2.4,1.1-4.6,2.6-6.8,3.9-.7.4-1.3.8-2,1.2h0c-.3.2-.6.4-1,.6h0c-.6.4-1.3.8-2,1.1h0c-1,.6-2.1,1-3.2,1.5h-.3c-1.8.8-3.8,1.3-6,1.4l-.5,2.5c2.6-.1,4.9-.6,7-1.4,3.6,3.3,7.8,5.4,13,6.3,2.8.5,5.2.6,7.5.5l.5-2.6c-2.2.2-4.7.1-7.5-.4h0l-.2.3Z"/>
              </g>
              <g>
                <path class="st3" d="M323.7,234h.3c1.1-.5,2.1-1,3.2-1.6h0c.7-.4,1.3-.8,2-1.2h0c.3-.2.6-.4,1-.7h0c.6-.4,1.3-.9,2-1.3,2.2-1.4,4.3-2.9,6.7-4.1-3.1-2.4-6.6-3.9-10.9-4.6-2.8-.5-5.2-.6-7.4-.4l-2.8,15.2c2.2-.2,4.1-.7,6-1.4h-.1Z"/>
                <path class="st3" d="M326.7,235.4c3.1,2.4,6.6,3.9,11,4.6,2.8.5,5.3.5,7.5.3l2.5-15.3c-5.7.7-9.9,3.5-14.3,6.3-2.1,1.4-4.3,2.9-6.8,4h0Z"/>
                <path class="st5" d="M337.7,240.1c-4.4-.8-7.9-2.2-11-4.6,2.4-1.2,4.6-2.6,6.8-4,4.4-2.9,8.5-5.6,14.3-6.3l.4-2.6c-2.5.2-4.7.8-6.8,1.6-3.6-3.1-7.8-5-13-5.9-2.7-.5-5.2-.6-7.4-.5l-.5,2.6c2.2-.2,4.7-.1,7.4.4,4.3.8,7.8,2.2,10.9,4.6-2.4,1.2-4.5,2.6-6.7,4.1-.7.4-1.3.9-2,1.3h0c-.3.2-.6.4-1,.6h0c-.6.4-1.3.8-2,1.2h0c-1,.6-2.1,1.1-3.2,1.5h-.3c-1.8.8-3.8,1.3-6,1.5l-.5,2.6c2.5-.2,4.8-.7,6.9-1.5,3.7,3.2,7.9,5.1,13.2,6,2.8.5,5.3.6,7.5.4l.4-2.6c-2.2.3-4.7.2-7.5-.3h.1Z"/>
              </g>
              <g>
                <path class="st3" d="M351.2,238.7h.3c1.1-.6,2.1-1.1,3.1-1.7h0c.6-.4,1.3-.8,1.9-1.2h0c.3-.2.6-.5.9-.7h0c.6-.5,1.3-.9,2-1.4,2.1-1.5,4.3-2.9,6.6-4.2-3.1-2.3-6.6-3.8-11-4.4-2.8-.4-5.2-.4-7.4-.1l-2.5,15.3c2.2-.3,4.1-.9,5.9-1.6h.2Z"/>
                <path class="st3" d="M354.3,240c3.1,2.3,6.7,3.8,11.1,4.4,2.8.4,5.3.4,7.5,0l2.2-15.4c-5.7.8-9.8,3.8-14.1,6.7-2.1,1.4-4.3,2.9-6.7,4.1h0v.2Z"/>
                <path class="st5" d="M365.4,244.5c-4.4-.6-7.9-2.1-11.1-4.4,2.4-1.2,4.6-2.7,6.7-4.1,4.3-2.9,8.4-5.9,14.1-6.7l.4-2.6c-2.5.3-4.7.9-6.8,1.8-3.7-3-7.9-4.9-13.1-5.7-2.7-.4-5.2-.5-7.4-.2l-.4,2.6c2.2-.3,4.7-.3,7.4.1,4.3.7,7.8,2.1,11,4.4-2.4,1.2-4.5,2.7-6.6,4.2-.7.4-1.3.9-2,1.3h0c-.3.2-.6.4-.9.6h0c-.6.5-1.3.9-1.9,1.2h0c-1,.6-2,1.1-3.1,1.6h-.3c-1.8.9-3.8,1.4-5.9,1.7l-.4,2.6c2.5-.2,4.8-.9,6.9-1.7,3.7,3.1,8,5,13.3,5.8,2.8.4,5.3.4,7.5.2l.4-2.6c-2.2.3-4.7.3-7.5,0h-.3Z"/>
              </g>
              <g>
                <path class="st3" d="M378.8,242.8h.3c1.1-.6,2.1-1.2,3.1-1.8h0c.6-.4,1.3-.8,1.9-1.3h0c.3-.3.6-.5.9-.7h0c.6-.5,1.3-.9,1.9-1.4,2.1-1.5,4.2-3.1,6.5-4.4-3.2-2.2-6.7-3.5-11-4.1-2.8-.4-5.2-.4-7.4,0l-2.2,15.4c2.2-.3,4.1-.9,5.9-1.7h.1Z"/>
                <path class="st3" d="M381.9,244.1c3.2,2.2,6.8,3.6,11.2,4.1,2.8.3,5.3.3,7.5-.1l1.8-15.4c-5.7,1-9.7,3.9-14,7.1-2.1,1.5-4.2,3.1-6.6,4.4h.1Z"/>
                <path class="st5" d="M393.1,248.1c-4.4-.5-8-1.8-11.2-4.1,2.4-1.3,4.5-2.9,6.6-4.4,4.2-3.1,8.3-6.1,14-7.1l.3-2.6c-2.5.4-4.7,1.1-6.7,2-3.8-3-8-4.6-13.2-5.3-2.7-.4-5.2-.4-7.4-.1l-.4,2.6c2.2-.3,4.6-.4,7.4,0,4.3.6,7.9,1.8,11,4.1-2.3,1.3-4.4,2.9-6.5,4.4-.6.5-1.3.9-1.9,1.4h0c-.3.2-.6.5-.9.7h0c-.6.5-1.3.9-1.9,1.3h0c-1,.6-2,1.2-3.1,1.7h-.3c-1.8.9-3.7,1.5-5.9,1.8l-.4,2.6c2.5-.3,4.8-.9,6.9-1.8,3.8,3.1,8.1,4.7,13.4,5.3,2.8.3,5.3.3,7.5,0l.3-2.6c-2.2.4-4.7.4-7.5.1h0Z"/>
              </g>
              <g>
                <path class="st3" d="M406.5,246.2h.2c1.1-.6,2.1-1.2,3-1.8h0c.6-.4,1.2-.8,1.9-1.3h0c.3-.3.6-.5.9-.7h0c.6-.5,1.2-1,1.9-1.5,2-1.6,4.1-3.2,6.4-4.6-1.6-1.1-3.3-1.9-5.2-2.5-.9-.3-1.9-.6-2.9-.8s-2-.4-3.1-.5c-2.8-.3-5.2-.3-7.4.1l-1.8,15.4c2.2-.4,4.1-1,5.9-1.8h.2Z"/>
                <path class="st3" d="M409.6,247.4c3.3,2.3,6.9,3.4,11.3,3.8,2.9.2,5.3.1,7.5-.3l1.3-15.4c-5.6,1.1-9.6,4.2-13.8,7.5-2,1.6-4.1,3.2-6.5,4.5h.2Z"/>
                <path class="st5" d="M421,251.2c-4.4-.4-8.1-1.5-11.3-3.8,2.3-1.3,4.4-2.9,6.5-4.5,4.2-3.2,8.1-6.3,13.8-7.5l.2-2.6c-2.5.4-4.6,1.2-6.6,2.2-1.9-1.4-4-2.5-6.2-3.3-1.1-.4-2.2-.7-3.4-1-1.2-.3-2.4-.5-3.7-.7-2.7-.3-5.2-.3-7.4,0l-.3,2.6c2.2-.4,4.6-.4,7.4-.1,1.1.1,2.1.3,3.1.5s2,.4,2.9.8c1.8.6,3.5,1.4,5.2,2.5-2.3,1.4-4.4,3-6.4,4.6-.6.5-1.3,1-1.9,1.4h0c-.3.3-.6.5-.9.7h0c-.6.5-1.2.9-1.9,1.3h0c-1,.6-2,1.2-3,1.7h-.2c-1.8.9-3.7,1.6-5.9,2l-.3,2.6c2.5-.4,4.8-1,6.8-1.9,3.9,3,8.2,4.5,13.6,5,2.8.2,5.3.1,7.5-.2l.2-2.6c-2.2.4-4.7.6-7.5.3h-.3Z"/>
              </g>
              <g>
                <path class="st3" d="M434.3,248.8h.2c1-.7,2-1.3,3-1.9h0c.6-.4,1.2-.9,1.8-1.3h0c.3-.3.6-.5.9-.7h0c.6-.5,1.2-1,1.8-1.5,2-1.6,4-3.3,6.3-4.8-3.3-2-6.9-3.1-11.2-3.5-2.8-.2-5.2-.1-7.4.4l-1.3,15.4c2.1-.4,4-1.1,5.8-2h.1Z"/>
                <path class="st3" d="M437.5,249.9c3.3,2.2,7,3.2,11.5,3.5,2.9.2,5.3,0,7.5-.6l.9-15.5c-5.6,1.3-9.5,4.6-13.5,7.9-1,.8-2,1.7-3,2.4-1,.8-2.1,1.5-3.3,2.2h-.1Z"/>
                <path class="st5" d="M449,253.4c-4.4-.3-8.1-1.3-11.5-3.5,1.1-.7,2.2-1.4,3.3-2.2,1-.8,2.1-1.6,3-2.4,4.1-3.4,7.9-6.6,13.5-7.9v-2.6c-2.3.5-4.5,1.3-6.4,2.4-4-2.7-8.2-4-13.5-4.6-2.8-.2-5.2-.1-7.4.2l-.2,2.6c2.2-.4,4.6-.6,7.4-.4,4.3.4,7.9,1.5,11.2,3.5-2.2,1.5-4.2,3.1-6.3,4.8-.6.5-1.2,1-1.8,1.5h0c-.3.3-.6.5-.9.7h0c-.6.5-1.2.9-1.8,1.4h0c-1,.7-2,1.3-3,1.8h-.2c-1.8,1-3.6,1.7-5.8,2.2l-.2,2.6c2.5-.4,4.8-1.2,6.8-2.2,2,1.4,4.1,2.6,6.4,3.3s4.7,1.2,7.4,1.3c2.8.2,5.3,0,7.5-.5v-2.6c-2.1.5-4.5.7-7.4.6h-.1Z"/>
              </g>
              <g>
                <path class="st3" d="M462.2,250.6h.2c1-.7,2-1.4,2.9-2h0c.6-.5,1.2-.9,1.8-1.4h0c.3-.3.6-.5.9-.8h0c.6-.5,1.2-1,1.8-1.5,2-1.7,3.9-3.5,6.1-5-1.7-1-3.4-1.7-5.3-2.2s-3.9-.9-6-1c-2.8-.2-5.2,0-7.4.6l-.9,15.5c2.1-.5,4-1.3,5.7-2.2h.2Z"/>
                <path class="st3" d="M465.4,251.6c1.7,1,3.5,1.8,5.4,2.3s4,.8,6.2.8,5.3-.2,7.5-.8l.4-15.5c-5.5,1.5-9.3,4.9-13.3,8.3-1.9,1.7-3.9,3.4-6.2,4.8h0Z"/>
                <path class="st5" d="M477,254.8c-2.2,0-4.2-.3-6.2-.8-1.9-.5-3.7-1.3-5.4-2.3,2.2-1.5,4.2-3.1,6.2-4.8,4-3.5,7.7-6.8,13.3-8.3v-2.6c-2.4.6-4.5,1.5-6.4,2.6-4-2.6-8.4-3.8-13.6-4.2-2.8-.2-5.2,0-7.4.5v2.6c2-.5,4.4-.7,7.2-.6,2.2.1,4.2.5,6,1,1.9.5,3.6,1.2,5.3,2.2-2.2,1.5-4.2,3.3-6.1,5-.6.5-1.2,1-1.8,1.5h0c-.3.3-.6.5-.9.7h0c-.6.5-1.2,1-1.8,1.4h0c-.9.7-1.9,1.3-2.9,1.9h-.2c-1.7,1.1-3.6,1.8-5.7,2.3v2.6c2.4-.5,4.6-1.3,6.5-2.4,2,1.4,4.2,2.4,6.5,3.1,2.3.7,4.8,1,7.4,1.1,2.8,0,5.3-.2,7.5-.7v-2.6c-2.1.6-4.6.9-7.5.8h0Z"/>
              </g>
              <g>
                <path class="st3" d="M490.2,251.6h.2c1-.8,2-1.4,2.9-2.1h0c.6-.5,1.2-.9,1.7-1.4h0c.3-.3.6-.5.8-.8h0c.6-.5,1.1-1.1,1.7-1.6,1.9-1.7,3.8-3.6,6-5.1-1.7-.9-3.5-1.6-5.4-2-1.9-.5-3.9-.8-6.1-.8s-5.2.2-7.4.8l-.4,15.5c2.1-.6,4-1.4,5.7-2.4h.3Z"/>
                <path class="st3" d="M493.4,252.5c1.7,1,3.5,1.7,5.5,2.2,1.9.4,4,.6,6.2.6s5.3-.4,7.5-1.1v-15.5c-5.6,1.7-9.2,5.1-13.1,8.7-1.9,1.8-3.8,3.5-6,5h0Z"/>
                <path class="st5" d="M505,255.3c-2.2,0-4.3-.2-6.2-.6-1.9-.5-3.7-1.2-5.5-2.2,2.2-1.6,4.1-3.2,6-5,3.9-3.6,7.5-7.1,13-8.7v-2.6c-2.4.7-4.5,1.6-6.4,2.8-2.1-1.2-4.2-2.1-6.4-2.7s-4.7-1-7.3-1-5.2.2-7.3.7v2.6c2.1-.6,4.5-.9,7.3-.8,2.2,0,4.2.3,6.1.8,1.9.4,3.7,1.1,5.4,2-2.1,1.6-4,3.4-6,5.1-.6.5-1.2,1.1-1.7,1.6h0c-.3.3-.6.5-.8.8h0c-.6.6-1.1,1-1.7,1.5h0c-.9.7-1.9,1.4-2.9,2h-.2c-1.7,1.1-3.5,2-5.7,2.5v2.6c2.4-.6,4.6-1.5,6.5-2.6,2.1,1.3,4.2,2.3,6.5,2.9s4.8.9,7.5.9,5.3-.4,7.5-1v-2.6c-2.2.6-4.6,1-7.5,1.1h-.2Z"/>
              </g>
              <g>
                <path class="st3" d="M518.1,251.6h.2c1-.8,1.9-1.5,2.8-2.2h0c.6-.5,1.1-1,1.7-1.5h0c.3-.3.5-.6.8-.8h0c.6-.6,1.1-1.1,1.7-1.6,1.8-1.8,3.7-3.7,5.8-5.3-1.7-.9-3.5-1.4-5.4-1.9-1.9-.4-3.9-.6-6.1-.6s-5.2.4-7.3,1.1v15.5c2.2-.6,4-1.5,5.7-2.6h0Z"/>
                <path class="st3" d="M521.4,252.4c1.8.9,3.6,1.6,5.5,2s4,.5,6.2.4c2.9-.1,5.3-.6,7.4-1.3l-.5-15.5c-5.5,1.8-9,5.4-12.7,9.1-1.8,1.8-3.7,3.6-5.9,5.2h0Z"/>
                <path class="st5" d="M533.1,254.9c-2.2,0-4.3,0-6.2-.4s-3.8-1.1-5.5-2c2.2-1.6,4-3.4,5.9-5.2,3.7-3.7,7.3-7.3,12.7-9.1v-2.6c-2.5.7-4.6,1.8-6.4,3-2.1-1.2-4.2-2-6.5-2.5-2.3-.6-4.7-.9-7.3-.8-2.8,0-5.2.4-7.3.9v2.6c2.2-.6,4.6-1,7.4-1.1,2.2,0,4.2.2,6.1.6,1.9.4,3.7,1,5.4,1.9-2.1,1.6-4,3.6-5.8,5.3-.6.6-1.1,1.1-1.7,1.6h0c-.3.3-.5.5-.8.8h0c-.6.6-1.1,1.1-1.7,1.5h0c-.9.8-1.8,1.4-2.8,2.1h-.2c-1.7,1.2-3.5,2.1-5.6,2.7v2.6c2.5-.7,4.6-1.6,6.5-2.8,2.1,1.2,4.3,2.1,6.6,2.7s4.8.7,7.5.7c2.8-.1,5.3-.5,7.5-1.2v-2.6c-2.2.7-4.7,1.2-7.5,1.3h-.3Z"/>
              </g>
              <g>
                <path class="st3" d="M546,250.9l.2-.2c1-.7,1.9-1.4,2.8-2.2h0c.6-.5,1.1-1,1.7-1.5h0c.3-.3.5-.6.8-.8h0c.5-.6,1.1-1.1,1.7-1.7,1.8-1.8,3.6-3.7,5.7-5.4-3.5-1.6-7.3-2.3-11.6-2.2-2.8.1-5.2.6-7.3,1.3l.5,15.5c2.1-.7,3.9-1.6,5.5-2.7h0Z"/>
                <path class="st3" d="M549.3,251.6c1.8.9,3.6,1.5,5.6,1.8s4,.4,6.2.3c2.8-.2,5.3-.7,7.4-1.5l-1-15.5c-5.4,2-8.9,5.7-12.5,9.5-1.8,1.8-3.6,3.7-5.7,5.3h0Z"/>
                <path class="st5" d="M561.1,253.7c-2.2.1-4.2,0-6.2-.3-2-.4-3.8-1-5.6-1.8,2.1-1.7,3.9-3.5,5.7-5.3,3.6-3.8,7.1-7.5,12.5-9.5l-.2-2.6c-2.4.8-4.4,1.9-6.3,3.1-2.1-1.1-4.3-1.9-6.6-2.4s-4.7-.7-7.3-.6c-2.8.1-5.2.5-7.3,1.2v2.6c2.2-.7,4.6-1.2,7.4-1.3,4.3-.2,8.1.6,11.6,2.2-2,1.7-3.8,3.6-5.7,5.4-.6.6-1.1,1.1-1.7,1.7h0c-.3.3-.5.6-.8.8h0c-.5.6-1.1,1.1-1.7,1.6h0c-.9.8-1.8,1.5-2.8,2.2l-.2.2c-1.6,1.1-3.4,2-5.5,2.7v2.6c2.6-.7,4.7-1.8,6.5-3,4.3,2.3,8.8,3.4,14.2,3,2.8-.2,5.3-.7,7.4-1.4l-.2-2.6c-2.1.8-4.5,1.3-7.4,1.5h.2Z"/>
              </g>
              <g>
                <path class="st3" d="M573.9,249.4l.2-.2c1-.7,1.8-1.4,2.7-2.2h0c.5-.5,1.1-1.1,1.6-1.6h0c.3-.3.5-.6.8-.9h0c.5-.6,1.1-1.2,1.6-1.8,1.8-1.9,3.5-3.8,5.5-5.6-1.8-.8-3.6-1.3-5.5-1.6s-4-.4-6.1-.3c-2.8.2-5.2.7-7.3,1.5l1,15.5c2.1-.8,3.8-1.7,5.4-2.9h0Z"/>
                <path class="st3" d="M577.2,250c3.6,1.6,7.4,2.3,11.8,1.9,2.8-.2,5.2-.8,7.3-1.7l-1.3-15.4c-5.4,2.1-8.7,5.9-12.3,9.7-1.7,1.9-3.5,3.8-5.6,5.5h0Z"/>
                <path class="st5" d="M589,251.9c-4.4.4-8.2-.3-11.8-1.9,2.1-1.7,3.8-3.6,5.6-5.5,3.5-3.8,6.9-7.6,12.3-9.7l-.2-2.6c-2.4.9-4.4,2-6.2,3.3-4.3-2.1-8.8-3-14-2.6-2.8.2-5.2.7-7.3,1.4l.2,2.6c2.1-.8,4.5-1.3,7.3-1.5,2.2-.1,4.2,0,6.1.3,1.9.3,3.8.9,5.5,1.6-2,1.8-3.8,3.7-5.5,5.6-.5.6-1.1,1.1-1.6,1.7h0c-.3.3-.5.6-.8.8h0c-.5.6-1.1,1.1-1.6,1.6h0c-.8.8-1.7,1.6-2.7,2.2l-.2.2c-1.6,1.1-3.4,2.1-5.4,2.9l.2,2.6c2.4-.8,4.5-1.9,6.3-3.2,2.2,1.1,4.4,1.9,6.8,2.3,1.2.2,2.4.4,3.6.4s2.5,0,3.9-.1c2.8-.2,5.2-.8,7.4-1.6l-.2-2.6c-2.1.8-4.5,1.4-7.3,1.7h-.4Z"/>
              </g>
              <g>
                <path class="st3" d="M601.8,247.2l.2-.2c.9-.7,1.8-1.5,2.7-2.3h0c.5-.5,1.1-1.1,1.6-1.6h0c.2-.3.5-.6.8-.9h0c.5-.6,1-1.2,1.6-1.8,1.7-1.9,3.4-3.9,5.4-5.6-3.6-1.5-7.4-2.1-11.7-1.7-2.8.2-5.2.8-7.2,1.6l1.3,15.4c2-.8,3.8-1.8,5.4-3h0Z"/>
                <path class="st3" d="M605.1,247.7c3.6,1.5,7.5,2.1,11.8,1.6,2.8-.3,5.2-.9,7.3-1.8l-1.6-15.4c-5.3,2.2-8.6,6.1-12.1,10-1.7,1.9-3.4,3.9-5.5,5.6h0Z"/>
                <path class="st5" d="M616.9,249.3c-4.4.5-8.2-.1-11.8-1.6,2-1.8,3.8-3.7,5.5-5.6,3.5-3.9,6.7-7.7,12.1-10l-.3-2.6c-2.4.9-4.4,2.1-6.1,3.4-4.4-2-8.8-2.9-14.1-2.4-2.8.2-5.1.8-7.2,1.6l.2,2.6c2.1-.8,4.5-1.4,7.2-1.6,4.3-.4,8.1.1,11.7,1.7-2,1.8-3.7,3.7-5.4,5.6-.5.6-1,1.2-1.6,1.8h0c-.2.3-.5.6-.8.9h0c-.5.6-1,1.2-1.6,1.7h0c-.8.8-1.7,1.6-2.7,2.3l-.2.2c-1.6,1.2-3.3,2.2-5.4,3l.2,2.6c2.4-.9,4.5-2,6.3-3.3,4.4,2.1,9,2.9,14.3,2.4,2.8-.3,5.2-.9,7.3-1.7l-.3-2.6c-2.1.9-4.5,1.5-7.3,1.8h0v-.2Z"/>
              </g>
              <g>
                <path class="st3" d="M629.5,244.4l.2-.2c.9-.7,1.8-1.5,2.6-2.4h0c.5-.6,1-1.1,1.5-1.7h0c.2-.4.5-.6.7-.9h0c.5-.6,1-1.2,1.5-1.8,1.7-2,3.3-3.9,5.3-5.8-3.6-1.4-7.4-1.9-11.8-1.4-2.8.3-5.2.9-7.2,1.8l1.6,15.4c2-.8,3.8-1.9,5.3-3.1h.3Z"/>
                <path class="st3" d="M632.8,244.9c3.7,1.4,7.5,1.9,11.9,1.4,2.8-.3,5.2-1,7.3-1.9l-1.9-15.4c-5.3,2.4-8.5,6.2-11.9,10.1-1.7,1.9-3.4,3.9-5.3,5.8h0Z"/>
                <path class="st5" d="M644.7,246.3c-4.4.5-8.2,0-11.9-1.4,2-1.8,3.7-3.8,5.3-5.8,3.4-4,6.6-7.8,11.9-10.1l-.3-2.6c-2.3.9-4.3,2.2-6.1,3.5-4.4-2-8.9-2.7-14.1-2.1-2.8.3-5.1.9-7.2,1.7l.3,2.6c2.1-.9,4.4-1.5,7.2-1.8,4.3-.5,8.1,0,11.8,1.4-1.9,1.8-3.6,3.8-5.3,5.8-.5.6-1,1.2-1.5,1.8h0c-.2.3-.5.6-.7.9h0c-.5.6-1,1.2-1.5,1.7h0c-.8.8-1.7,1.6-2.6,2.4l-.2.2c-1.5,1.2-3.3,2.3-5.3,3.1l.3,2.6c2.4-.9,4.4-2.1,6.2-3.4,4.4,2,9,2.7,14.3,2.1,2.8-.3,5.2-1,7.3-1.8l-.3-2.6c-2.1.9-4.4,1.6-7.3,1.9h-.3Z"/>
              </g>
              <g>
                <path class="st3" d="M657.2,241.1l.2-.2c.9-.8,1.8-1.6,2.6-2.4h0c.5-.6,1-1.1,1.5-1.7h0c.2-.4.5-.6.7-.9h0c.5-.6,1-1.2,1.5-1.8,1.6-2,3.3-4,5.2-5.9-3.7-1.4-7.5-1.8-11.8-1.2-2.8.4-5.2,1-7.2,1.9l1.9,15.4c2-.9,3.7-2,5.2-3.2h.2Z"/>
                <path class="st3" d="M660.5,241.5c3.7,1.4,7.5,1.8,11.9,1.2,2.8-.4,5.2-1,7.2-2l-2.1-15.4c-5.3,2.4-8.4,6.2-11.8,10.3-1.6,2-3.3,4-5.2,5.9h0Z"/>
                <path class="st5" d="M672.4,242.7c-4.4.6-8.2.2-11.9-1.2,2-1.9,3.6-3.9,5.2-5.9,3.3-4.1,6.5-7.9,11.8-10.3l-.3-2.6c-2.3,1-4.3,2.2-6,3.6-4.4-1.9-9-2.5-14.2-1.8-2.8.4-5.1,1-7.2,1.9l.3,2.6c2-.9,4.4-1.6,7.2-1.9,4.3-.6,8.1-.2,11.8,1.2-1.9,1.8-3.6,3.9-5.2,5.9-.5.6-1,1.2-1.5,1.8h0c-.2.3-.5.6-.7.9h0c-.5.6-1,1.2-1.5,1.7h0c-.8.9-1.6,1.7-2.6,2.4l-.2.2c-1.5,1.2-3.2,2.3-5.2,3.2l.3,2.6c2.4-1,4.4-2.2,6.1-3.6,4.5,1.9,9,2.5,14.3,1.8,2.8-.4,5.2-1,7.3-1.9l-.4-2.6c-2,.9-4.4,1.6-7.2,2h-.2Z"/>
              </g>
              <g>
                <path class="st3" d="M684.8,237.4l.2-.2c.9-.8,1.7-1.6,2.5-2.4h0c.5-.6,1-1.1,1.5-1.7h0c.2-.4.5-.6.7-.9h0c.5-.6,1-1.2,1.5-1.9,1.6-2,3.2-4.1,5.1-5.9-3.7-1.3-7.5-1.6-11.8-1-2.8.4-5.1,1.1-7.2,2.1l2.1,15.4c2-.9,3.7-2,5.2-3.3h0l.2-.2Z"/>
                <path class="st3" d="M688.2,237.8c3.7,1.3,7.5,1.6,11.9,1,2.8-.4,5.2-1.1,7.2-2.1l-2.3-15.3c-5.2,2.4-8.4,6.3-11.6,10.4-1.6,2-3.2,4.1-5.2,5.9h0Z"/>
                <path class="st5" d="M700,238.8c-4.4.6-8.2.3-11.9-1,1.9-1.9,3.6-3.9,5.2-5.9,3.3-4.1,6.4-8,11.6-10.4l-.4-2.6c-2.3,1-4.3,2.2-6,3.6-4.5-1.9-9-2.4-14.2-1.6-2.8.4-5.1,1.1-7.2,2l.4,2.6c2-.9,4.4-1.6,7.2-2.1,4.3-.6,8.1-.3,11.8,1-1.9,1.9-3.5,3.9-5.1,5.9-.5.6-1,1.2-1.5,1.8h0c-.2.3-.5.6-.7.9h0c-.5.7-1,1.2-1.5,1.8h0c-.8.9-1.6,1.7-2.5,2.5l-.2.2c-1.5,1.3-3.2,2.4-5.2,3.3l.4,2.6c2.3-1,4.3-2.2,6.1-3.6,4.5,1.9,9,2.4,14.3,1.6,2.8-.4,5.2-1.1,7.2-2l-.4-2.6c-2,.9-4.4,1.6-7.2,2.1h-.2Z"/>
              </g>
              <g>
                <path class="st3" d="M712.4,233.4l.2-.2c.9-.8,1.7-1.6,2.5-2.5h0c.5-.6,1-1.2,1.5-1.7h0c.2-.4.5-.7.7-.9h0c.5-.6,1-1.3,1.5-1.9,1.6-2,3.2-4.1,5.1-6-3.7-1.3-7.5-1.6-11.8-.9-2.8.4-5.1,1.1-7.2,2.1l2.3,15.3c2-.9,3.7-2,5.2-3.3h0Z"/>
                <path class="st3" d="M715.7,233.7c3.7,1.3,7.5,1.6,11.9.9,2.8-.4,5.2-1.2,7.2-2.1l-2.4-15.3c-5.2,2.5-8.3,6.4-11.5,10.6-1.6,2-3.2,4.1-5.1,6h-.1Z"/>
                <path class="st5" d="M727.6,234.6c-4.3.7-8.2.4-11.9-.9,1.9-1.9,3.5-4,5.1-6,3.2-4.1,6.3-8.1,11.5-10.6l-.4-2.6c-2.3,1-4.3,2.3-6,3.7-4.5-1.8-9-2.3-14.2-1.5-2.8.4-5.1,1.1-7.2,2l.4,2.6c2-.9,4.4-1.6,7.2-2.1,4.3-.7,8.1-.4,11.8.9-1.9,1.9-3.5,4-5.1,6-.5.6-1,1.2-1.5,1.9h0c-.2.3-.5.6-.7.9h0c-.5.7-1,1.2-1.5,1.8h0c-.8.9-1.6,1.7-2.5,2.5l-.2.2c-1.5,1.3-3.2,2.4-5.2,3.3l.4,2.6c2.3-1,4.3-2.2,6-3.7,4.5,1.8,9.1,2.3,14.3,1.4,2.8-.4,5.1-1.1,7.2-2.1l-.4-2.6c-2,1-4.4,1.7-7.2,2.1h0v.2Z"/>
              </g>
              <g>
                <path class="st3" d="M739.9,229.1l.2-.2c.9-.8,1.7-1.6,2.5-2.5h0c.5-.6,1-1.2,1.5-1.7h0c.2-.4.5-.7.7-.9h0c.5-.6,1-1.3,1.5-1.9,1.6-2.1,3.2-4.1,5-6-3.7-1.2-7.5-1.5-11.8-.8-2.8.4-5.1,1.2-7.2,2.1l2.4,15.3c2-.9,3.6-2.1,5.1-3.4h0Z"/>
                <path class="st3" d="M743.2,229.4c3.7,1.3,7.5,1.5,11.9.8,2.8-.5,5.1-1.2,7.2-2.2l-2.5-15.3c-5.2,2.5-8.3,6.5-11.5,10.7-1.6,2-3.2,4.1-5,6h-.1Z"/>
                <path class="st5" d="M755.1,230.2c-4.3.7-8.2.5-11.9-.8,1.9-1.9,3.5-4,5-6,3.2-4.2,6.2-8.2,11.5-10.7l-.4-2.6c-2.3,1-4.2,2.3-5.9,3.8-4.5-1.8-9-2.2-14.3-1.4-2.8.4-5.1,1.1-7.2,2l.4,2.6c2-1,4.4-1.7,7.2-2.1,4.3-.7,8.1-.4,11.8.8-1.9,1.9-3.5,4-5,6-.5.6-1,1.2-1.5,1.9h0c-.2.3-.5.6-.7.9h0c-.5.7-1,1.2-1.5,1.8h0c-.8.9-1.6,1.7-2.5,2.5l-.2.2c-1.5,1.3-3.2,2.4-5.1,3.4l.4,2.6c2.3-1,4.3-2.3,6-3.7,4.5,1.8,9.1,2.3,14.3,1.4,2.8-.5,5.1-1.2,7.2-2.1l-.4-2.6c-2,1-4.4,1.7-7.2,2.2h0Z"/>
              </g>
              <g>
                <path class="st3" d="M767.4,224.6l.2-.2c.9-.8,1.7-1.6,2.5-2.5h0c.5-.6,1-1.2,1.5-1.7h0c.2-.4.5-.7.7-.9h0c.5-.6,1-1.3,1.4-1.9,1.6-2.1,3.2-4.1,5-6-3.7-1.2-7.5-1.5-11.8-.8-2.8.5-5.1,1.2-7.1,2.2l2.5,15.3c2-.9,3.6-2.1,5.1-3.4h0Z"/>
                <path class="st3" d="M770.7,224.9c3.7,1.2,7.5,1.5,11.9.8,2.8-.5,5.1-1.2,7.2-2.2l-2.6-15.3c-5.2,2.6-8.2,6.6-11.4,10.7-1.5,2-3.1,4.1-5,6h-.1Z"/>
                <path class="st5" d="M782.6,225.7c-4.3.7-8.2.5-11.9-.8,1.9-1.9,3.5-4,5-6,3.2-4.2,6.2-8.1,11.4-10.7l-.4-2.6c-2.3,1.1-4.2,2.4-5.9,3.8-4.5-1.8-9.1-2.2-14.3-1.3-2.8.5-5.1,1.2-7.2,2.1l.4,2.6c2-1,4.3-1.7,7.1-2.2,4.3-.7,8.1-.5,11.8.8-1.9,1.9-3.4,4-5,6-.5.6-1,1.2-1.4,1.9h0c-.2.3-.5.6-.7.9h0c-.5.7-1,1.2-1.5,1.8h0c-.8.9-1.6,1.7-2.5,2.5l-.2.2c-1.5,1.3-3.1,2.4-5.1,3.4l.4,2.6c2.3-1,4.3-2.3,6-3.8,4.5,1.8,9.1,2.2,14.3,1.3,2.8-.4,5.1-1.2,7.2-2.1l-.4-2.6c-2,1-4.3,1.8-7.2,2.2h.1Z"/>
              </g>
              <g>
                <path class="st3" d="M794.8,220l.2-.2c.9-.8,1.7-1.6,2.4-2.5h0c.5-.6,1-1.1,1.4-1.7h0c.2-.4.5-.7.7-1h0c.5-.6,1-1.2,1.4-1.9,1.5-2.1,3.1-4.1,5-6.1-3.7-1.2-7.5-1.4-11.9-.7-2.8.5-5.1,1.2-7.1,2.2l2.6,15.3c2-1,3.6-2.1,5.1-3.4h.2Z"/>
                <path class="st3" d="M798.2,220.2c3.7,1.2,7.5,1.4,11.9.7,2.8-.5,5.1-1.2,7.1-2.2l-2.6-15.3c-5.2,2.6-8.2,6.6-11.4,10.8-1.5,2-3.1,4.1-5,6.1h0Z"/>
                <path class="st5" d="M810,220.9c-4.3.8-8.1.5-11.9-.7,1.9-1.9,3.4-4,5-6.1,3.2-4.2,6.2-8.2,11.4-10.8l-.4-2.6c-2.3,1.1-4.2,2.4-5.9,3.8-4.5-1.8-9.1-2.1-14.3-1.2-2.8.5-5.1,1.2-7.2,2.1l.4,2.6c2-1,4.3-1.8,7.1-2.2,4.3-.7,8.1-.5,11.9.7-1.8,1.9-3.4,4-5,6.1-.5.6-1,1.3-1.4,1.9h0c-.2.3-.5.6-.7.9h0c-.5.7-1,1.2-1.4,1.8h0c-.8.9-1.6,1.7-2.4,2.5l-.2.2c-1.5,1.3-3.1,2.5-5.1,3.4l.4,2.6c2.3-1.1,4.2-2.4,5.9-3.8,4.5,1.8,9.1,2.1,14.3,1.2,2.8-.5,5.1-1.2,7.2-2.1l-.4-2.6c-2,1-4.3,1.8-7.1,2.2h-.2Z"/>
              </g>
              <g>
                <path class="st3" d="M822.2,215.3l.2-.2c.9-.8,1.7-1.6,2.4-2.5h0c.5-.6,1-1.2,1.4-1.8h0c.2-.4.5-.7.7-1h0c.5-.7.9-1.3,1.4-1.9,1.5-2.1,3.1-4.2,5-6.1-3.7-1.2-7.5-1.4-11.8-.7-2.8.5-5.1,1.3-7.1,2.2l2.7,15.3c2-1,3.6-2.1,5.1-3.4h0Z"/>
                <path class="st3" d="M825.5,215.5c3.7,1.2,7.5,1.4,11.9.7,2.8-.5,5.1-1.3,7.1-2.3l-2.7-15.3c-5.2,2.6-8.2,6.6-11.3,10.8-1.5,2.1-3.1,4.1-5,6.1h0Z"/>
                <path class="st5" d="M837.4,216.2c-4.3.8-8.1.6-11.9-.7,1.9-1.9,3.4-4,5-6.1,3.1-4.2,6.2-8.2,11.3-10.8l-.5-2.6c-2.3,1.1-4.2,2.4-5.9,3.8-4.5-1.7-9.1-2.1-14.3-1.2-2.8.5-5.1,1.2-7.1,2.2l.4,2.6c2-1,4.3-1.8,7.1-2.2,4.3-.8,8.1-.6,11.8.7-1.8,1.9-3.4,4-5,6.1-.5.6-1,1.3-1.4,1.9h0c-.2.3-.5.6-.7.9h0c-.5.7-1,1.2-1.4,1.8h0c-.8.9-1.6,1.7-2.4,2.5l-.2.2c-1.5,1.3-3.1,2.5-5.1,3.4l.4,2.6c2.3-1.1,4.2-2.4,5.9-3.8,4.5,1.7,9.1,2.1,14.3,1.2,2.8-.5,5.1-1.2,7.2-2.2l-.5-2.6c-2,1-4.3,1.8-7.1,2.3h.1Z"/>
              </g>
              <g>
                <path class="st3" d="M849.6,210.4l.2-.2c.9-.8,1.7-1.6,2.4-2.5h0c.5-.6,1-1.2,1.4-1.8h0c.2-.4.5-.7.7-1h0c.5-.7.9-1.3,1.4-1.9,1.5-2.1,3.1-4.2,5-6.1-3.7-1.2-7.5-1.4-11.9-.7-2.8.5-5.1,1.3-7.1,2.3l2.7,15.3c2-1,3.6-2.1,5-3.4h.2Z"/>
                <path class="st3" d="M852.9,210.7c3.7,1.2,7.5,1.4,11.9.7,2.8-.5,5.1-1.3,7.1-2.3l-2.7-15.3c-5.2,2.6-8.2,6.6-11.3,10.8-1.5,2.1-3.1,4.1-5,6.1h0Z"/>
                <path class="st5" d="M864.8,211.4c-4.3.8-8.1.6-11.9-.7,1.8-1.9,3.4-4,5-6.1,3.1-4.2,6.1-8.2,11.3-10.8l-.5-2.6c-2.3,1.1-4.2,2.4-5.9,3.8-4.5-1.7-9.1-2.1-14.3-1.2-2.8.5-5.1,1.2-7.1,2.2l.5,2.6c2-1,4.3-1.8,7.1-2.3,4.3-.8,8.1-.6,11.9.7-1.8,1.9-3.4,4-5,6.1-.5.6-1,1.3-1.4,1.9h0c-.2.3-.5.6-.7.9h0c-.5.7-.9,1.2-1.4,1.8h0c-.8.9-1.6,1.7-2.4,2.5l-.2.2c-1.5,1.3-3.1,2.5-5,3.4l.5,2.6c2.3-1.1,4.2-2.4,5.9-3.8,4.5,1.7,9.1,2.1,14.3,1.2,2.8-.5,5.1-1.2,7.1-2.2l-.5-2.6c-2,1-4.3,1.8-7.1,2.3h-.2Z"/>
              </g>
              <g>
                <path class="st3" d="M877,205.6l.2-.2c.9-.8,1.7-1.6,2.4-2.5h0c.5-.6,1-1.1,1.4-1.7h0c.2-.3.5-.6.7-.9h0c.5-.6.9-1.2,1.4-1.9,1.5-2.1,3.1-4.2,5-6.1-3.7-1.2-7.5-1.4-11.9-.6-2.8.5-5.1,1.3-7.1,2.3l2.7,15.3c2-1,3.6-2.1,5-3.5h0l.2-.2Z"/>
                <path class="st3" d="M880.3,205.8c3.7,1.2,7.5,1.4,11.9.6,2.8-.5,5.1-1.3,7.1-2.3l-2.7-15.3c-5.2,2.6-8.2,6.6-11.3,10.8-1.5,2.1-3.1,4.1-5,6.1h0Z"/>
                <path class="st5" d="M892.2,206.5c-4.3.8-8.1.6-11.9-.6,1.8-1.9,3.4-4,5-6.1,3.1-4.2,6.1-8.2,11.3-10.8l-.5-2.6c-2.3,1.1-4.2,2.4-5.9,3.8-4.5-1.7-9.1-2.1-14.3-1.2-2.8.5-5.1,1.2-7.1,2.2l.5,2.6c2-1,4.3-1.8,7.1-2.3,4.3-.8,8.1-.6,11.9.6-1.8,1.9-3.4,4-5,6.1-.5.6-.9,1.3-1.4,1.9h0c-.2.3-.5.6-.7.9h0c-.5.6-.9,1.2-1.4,1.7h0c-.8.9-1.6,1.7-2.4,2.5l-.2.2c-1.5,1.3-3.1,2.5-5,3.5l.5,2.6c2.3-1.1,4.2-2.4,5.9-3.8,4.5,1.7,9.1,2.1,14.3,1.2,2.8-.5,5.1-1.2,7.1-2.2l-.5-2.6c-2,1-4.3,1.8-7.1,2.3h-.2Z"/>
              </g>
              <g>
                <path class="st3" d="M904.3,200.7l.2-.2c.9-.8,1.7-1.6,2.4-2.5h0c.5-.6,1-1.2,1.4-1.8h0c.2-.4.5-.7.7-1h0c.5-.7.9-1.3,1.4-1.9,1.5-2.1,3.1-4.2,4.9-6.1-3.7-1.2-7.5-1.4-11.8-.6-2.8.5-5.1,1.3-7.1,2.3l2.7,15.3c2-1,3.6-2.1,5-3.5h.2Z"/>
                <path class="st3" d="M907.7,201c3.7,1.2,7.6,1.4,12,.6,2.8-.5,5.2-1.4,7.2-2.4l-3-15.2c-5.1,2.7-8,6.7-11.1,10.9-1.5,2.1-3.1,4.2-5,6.1h-.1Z"/>
                <path class="st5" d="M919.6,201.5c-4.3.8-8.2.6-12-.6,1.8-1.9,3.4-4.1,5-6.1,3.1-4.2,6.1-8.3,11.1-10.9l-.5-2.5c-2.2,1.1-4.1,2.4-5.8,3.9-4.5-1.7-9-2-14.2-1.1-2.8.5-5.1,1.2-7.1,2.2l.5,2.6c2-1,4.3-1.8,7.1-2.3,4.3-.8,8.1-.6,11.8.6-1.8,2-3.3,4.1-4.9,6.1-.5.6-1,1.3-1.4,1.9h0c-.2.3-.5.6-.7.9h0c-.5.7-.9,1.2-1.4,1.8h0c-.8.9-1.6,1.7-2.4,2.5l-.2.2c-1.5,1.3-3.1,2.5-5,3.5l.5,2.6c2.3-1.1,4.2-2.4,5.9-3.8,4.5,1.7,9.2,2.1,14.4,1.1,2.8-.5,5.2-1.3,7.2-2.3l-.5-2.6c-2,1-4.3,1.9-7.2,2.4h-.2Z"/>
              </g>
              <g>
                <path class="st3" d="M931.8,195.5l.2-.2c.8-.8,1.6-1.7,2.4-2.6h0c.5-.6.9-1.2,1.4-1.8h0c.2-.4.4-.7.7-1h0c.4-.7.9-1.3,1.3-2,1.5-2.1,2.9-4.3,4.6-6.3-3.7-1-7.5-1.1-11.8-.2-2.7.6-5,1.4-7,2.4l3,15.2c2-1,3.6-2.2,5-3.6h.2Z"/>
                <path class="st3" d="M935.1,195.7c3.8,1.1,7.7,1.1,12,.1,2.8-.6,5.1-1.6,7.1-2.7l-3.7-15.1c-4.9,2.9-7.7,7-10.7,11.4-1.5,2.1-3,4.3-4.8,6.3h.1Z"/>
                <path class="st5" d="M947.2,195.8c-4.3,1-8.2.9-12-.1,1.8-2,3.3-4.2,4.8-6.3,3-4.3,5.7-8.5,10.7-11.4l-.6-2.5c-2.2,1.2-4,2.6-5.6,4.1-4.6-1.5-9-1.7-14.2-.6-2.7.6-5,1.4-7,2.4l.5,2.5c2-1,4.2-1.9,7-2.4,4.2-.9,8-.8,11.8.2-1.7,2-3.2,4.2-4.6,6.3-.5.6-.9,1.3-1.3,1.9h0c-.2.3-.4.6-.7.9h0c-.5.7-.9,1.3-1.4,1.9h0c-.7.9-1.5,1.8-2.4,2.6l-.2.2c-1.4,1.4-3.1,2.6-5,3.6l.5,2.5c2.3-1.1,4.2-2.5,5.9-4,4.6,1.6,9.3,1.8,14.5.6,2.8-.6,5.1-1.6,7.2-2.6l-.6-2.5c-2,1.1-4.3,2.1-7.1,2.7h-.2Z"/>
              </g>
              <g>
                <path class="st3" d="M959.1,189.2l.2-.2c.8-.9,1.6-1.8,2.2-2.7h0c.5-.6.9-1.3,1.3-1.9h0c.2-.4.4-.7.6-1h0c.4-.7.8-1.4,1.2-2,1.3-2.2,2.7-4.4,4.3-6.5-3.8-.8-7.5-.7-11.7.4-2.7.7-4.9,1.6-6.8,2.8l3.7,15.1c1.9-1.1,3.5-2.4,4.9-3.8h0v-.2Z"/>
                <path class="st3" d="M962.5,189.2c1.9.4,3.9.6,5.9.5s4-.5,6.2-1.1c2.8-.8,5-1.9,7-3.1l-4.6-14.8c-2.4,1.6-4.2,3.4-5.7,5.5-1.6,2-2.9,4.2-4.2,6.5-1.3,2.2-2.7,4.4-4.4,6.5h-.2Z"/>
                <path class="st5" d="M974.5,188.7c-2.2.6-4.2,1-6.2,1.1-2,0-3.9-.1-5.9-.5,1.7-2.1,3.1-4.3,4.4-6.5,1.4-2.2,2.7-4.4,4.2-6.5,1.6-2,3.4-3.9,5.7-5.5l-.8-2.5c-2.1,1.3-3.8,2.8-5.3,4.5-2.3-.6-4.6-.9-6.9-.9s-4.7.3-7.2,1c-2.7.7-4.9,1.6-6.8,2.6l.6,2.5c1.9-1.1,4.1-2.1,6.8-2.8,4.2-1.1,7.9-1.2,11.7-.4-1.6,2.1-2.9,4.4-4.3,6.5-.4.7-.8,1.3-1.2,2h0c-.2.3-.4.7-.6,1h0c-.4.7-.8,1.3-1.3,1.9h0c-.7,1-1.4,1.9-2.2,2.7l-.2.2c-1.4,1.4-3,2.7-4.9,3.8l.6,2.5c2.3-1.2,4.1-2.7,5.7-4.3,4.7,1.4,9.4,1.3,14.7-.2,2.8-.8,5.1-1.9,7-3.1l-.8-2.5c-1.9,1.2-4.2,2.3-7,3.1h0l.2.3Z"/>
              </g>
              <g>
                <path class="st3" d="M986.1,181.4l.2-.2c.8-.9,1.4-1.9,2.1-2.9h0c.4-.7.8-1.3,1.2-2h0c.2-.4.4-.7.5-1.1h0c.4-.7.7-1.4,1.1-2.1,1.2-2.3,2.3-4.6,3.8-6.8-1.9-.3-3.8-.3-5.7-.1s-3.8.6-5.9,1.3c-2.6.9-4.8,1.9-6.6,3.2l4.6,14.8c1.8-1.2,3.3-2.6,4.6-4.1h.1Z"/>
                <path class="st3" d="M989.5,181.1c3.9.6,7.8.1,12.1-1.5,2.7-1.1,4.9-2.3,6.7-3.8l-5.9-14.3c-4.4,3.6-6.5,8-8.9,12.7-1.2,2.3-2.4,4.6-4,6.8h0Z"/>
                <path class="st5" d="M1001.6,179.6c-4.2,1.6-8.1,2.1-12.1,1.5,1.6-2.2,2.8-4.5,4-6.8,2.4-4.7,4.5-9.1,8.9-12.7l-1-2.4c-1.9,1.5-3.5,3.1-4.8,4.9-4.7-.9-9.1-.5-13.9,1.1-2.6.9-4.7,1.9-6.6,3.1l.8,2.5c1.8-1.3,4-2.3,6.6-3.2,2-.7,4-1.1,5.9-1.3s3.8-.2,5.7.1c-1.4,2.2-2.6,4.5-3.8,6.8-.4.7-.7,1.4-1.1,2.1h0c-.2.4-.4.7-.5,1h0c-.4.7-.8,1.4-1.2,2h0c-.6,1-1.3,2-2.1,2.9l-.2.2c-1.3,1.5-2.8,2.9-4.6,4.1l.8,2.5c2.2-1.4,4-3,5.5-4.6,2.4.5,4.8.6,7.2.4,2.4-.2,4.9-.8,7.5-1.8,2.7-1.1,5-2.2,6.8-3.7l-1-2.4c-1.8,1.5-4,2.7-6.7,3.8h-.1Z"/>
              </g>
              <g>
                <path class="st3" d="M1012.6,171.4l.2-.2c.7-1,1.3-2,1.8-3.1h0c.4-.7.7-1.4,1-2.1h0c.2-.4.3-.8.4-1.1h0c.3-.8.6-1.5.9-2.2.9-2.4,1.9-4.8,3-7.2-1.9,0-3.8,0-5.6.5-.9.2-1.8.5-2.8.8-.9.3-1.9.7-2.9,1.1-2.5,1.1-4.5,2.4-6.2,3.8l5.9,14.3c1.8-1.4,3.1-2.9,4.3-4.6h0Z"/>
                <path class="st3" d="M1015.9,170.8c2,.1,4,0,5.9-.5,1-.2,2-.5,3-.9s2-.8,3-1.4c2.6-1.3,4.7-2.9,6.3-4.5l-7.6-13.5c-1.9,2-3.3,4.2-4.4,6.5-1.1,2.3-2,4.7-2.9,7.1-.9,2.4-1.9,4.9-3.3,7.2h0Z"/>
                <path class="st5" d="M1027.8,168c-1,.5-2,1-3,1.4s-2,.6-3,.9c-2,.4-3.9.6-5.9.5,1.4-2.3,2.4-4.8,3.3-7.2,1-2.4,1.8-4.8,2.9-7.1,1.1-2.3,2.5-4.5,4.4-6.5l-1.3-2.3c-1.7,1.7-3,3.5-4.1,5.4-2.4-.2-4.6,0-6.8.3-1.1.2-2.2.5-3.3.9s-2.3.8-3.4,1.3c-2.4,1.1-4.5,2.3-6.2,3.6l1,2.4c1.7-1.4,3.7-2.6,6.2-3.8,1-.4,1.9-.8,2.9-1.1.9-.3,1.9-.6,2.8-.8,1.8-.4,3.7-.5,5.6-.5-1.1,2.4-2.1,4.8-3,7.2-.3.7-.6,1.5-.9,2.2h0c0,.4-.3.7-.4,1.1h0c-.3.8-.6,1.4-1,2.1h0c-.5,1.1-1.1,2.1-1.8,3.1l-.2.2c-1.1,1.7-2.5,3.1-4.3,4.6l1,2.4c2.1-1.6,3.8-3.3,5.1-5.2,2.5.3,4.9.2,7.3-.3s4.9-1.3,7.3-2.6c2.6-1.3,4.7-2.9,6.4-4.5l-1.3-2.3c-1.6,1.6-3.7,3.2-6.3,4.5h0Z"/>
              </g>
              <g>
                <path class="st3" d="M1037.9,158.4v-.2c.7-1.1,1.2-2.1,1.5-3.3h0c.3-.8.5-1.5.7-2.2h0c0-.4.2-.8.3-1.2h0c.2-.8.4-1.6.6-2.3.6-2.5,1.1-5.1,1.8-7.5-1.9.2-3.7.6-5.4,1.3-1.8.6-3.5,1.5-5.3,2.6-2.3,1.4-4.1,2.9-5.6,4.4l7.6,13.5c1.6-1.6,2.8-3.3,3.7-5.1h.1Z"/>
                <path class="st3" d="M1041.2,157.3c2-.2,3.9-.6,5.9-1.4,1.9-.8,3.8-1.8,5.7-3.2,2.4-1.8,4.3-3.6,5.6-5.6l-9.8-12c-.4.6-.7,1.2-1,1.8s-.6,1.1-.9,1.7c-.5,1.2-.9,2.4-1.3,3.6-.7,2.4-1.3,4.9-1.8,7.5-.6,2.5-1.2,5-2.3,7.6h0Z"/>
                <path class="st5" d="M1052.7,152.8c-1.9,1.4-3.8,2.4-5.7,3.2-1.9.7-3.9,1.2-5.9,1.4,1-2.6,1.7-5.1,2.3-7.6.6-2.6,1.1-5.1,1.8-7.5.4-1.2.8-2.4,1.3-3.6.3-.6.6-1.2.9-1.7.3-.6.7-1.2,1-1.8l-1.6-2c-.7,1-1.2,2-1.8,2.9-.5,1-1,2-1.3,3-2.3.2-4.5.6-6.6,1.3s-4.2,1.7-6.3,3c-2.3,1.3-4,2.9-5.6,4.3l1.3,2.3c1.5-1.5,3.3-3.1,5.6-4.4,1.8-1.1,3.5-2,5.3-2.6s3.5-1.1,5.4-1.3c-.8,2.5-1.3,5-1.8,7.5-.2.8-.4,1.5-.6,2.3h0c0,.4-.2.8-.3,1.1h0c-.2.8-.4,1.6-.7,2.3h0c-.4,1.2-.9,2.2-1.4,3.3v.2c-1.1,1.8-2.2,3.5-3.8,5.1l1.3,2.3c2-1.8,3.4-3.8,4.5-5.8,2.5,0,4.9-.6,7.3-1.4,2.4-.8,4.7-2.1,7-3.8,2.4-1.8,4.3-3.6,5.7-5.6l-1.6-2c-1.3,2-3.2,3.8-5.6,5.6h-.1Z"/>
              </g>
              <g>
                <path class="st3" d="M1061.1,141.4v-.3c.4-1.2.7-2.3.9-3.5h0c0-.8.2-1.5.3-2.3h0v-1.2h0v-6.2c0-1.3,0-2.6.2-3.9-1.8.6-3.4,1.4-5,2.3s-3,2.1-4.6,3.5c-1,.9-1.8,1.8-2.6,2.7-.8.9-1.4,1.7-2,2.6l9.8,12c1.3-1.9,2.2-3.7,2.8-5.7h.2Z"/>
                <path class="st3" d="M1064.1,139.8c3.9-1.1,7.4-3.4,10.5-6.9,1.1-1.1,1.8-2.3,2.6-3.4.7-1.1,1.3-2.2,1.8-3.3l-12.3-9.5c-.4,1.3-.8,2.5-1.1,3.8-.2,1.2-.3,2.5-.5,3.8-.2,2.5,0,5.1-.2,7.7,0,2.5-.2,5.2-.8,7.9h0Z"/>
                <path class="st5" d="M1074.6,132.9c-3.1,3.5-6.6,5.8-10.5,6.9.6-2.7.7-5.4.8-7.9,0-2.6,0-5.2.2-7.7,0-1.2.2-2.5.5-3.8.2-1.3.6-2.5,1.1-3.8l-2.1-1.6c-.9,2.1-1.4,4.2-1.6,6.3-2.3.6-4.2,1.5-6.1,2.6-1.9,1-3.6,2.4-5.5,4-.9.8-1.8,1.7-2.5,2.6s-1.4,1.7-2,2.6l1.6,2c.6-.9,1.2-1.8,2-2.6s1.6-1.8,2.6-2.7c1.5-1.4,3-2.5,4.6-3.5,1.6-.9,3.2-1.7,5-2.3,0,1.3,0,2.6-.2,3.9v6.2h0v1.2h0c0,.9-.2,1.6-.3,2.3h0c-.2,1.2-.4,2.3-.8,3.5v.3c-.6,2-1.6,3.8-2.9,5.7l1.6,2c.8-1.1,1.5-2.2,2.1-3.3s1-2.2,1.4-3.3c1.2-.3,2.4-.6,3.6-1.1s2.3-1.1,3.4-1.7c2.2-1.3,4.2-3.1,6.2-5.2,1.1-1.1,1.9-2.3,2.6-3.5.7-1.1,1.4-2.2,1.9-3.4l-2.1-1.6c-.4,1.1-1.1,2.2-1.8,3.3-.7,1.1-1.5,2.3-2.6,3.4h0l-.2.2Z"/>
              </g>
              <g>
                <path class="st3" d="M1080.4,119.8v-3.9h0c0-.8-.2-1.5-.3-2.3h0c0-.5,0-.8-.2-1.2h0c-.2-.8-.3-1.6-.5-2.4-.6-2.5-1.2-5-1.7-7.5-.8.5-1.5,1-2.2,1.6s-1.4,1.2-2,1.8c-.6.7-1.2,1.4-1.8,2.1-.6.7-1.2,1.5-1.7,2.3-.3.5-.7,1.1-1,1.6s-.6,1-.9,1.5c-.5,1-1,2-1.3,3l12.3,9.4c.8-2.2,1.3-4.2,1.4-6.3v.3Z"/>
                <path class="st3" d="M1082.9,117.4c.9-.5,1.8-1.1,2.5-1.7.8-.7,1.5-1.4,2.2-2.2s1.4-1.6,2-2.6,1.2-2,1.7-3.1c1.3-2.8,2.1-5.5,2.3-7.9l-14.5-5.5c-.3,5.3,1.3,9.8,2.5,15,.6,2.5,1.2,5.2,1.2,7.9h.1Z"/>
                <path class="st5" d="M1091.5,107.9c-.5,1.1-1.1,2.1-1.7,3.1-.6.9-1.3,1.8-2,2.6-.7.8-1.4,1.5-2.2,2.2-.8.7-1.7,1.2-2.5,1.7,0-2.8-.6-5.4-1.2-7.9-1.2-5.1-2.8-9.7-2.5-15l-2.4-.9c-.2,2.2,0,4.3.3,6.4-.9.6-1.9,1.2-2.7,1.8-.8.6-1.7,1.3-2.4,2.1-.8.7-1.5,1.5-2.2,2.4-.7.8-1.4,1.8-2.1,2.7-.3.5-.7,1-.9,1.6-.3.5-.6,1-.9,1.5-.5,1-1,1.9-1.3,2.9l2.1,1.6c.3-1,.8-2,1.3-3,.3-.5.6-1,.9-1.5s.6-1.1,1-1.6c.6-.8,1.1-1.6,1.7-2.3.6-.7,1.2-1.4,1.8-2.1.6-.7,1.3-1.2,2-1.8.7-.6,1.4-1.1,2.2-1.6.6,2.5,1.1,4.9,1.7,7.5.2.8.4,1.5.5,2.3h0c0,.4,0,.8.2,1.2h0c0,.8.2,1.6.3,2.3h0c0,1.2.2,2.4,0,3.6v.3c-.2,2-.6,4.1-1.5,6.3l2.1,1.6c.5-1.3,1-2.5,1.3-3.7s.5-2.4.6-3.6c2.2-1.2,4.4-2.6,6.1-4.5.9-.9,1.7-2,2.5-3.1s1.5-2.4,2.2-3.8c1.4-2.9,2.2-5.6,2.5-8.1l-2.4-.9c-.2,2.4-.9,5.1-2.3,7.9h0v-.2Z"/>
              </g>
              <g>
                <path class="st3" d="M1093.3,93.6v-.3c-.4-1.2-.8-2.3-1.2-3.4h0c-.3-.7-.7-1.4-1-2.1h0c-.2-.4-.3-.7-.5-1.1h0c-.4-.7-.8-1.4-1.2-2.1-1.3-2.2-2.8-4.3-4-6.5-2.3,2.9-3.8,6-4.9,9.8-.3,1.2-.6,2.4-.8,3.5-.2,1.1-.3,2.2-.3,3.2l14.5,5.5c.2-2.3,0-4.5-.4-6.5h-.2Z"/>
                <path class="st3" d="M1095,90.5c2.7-3.1,4.4-7,5.1-11.8.4-3.1.2-5.8-.3-8.2l-15.5-.7c1.4,5.1,4.3,9,7.1,13.5.7,1.1,1.3,2.2,2,3.4.6,1.2,1.2,2.4,1.7,3.8h0Z"/>
                <path class="st5" d="M1100.1,78.7c-.6,4.8-2.3,8.7-5.1,11.8-.5-1.3-1-2.6-1.7-3.8-.6-1.2-1.3-2.3-2-3.4-2.8-4.5-5.7-8.3-7.1-13.5h-2.6c.5,2.1,1.3,4,2.3,5.9-2.9,3.5-4.8,7-6,11.4-.3,1.2-.6,2.3-.8,3.4-.2,1.1-.3,2.1-.4,3.1l2.4.9c0-1,.2-2.1.3-3.2.2-1.1.5-2.3.8-3.5,1.1-3.8,2.6-6.9,4.9-9.8,1.3,2.2,2.7,4.3,4,6.5.4.7.8,1.4,1.2,2h0c.2.4.3.7.5,1h0c.3.8.7,1.4,1,2.2h0c.5,1.1.8,2.2,1.2,3.4v.3c.5,2,.8,4.1.5,6.5l2.4.9c.2-1.4.2-2.7.2-4s-.2-2.5-.5-3.6c3.7-3.6,5.9-8.3,6.7-14.3.4-3.1.3-5.9-.2-8.4h-2.6c.5,2.3.7,5,.3,8.1h.3Z"/>
              </g>
              <g>
                <path class="st3" d="M1097.3,64.5l-.2-.2c-.6-1-1.4-2-2.2-2.9h0c-.5-.6-1-1.1-1.6-1.7h0c-.3-.3-.6-.6-.8-.8h0c-.6-.5-1.2-1.1-1.8-1.6-1-.8-2-1.6-3-2.4-1-.8-2-1.5-3-2.4-1.2,3.5-1.6,6.8-1.4,10.7,0,1.3.2,2.4.3,3.5,0,1.1.4,2.1.7,3.1l15.5.7c-.5-2.3-1.4-4.3-2.5-6h0Z"/>
                <path class="st3" d="M1098,61c1.6-3.8,2-8.2.9-13-.2-.8-.4-1.5-.6-2.2s-.5-1.4-.8-2c-.5-1.3-1.2-2.5-1.9-3.5l-14.6,5.2c3.1,4,7.2,6.6,11.3,9.9,1,.8,2,1.7,3,2.6,1,.9,1.9,1.9,2.8,3h-.1Z"/>
                <path class="st5" d="M1098.9,48c1.1,4.8.7,9.2-.9,13-.8-1.1-1.8-2.1-2.8-3-.9-.9-2-1.8-3-2.6-4.1-3.3-8.2-5.9-11.3-9.9l-2.4.9c.6.8,1.3,1.6,2,2.4.7.8,1.4,1.5,2.2,2.2-1.6,4.2-2.2,7.9-1.9,12.5,0,1.2,0,2.3.3,3.4,0,1.1.3,2.1.6,3.1h2.6c-.3-.9-.5-1.9-.7-3s-.3-2.3-.3-3.5c-.2-3.9.2-7.2,1.4-10.7.9.8,2,1.6,3,2.4,1,.8,2,1.6,3,2.4.6.5,1.2,1,1.8,1.5h0c.3.3.6.5.8.8h0c.6.6,1.1,1.1,1.6,1.7h0c.8.9,1.6,1.9,2.2,2.9l.2.2c1.1,1.8,1.9,3.7,2.5,6h2.6c-.3-1.3-.7-2.6-1.1-3.8-.5-1.2-1-2.3-1.6-3.3,2.3-4.6,3-10,1.6-16-.2-.8-.4-1.6-.6-2.3s-.5-1.4-.8-2.1c-.5-1.3-1.2-2.6-1.9-3.7l-2.4.9c.7,1,1.4,2.2,1.9,3.5.3.7.6,1.3.8,2,.2.7.4,1.5.6,2.2h0Z"/>
              </g>
              <g>
                <path class="st3" d="M1090.9,35.4l-.2-.2c-1-.7-2.1-1.3-3.2-1.8h0c-.7-.3-1.4-.6-2.1-.9h0c-.4,0-.7-.2-1.1-.4h0c-.8-.2-1.5-.4-2.3-.6-1.3-.3-2.5-.5-3.7-.7s-2.5-.4-3.7-.6c.6,3.5,1.5,6.4,3.2,9.7,1.1,2.1,2.2,3.9,3.4,5.4l14.6-5.2c-.7-1-1.4-1.9-2.2-2.7-.8-.8-1.6-1.5-2.5-2.1h-.2Z"/>
                <path class="st3" d="M1090,31.9c-.2-4.3-2-8.5-5.5-12.4-2.2-2.5-4.7-4.2-7.1-5.2l-9.6,12.2c4.6,1.6,9.3,1.7,14.5,2.8,1.3.3,2.6.6,3.8,1,1.3.4,2.6,1,3.9,1.6h0Z"/>
                <path class="st5" d="M1084.5,19.5c3.5,3.9,5.3,8.1,5.5,12.4-1.2-.7-2.6-1.2-3.9-1.6s-2.6-.8-3.8-1c-5.2-1.1-9.9-1.2-14.5-2.8l-1.6,2c1.9.7,3.8,1.1,5.7,1.5.6,4.2,1.5,7.5,3.5,11.2,1,2,2.1,3.6,3.2,5.2l2.4-.9c-1.2-1.6-2.3-3.3-3.4-5.4-1.7-3.2-2.7-6.2-3.2-9.7,1.2.2,2.4.4,3.7.6,1.2.2,2.5.5,3.7.7.8.2,1.5.4,2.3.6h0c.4,0,.7.2,1.1.3h0c.7.3,1.4.6,2.1.9h0c1.1.5,2.2,1.1,3.2,1.8l.2.2c.9.6,1.7,1.3,2.5,2.1s1.6,1.7,2.2,2.7l2.4-.9c-1.6-2.5-3.5-4.4-5.4-5.9.2-5.3-1.8-10.8-6.3-15.7-2.3-2.6-4.9-4.4-7.3-5.6l-1.6,2c2.3,1.1,4.8,2.7,7.1,5.3h.2Z"/>
              </g>
              <g>
                <path class="st3" d="M1070.7,12.7h-.3c-1.3,0-2.5.1-3.7.3h0c-.8.1-1.5.3-2.3.5h0c-.4.1-.7.2-1.1.4h0c-.8.3-1.5.5-2.2.8-1.2.5-2.3,1-3.5,1.5-1.1.5-2.3,1.1-3.3,1.6,2.4,2.5,4.9,4.4,8,6.1,1,.5,1.9,1.1,2.9,1.4.9.5,1.8.8,2.7,1.1l9.6-12.2c-2.3-1-4.6-1.5-6.7-1.6h0Z"/>
                <path class="st3" d="M1068,10.2c-2.6-3.4-6.6-5.9-11.7-7.1-.8-.2-1.6-.3-2.4-.4-.8,0-1.5-.2-2.2-.2-1.5,0-2.8,0-4.1.3l-1.1,15.5c1.2-.3,2.3-.7,3.5-1.2,1.1-.4,2.2-1,3.3-1.5,2.2-1.1,4.4-2.2,6.8-3.3,2.4-1,5-1.9,7.9-2.1h0Z"/>
                <path class="st5" d="M1056.3,3.1c5.1,1.2,9,3.7,11.7,7.1-2.9.3-5.5,1.1-7.9,2.2-2.4,1-4.7,2.2-6.8,3.3-1.1.5-2.2,1.1-3.3,1.5-1.1.5-2.2.8-3.5,1.2l-.2,2.6c1-.3,1.9-.5,2.9-.9.9-.3,1.8-.7,2.7-1.1,2.9,3.2,5.6,5.3,9.1,7.2.9.5,1.8,1,2.7,1.3.8.4,1.7.7,2.5,1l1.6-2c-.9-.3-1.8-.6-2.7-1.1-1-.4-1.9-.9-2.9-1.4-3.1-1.7-5.6-3.5-8-6.1,1.1-.5,2.2-1.1,3.3-1.6,1.1-.5,2.3-1,3.5-1.5.7-.3,1.5-.5,2.2-.8h0c.4-.1.7-.2,1.1-.4h0c.8-.3,1.5-.4,2.3-.5h0c1.2-.2,2.4-.4,3.7-.3h.3c2.1,0,4.4.5,6.7,1.6l1.6-2c-1.4-.7-2.8-1.1-4.1-1.5-1.3-.3-2.7-.5-3.9-.6-2.9-4.6-7.8-7.9-14.2-9.4-.8-.2-1.7-.3-2.5-.4s-1.6-.2-2.3-.2c-1.5,0-2.9,0-4.3.2l-.2,2.6c1.3-.3,2.6-.3,4.1-.3s1.5,0,2.2.2c.8,0,1.6.2,2.4.4h0l.2-.3Z"/>
              </g>
              <g>
                <path class="st3" d="M1041.3,5.2l-.2.2c-1.1.7-2,1.4-2.9,2.2h0c-.6.6-1.1,1.1-1.6,1.6h0c-.2.3-.5.6-.7.9h0c-.5.6-1,1.3-1.5,1.9-1.6,2-2.9,4.2-4.5,6.2,3.5,1,6.8,1.3,10.5,1,1.2,0,2.3-.2,3.3-.4,1-.2,2-.4,2.9-.6l1.1-15.5c-2.4.4-4.5,1.3-6.3,2.4h-.1Z"/>
                <path class="st3" d="M1037.7,4.6c-4-1.5-8.4-1.6-13.2-.3-1.5.4-2.9.9-4.2,1.5-1.2.6-2.3,1.3-3.3,2l5.6,14.5c4.1-3.3,6.4-7.5,9.6-11.7.8-1.1,1.6-2.1,2.5-3.1.9-1,1.9-2,3-2.9h0Z"/>
                <path class="st5" d="M1024.5,4.3c4.7-1.3,9.2-1.2,13.2.3-1.1.9-2.1,1.8-3,2.9-.9,1-1.7,2-2.5,3.1-3.1,4.3-5.5,8.4-9.5,11.7l.9,2.4c.9-.7,1.7-1.4,2.4-2.1.8-.8,1.4-1.5,2.1-2.3,4.3,1.4,8,1.7,12.3,1.5,1.1,0,2.2-.2,3.1-.3,1-.2,1.9-.3,2.8-.6l.2-2.6c-.9.3-1.9.4-2.9.6-1,.1-2.1.3-3.3.4-3.7.2-7,0-10.5-1,1.5-2,2.9-4.1,4.5-6.2.5-.6,1-1.2,1.5-1.8h0c.2-.3.5-.6.7-.9h0c.5-.6,1.1-1.2,1.6-1.7h0c.9-.9,1.8-1.6,2.9-2.3l.2-.2c1.8-1.1,3.8-2,6.3-2.4l.2-2.6c-1.5.2-2.9.6-4.1,1-.6.2-1.2.5-1.8.7-.6.3-1.1.6-1.7.9-4.8-2.2-10.4-2.7-16.3-1-1.6.4-3,1-4.3,1.6s-2.4,1.3-3.5,2l.9,2.4c1-.7,2.1-1.4,3.3-2s2.6-1.1,4.1-1.5h.2Z"/>
              </g>
              <g>
                <path class="st3" d="M1012.5,12.5l-.2.2c-.7,1-1.3,2.1-1.8,3.2h0c-.3.7-.6,1.4-.9,2.1h0c0,.4-.2.8-.4,1.1h0c-.2.8-.5,1.5-.7,2.3-.7,2.5-1.4,4.9-2.2,7.4,3.7-.2,7-1.2,10.6-2.9,2.3-1.1,4.2-2.3,5.7-3.6l-5.6-14.5c-1.9,1.4-3.4,3-4.5,4.7h0Z"/>
                <path class="st3" d="M1009.1,13.3c-4.1,0-8.1,1.3-12.1,4-2.6,1.7-4.5,3.6-5.9,5.5l9.5,12.2c3.1-4.4,4.1-9.2,5.5-14.2.4-1.2.8-2.5,1.2-3.7.5-1.2,1-2.5,1.7-3.7h0Z"/>
                <path class="st5" d="M997,17.3c4-2.6,8-3.9,12.1-4-.7,1.2-1.2,2.5-1.7,3.7s-.9,2.5-1.2,3.7c-1.5,5.1-2.5,9.8-5.5,14.2l1.6,2c1.3-1.9,2.4-3.8,3.2-5.7,4.6-.1,8.5-1.1,12.6-3.2,2.2-1.1,4-2.2,5.6-3.4l-.9-2.4c-1.6,1.3-3.4,2.5-5.7,3.6-3.5,1.8-6.9,2.7-10.6,2.9.8-2.4,1.5-4.9,2.2-7.4.2-.8.5-1.5.7-2.2h0c0-.4.2-.8.4-1.1h0c.3-.8.6-1.5.9-2.2h0c.5-1.1,1.1-2.2,1.8-3.2l.2-.2c1.2-1.7,2.6-3.3,4.5-4.7l-.9-2.4c-2.4,1.6-4.1,3.4-5.5,5.4-5.1-.3-10.2,1.1-15,4.4-2.6,1.7-4.6,3.6-6.1,5.5l1.6,2c1.4-1.9,3.3-3.8,5.9-5.5h0l-.2.2Z"/>
              </g>
              <g>
                <path class="st3" d="M988.1,28.5v.3c-.5,1.2-.7,2.3-.9,3.5h0c0,.8-.2,1.5-.3,2.3h0v1.2h0c0,.8,0,1.6,0,2.4,0,2.6,0,5.1-.2,7.7,3.5-1.2,6.5-3,9.5-5.7,2-1.7,3.4-3.4,4.6-5.2l-9.5-12.2c-1.4,1.9-2.3,3.8-3,5.7h0Z"/>
                <path class="st3" d="M985,30.1c-3.9,1.1-7.5,3.4-10.6,7-1,1.1-1.8,2.3-2.5,3.4-.7,1.1-1.2,2.2-1.7,3.3l12.2,9.6c1-2.6,1.4-5.1,1.6-7.6s0-5.1.2-7.7c0-1.3,0-2.6.2-3.9,0-1.3.3-2.7.6-4h0Z"/>
                <path class="st5" d="M974.5,37.1c3.1-3.6,6.6-5.9,10.6-7-.3,1.4-.5,2.7-.6,4s-.2,2.6-.2,3.9c0,2.6,0,5.2-.2,7.7s-.7,5-1.6,7.6l2,1.6c.5-1.1.8-2.2,1.1-3.2.3-1.1.5-2.1.7-3.2,4.4-1.4,7.9-3.3,11.5-6.5,1.9-1.7,3.3-3.3,4.5-5l-1.6-2c-1.2,1.7-2.7,3.4-4.6,5.2-3,2.7-6,4.5-9.5,5.7.2-2.6.2-5.1.2-7.7s0-1.6,0-2.3h0v-1.2h0c0-.8.2-1.6.3-2.3h0c.2-1.2.5-2.4.8-3.5v-.3c.7-1.9,1.7-3.8,3.1-5.7l-1.6-2c-1.7,2.2-2.9,4.4-3.7,6.6-5,1.1-9.4,3.7-13.2,8.1-1,1.2-1.8,2.3-2.6,3.4-.7,1.1-1.3,2.2-1.8,3.3l2,1.6c.5-1.1,1-2.2,1.7-3.3s1.5-2.2,2.5-3.4h0Z"/>
              </g>
              <g>
                <path class="st3" d="M968.7,50v.3c0,1.2,0,2.4,0,3.6h0c0,.8,0,1.5.2,2.3h0c0,.5,0,.8.2,1.2h0c0,.8.2,1.6.4,2.4.5,2.5,1,5,1.4,7.6,1.6-1,3.1-2,4.4-3.3,1.3-1.3,2.6-2.7,3.7-4.4,1.6-2.1,2.6-4.2,3.4-6.2l-12.2-9.6c-.9,2.1-1.3,4.2-1.5,6.2h0Z"/>
                <path class="st3" d="M966.1,52.3c-1.8,1-3.4,2.2-4.8,3.7-1.5,1.5-2.8,3.2-3.9,5.3-1.5,2.6-2.3,5.2-2.8,7.5l14,6.8c.4-2.7.3-5.2,0-7.7-.2-1.2-.4-2.5-.7-3.8-.2-1.2-.5-2.5-.8-3.8-.5-2.5-.9-5.1-1-7.9h0Z"/>
                <path class="st5" d="M957.4,61.2c1.1-2.1,2.5-3.8,3.9-5.3s3.1-2.7,4.8-3.7c0,2.8.4,5.4,1,7.9.2,1.3.5,2.6.8,3.8.2,1.2.5,2.5.7,3.8.3,2.5.5,5,0,7.7l2.3,1.1c.5-2.3.4-4.5.3-6.6,1-.6,2-1.1,2.8-1.8.9-.6,1.8-1.3,2.6-2,1.6-1.5,3.1-3.2,4.5-5.2,1.5-2.1,2.5-4.1,3.4-6l-2-1.6c-.8,2-1.8,4-3.4,6.2-1.1,1.7-2.4,3.1-3.7,4.4s-2.8,2.4-4.4,3.3c-.4-2.6-.9-5-1.4-7.6-.2-.8-.3-1.5-.4-2.3h0c0-.4,0-.8-.2-1.2h0c0-.8-.2-1.6-.2-2.4h0v-3.9c.2-2,.6-4.1,1.5-6.2l-2-1.6c-1.2,2.5-1.7,4.9-2,7.2-2.3,1.1-4.3,2.5-6.2,4.2-1.8,1.8-3.5,3.9-4.9,6.4-1.5,2.6-2.4,5.2-3,7.6l2.3,1.1c.5-2.3,1.3-4.8,2.8-7.5h0v.2Z"/>
              </g>
              <g>
                <path class="st3" d="M954.4,75.1v.3c.2,1.2.5,2.4.9,3.5h0c.2.8.5,1.5.7,2.2h0c0,.4.2.8.4,1.1h0c.3.8.6,1.5,1,2.2.5,1.2,1.1,2.3,1.6,3.5s1.1,2.3,1.6,3.5c.7-.7,1.3-1.3,1.8-2,.6-.7,1.1-1.4,1.6-2.2.5-.8.9-1.6,1.4-2.4s.9-1.7,1.2-2.7c.5-1.2.9-2.4,1.2-3.5s.5-2.2.7-3.2l-14-6.8c-.4,2.3-.4,4.4-.2,6.4h0Z"/>
                <path class="st3" d="M952.4,77.9c-.8.7-1.5,1.4-2.1,2.2-.6.8-1.2,1.7-1.8,2.6-1.1,1.8-1.9,3.9-2.6,6.2-.5,1.5-.6,2.9-.8,4.2,0,1.3-.2,2.6,0,3.8l15.2,2.9c-.2-1.3-.4-2.6-.8-3.8-.3-1.2-.8-2.4-1.2-3.6-.5-1.2-1-2.3-1.5-3.5-.3-.6-.6-1.2-.8-1.8-.3-.6-.5-1.2-.8-1.8-1-2.3-2.1-4.8-2.7-7.5h-.1Z"/>
                <path class="st5" d="M945.9,88.8c.7-2.3,1.4-4.4,2.6-6.2.5-.9,1.1-1.8,1.8-2.6s1.4-1.5,2.1-2.2c.6,2.7,1.7,5.2,2.7,7.5.3.6.5,1.2.8,1.8.3.6.6,1.2.8,1.8.5,1.2,1.1,2.3,1.5,3.5s.9,2.3,1.2,3.6c.4,1.2.5,2.5.8,3.8l2.5.5c-.2-1.1-.3-2.2-.5-3.3-.2-1.1-.5-2.1-.9-3.1,3.5-3.1,5.6-6.4,7.5-10.8.4-1.2.9-2.3,1.2-3.4s.5-2.1.7-3.2l-2.3-1.1c-.2,1-.3,2.1-.7,3.2s-.8,2.2-1.2,3.5c-.4.9-.8,1.8-1.2,2.7-.4.8-.9,1.7-1.4,2.4-.5.8-1,1.5-1.6,2.2-.5.7-1.2,1.4-1.8,2-.5-1.2-1-2.4-1.6-3.5-.5-1.2-1.1-2.3-1.6-3.5-.3-.7-.7-1.4-1-2.2h0c-.2-.4-.3-.7-.4-1.1h0c-.3-.8-.5-1.5-.7-2.2h0c-.3-1.2-.6-2.3-.8-3.5v-.3c-.3-2-.3-4.1,0-6.4l-2.3-1.1c-.6,2.7-.6,5.2-.4,7.5-2,1.6-3.7,3.4-5.1,5.6-.7,1.1-1.3,2.2-1.9,3.5-.5,1.3-1,2.6-1.4,4-.5,1.5-.6,2.9-.8,4.3s-.2,2.7,0,3.9l2.5.5c0-1.2,0-2.5,0-3.8.2-1.3.3-2.8.8-4.2h.1Z"/>
              </g>
              <g>
                <path class="st3" d="M946.7,103.2v.3c.6,1.1,1.2,2.2,1.8,3.2h0c.4.7.9,1.3,1.3,1.9h0c.2.4.5.7.7,1h0c.5.7,1,1.2,1.5,1.8.8,1,1.7,1.9,2.6,2.9.9.9,1.7,1.9,2.5,2.9.9-1.6,1.5-3.3,2.1-5,.3-.9.5-1.7.7-2.7,0-.5.2-.9.2-1.4s.2-.9.2-1.4c.2-1.3.2-2.5.2-3.6s0-2.2-.2-3.2l-15.2-2.9c.2,2.3.7,4.4,1.6,6.3h0Z"/>
                <path class="st3" d="M945.5,106.5c-1.1,1.8-1.8,3.7-2.4,5.7-.2,1-.4,2.1-.5,3.2,0,1.1-.2,2.3,0,3.5.2,3.1.7,5.8,1.7,8l15.4-2c-2.3-4.8-5.8-8.1-9.3-12-1.7-1.9-3.3-4-4.8-6.5h-.1Z"/>
                <path class="st5" d="M942.5,119c0-1.2,0-2.4,0-3.5,0-1.1.3-2.2.5-3.2.6-2.1,1.3-4,2.4-5.7,1.4,2.4,3.1,4.5,4.8,6.5,3.6,3.9,7,7.2,9.3,12l2.6-.3c-1-2.1-2-3.8-3.3-5.5,1-1.9,2.1-3.9,2.6-5.9.3-1,.6-2,.8-3.1,0-.5.2-1.1.3-1.6s.2-1.1.2-1.7c.2-1.2.2-2.4.2-3.5s0-2.1,0-3.2l-2.5-.5c0,1,.2,2.1.2,3.2s0,2.3-.2,3.6c0,.5,0,1-.2,1.4,0,.5,0,.9-.2,1.4-.2.9-.4,1.8-.7,2.7-.5,1.7-1.1,3.3-2.1,5-.8-1-1.6-1.9-2.5-2.9-.9-.9-1.8-1.9-2.6-2.9-.5-.6-1-1.2-1.5-1.8h0c-.2-.3-.5-.6-.7-.9h0c-.5-.7-.9-1.3-1.3-2h0c-.6-1-1.2-2.1-1.7-3.2v-.3c-1-1.9-1.5-3.9-1.7-6.3l-2.5-.5c0,1.4.3,2.7.5,3.9.3,1.2.7,2.4,1.1,3.5-3,4.2-4.4,9.2-4.2,15.2.2,3.2.7,5.9,1.7,8.2l2.6-.3c-1-2.2-1.5-4.9-1.7-8h0v.2Z"/>
              </g>
              <g>
                <path class="st3" d="M947.7,132.5l.2.2c.8.9,1.7,1.7,2.6,2.5h0c.6.5,1.2,1,1.8,1.4h0c.3.2.6.5,1,.7h0c.7.4,1.3.9,2,1.3,1.1.6,2.2,1.3,3.3,1.9,1.1.6,2.3,1.3,3.3,1.9.3-1.8.4-3.6.4-5.4s-.4-3.6-.7-5.6c-.3-1.2-.6-2.4-1-3.4-.3-1.1-.7-2.1-1.2-3l-15.4,2c.9,2.2,2,4,3.5,5.5h.2Z"/>
                <path class="st3" d="M947.6,136.1c-.9,4-.6,8.2,1,12.7.5,1.5,1.2,2.7,1.8,3.9.7,1.2,1.4,2.2,2.1,3.1l14.1-6.5c-.9-1-1.8-1.9-2.8-2.7s-2.1-1.5-3.1-2.2c-2-1.4-4.4-2.5-6.7-3.8-2.2-1.3-4.5-2.7-6.6-4.6h.2Z"/>
                <path class="st5" d="M948.6,148.8c-1.7-4.5-2-8.7-1-12.7,2,1.9,4.4,3.3,6.6,4.6,2.2,1.3,4.6,2.5,6.7,3.8,1,.7,2.1,1.4,3.1,2.2s1.9,1.7,2.8,2.7l2.4-1.1c-1.4-1.8-3.1-3.2-4.8-4.4.6-2.3.7-4.4.7-6.5s0-2.1-.2-3.2c-.2-1.1-.3-2.2-.6-3.3-.2-1.2-.6-2.3-.9-3.3-.3-1-.7-2-1.1-2.9l-2.6.3c.5.9.8,1.9,1.2,3,.4,1.1.7,2.2,1,3.4.3,1.9.7,3.8.7,5.6s0,3.6-.4,5.4c-1.1-.7-2.2-1.3-3.3-1.9-1.1-.6-2.2-1.3-3.3-1.9-.7-.4-1.3-.8-2-1.2h0c-.3-.2-.6-.4-1-.6h0c-.7-.5-1.2-.9-1.8-1.4h0c-.9-.8-1.8-1.6-2.6-2.5l-.2-.2c-1.4-1.5-2.5-3.3-3.5-5.5l-2.6.3c.5,1.3,1.1,2.5,1.7,3.6.7,1.1,1.4,2.1,2.2,3-.4,1.2-.7,2.5-.8,3.8s-.2,2.5,0,3.9c0,1.3.2,2.7.5,4s.7,2.7,1.2,4.1c.5,1.5,1.2,2.8,1.8,4,.7,1.2,1.4,2.3,2.1,3.3l2.4-1.1c-.8-.9-1.5-2-2.1-3.1-.7-1.2-1.4-2.4-1.8-3.9h0l-.4-.3Z"/>
              </g>
              <g>
                <path class="st3" d="M957.5,160h.2c1.1.8,2.2,1.3,3.2,1.7h0c.7.3,1.4.6,2.1.8h0c.3.1.7.3,1.1.4h0c.7.2,1.5.4,2.3.6,2.5.6,5,1.2,7.4,2-.3-3.8-1.4-7.1-3.4-10.6-.7-1.1-1.2-2.2-1.9-3.1-.7-.9-1.3-1.8-2.1-2.5l-14.1,6.5c1.5,1.8,3.2,3.1,4.9,4.2h.3Z"/>
                <path class="st3" d="M958.4,163.4c0,1,.2,2,.3,3.1.2,1,.5,2,.9,3,.7,2,1.7,3.9,3.1,5.8.9,1.2,1.8,2.3,2.7,3.3,1,.9,1.9,1.7,2.9,2.4l12.1-9.7c-1.1-.8-2.3-1.4-3.5-1.9-1.1-.6-2.3-1-3.5-1.4s-2.5-.7-3.7-1-2.5-.6-3.7-1c-1.2-.3-2.5-.7-3.8-1.1-1.2-.4-2.5-.9-3.8-1.5h0Z"/>
                <path class="st5" d="M962.7,175.2c-1.4-1.9-2.4-3.9-3.1-5.8-.3-1-.7-1.9-.9-3-.2-1-.3-2-.3-3.1,1.2.6,2.5,1.1,3.8,1.5s2.6.8,3.8,1.1c1.3.3,2.5.6,3.7,1,1.2.3,2.5.6,3.7,1s2.4.8,3.5,1.4c1.2.5,2.3,1.1,3.5,1.9l2-1.6c-1-.7-1.9-1.2-2.9-1.8-1-.5-1.9-1-2.9-1.4,0-1.1-.2-2.3-.4-3.3-.2-1.1-.4-2.2-.7-3.2-.3-1.1-.7-2-1.1-3.1-.4-1-.9-2.1-1.5-3.1-.7-1.1-1.2-2.1-1.8-3s-1.3-1.8-2-2.5l-2.4,1.1c.7.8,1.4,1.6,2.1,2.5.7.9,1.2,2,1.9,3.1,1.9,3.5,3,6.9,3.4,10.6-2.5-.8-4.9-1.4-7.4-2-.8-.2-1.5-.4-2.3-.6h0c-.3-.1-.7-.2-1.1-.4h0c-.7-.3-1.4-.5-2.1-.8h0c-1.1-.5-2.2-1-3.2-1.6h-.2c-1.7-1.2-3.3-2.6-4.9-4.3l-2.4,1.1c1.8,2.1,3.6,3.8,5.6,5.1,0,2.5.3,5.1,1.1,7.5s2,4.9,3.7,7.2c.9,1.2,1.8,2.4,2.7,3.4,1,1,1.9,1.8,2.9,2.6l2-1.6c-1-.7-1.9-1.5-2.9-2.4-.9-.9-1.8-2.1-2.7-3.3h0l-.2-.2Z"/>
              </g>
              <g>
                <path class="st3" d="M974,183.8h.3c1.2.4,2.3.7,3.5.9h0c.8.1,1.5.2,2.3.3h1.1c.8,0,1.5,0,2.3.1,2.5.1,5.2,0,7.7.3-.6-1.8-1.4-3.4-2.3-5-.9-1.6-2.1-3.1-3.5-4.6-1.7-2-3.5-3.4-5.2-4.6l-12.1,9.7c1.8,1.4,3.8,2.2,5.7,2.9h.2Z"/>
                <path class="st3" d="M975.7,186.9c.6,1.9,1.4,3.8,2.5,5.5s2.6,3.4,4.3,5c1.1,1,2.3,1.8,3.4,2.6,1.1.7,2.2,1.3,3.3,1.8l9.7-12.1c-2.5-1-5-1.5-7.6-1.7-2.5-.3-5-.2-7.7-.3-2.5,0-5.2-.2-7.9-.8h0Z"/>
                <path class="st5" d="M982.5,197.4c-1.7-1.6-3.2-3.2-4.3-5s-1.9-3.6-2.5-5.5c2.7.5,5.4.7,7.9.8,2.7,0,5.2,0,7.7.3,2.6.2,5,.7,7.6,1.7l1.6-2c-2.2-.9-4.2-1.5-6.4-1.8-.6-2.2-1.4-4.3-2.6-6.1-.5-1-1.1-1.9-1.8-2.8-.7-.9-1.5-1.8-2.2-2.7-1.7-1.9-3.4-3.3-5.1-4.6l-2,1.6c1.7,1.2,3.5,2.6,5.2,4.6,1.3,1.5,2.6,3,3.5,4.6s1.7,3.2,2.3,5c-2.5-.3-5.2-.2-7.7-.3-.8,0-1.6,0-2.3-.1h-1.1c-.8,0-1.5-.1-2.3-.3h0c-1.2-.2-2.3-.5-3.5-.8h-.3c-1.9-.7-3.9-1.6-5.7-2.9l-2,1.6c2.1,1.7,4.4,2.8,6.6,3.5,1.1,5,3.7,9.2,7.9,13.1,1.1,1,2.3,1.9,3.4,2.6,1.1.7,2.2,1.4,3.3,1.9l1.6-2c-1.1-.4-2.2-1.1-3.3-1.8s-2.2-1.6-3.4-2.6h-.1Z"/>
              </g>
              <g>
                <path class="st3" d="M995.3,203.3h.3c1.2.1,2.4,0,3.6,0h0c.8,0,1.5-.1,2.3-.2h0c.4,0,.7-.1,1.1-.1h0c.8-.1,1.5-.2,2.3-.4,2.6-.4,5.1-.9,7.7-1.1-1.8-3.4-4.3-6-7.7-8.5-2.3-1.6-4.2-2.7-6.2-3.4l-9.7,12.1c2.1.9,4.2,1.4,6.2,1.6h.1Z"/>
                <path class="st3" d="M997.6,205.9c.9,1.8,2,3.4,3.5,4.9,1.4,1.4,3,2.9,5,4,2.5,1.5,4.9,2.6,7.2,3.1l7.7-13.5c-5.4-1.2-10.3-.2-15.4.6-1.3.2-2.6.4-3.9.6-1.3.1-2.6.2-4,.2h0Z"/>
                <path class="st5" d="M1006,214.8c-2-1.2-3.6-2.6-5-4s-2.6-3.1-3.5-4.9c1.4,0,2.7,0,4-.2,1.3-.1,2.6-.4,3.9-.6,5.2-.9,10-1.9,15.4-.6l1.3-2.2c-2.4-.5-4.5-.8-6.7-.8-1.1-2.1-2.3-4-3.7-5.7-1.5-1.7-3.2-3.2-5.2-4.7-2.2-1.5-4-2.6-6-3.4l-1.6,2c2,.7,3.9,1.9,6.2,3.4,3.4,2.5,5.9,5.1,7.7,8.5-2.6.2-5.1.6-7.7,1.1-.8.1-1.6.3-2.3.4h0c-.4,0-.7,0-1.1.1h0c-.8,0-1.5.2-2.3.2h-3.9c-2-.2-4-.7-6.2-1.6l-1.6,2c1.2.6,2.5,1,3.7,1.3.6.2,1.2.3,1.8.4.6.1,1.2.2,1.7.2,1,2.2,2.3,4.3,4,6.2,1.7,1.8,3.7,3.5,6,5,2.5,1.5,4.9,2.6,7.2,3.2l1.3-2.3c-2.3-.5-4.6-1.6-7.2-3.1h-.2Z"/>
              </g>
              <g>
                <path class="st3" d="M1019.5,218.5h.3c1.2-.1,2.4-.3,3.5-.5h0c.7-.1,1.5-.3,2.2-.5h0c.4-.1.7-.2,1.1-.3h0c.7-.2,1.5-.5,2.3-.7,2.5-.8,4.9-1.6,7.4-2.2-1.2-1.5-2.4-2.9-3.9-4.1-1.5-1.2-3.1-2.2-4.9-3.2-2.4-1.2-4.6-2.1-6.7-2.5l-7.7,13.5c2.2.5,4.2.7,6.3.6h.1Z"/>
                <path class="st3" d="M1022,220.7c1.2,1.7,2.5,3.1,4.2,4.3.8.6,1.7,1.2,2.6,1.8.9.5,1.9,1,3,1.5,2.7,1.2,5.2,1.8,7.5,2l5.6-14.4c-1.4-.1-2.7,0-4,0-1.3.1-2.5.3-3.8.6s-2.5.6-3.7,1-2.4.8-3.7,1.2c-2.4.8-5,1.6-7.7,1.9h0Z"/>
                <path class="st5" d="M1031.8,228.3c-1.1-.5-2-.9-3-1.5-.9-.6-1.8-1.1-2.6-1.8-1.6-1.2-3-2.7-4.2-4.3,2.7-.4,5.3-1.2,7.7-1.9,1.2-.4,2.5-.8,3.7-1.2s2.5-.8,3.7-1c1.2-.3,2.5-.5,3.8-.6s2.6-.2,4,0l.9-2.4c-2.4-.2-4.6-.1-6.8.2-1.3-1.9-2.8-3.6-4.5-5.1-.8-.7-1.8-1.4-2.7-2-1-.6-2-1.3-3.1-1.9-2.3-1.2-4.5-2-6.6-2.6l-1.3,2.2c2.1.4,4.3,1.3,6.7,2.5,1.8,1,3.5,2.1,4.9,3.2,1.5,1.2,2.7,2.6,3.9,4.1-2.6.6-5,1.4-7.4,2.2-.8.2-1.5.5-2.3.7h0c-.4.1-.7.2-1.1.3h0c-.7.2-1.5.4-2.2.5h0c-1.2.2-2.3.4-3.5.5h-.3c-2,.2-4,0-6.3-.6l-1.3,2.2c2.6.7,5,1,7.3.9,1.3,2.1,2.9,4,4.9,5.5,1.9,1.6,4.1,3,6.7,4.1,2.7,1.2,5.2,1.9,7.6,2.2l.9-2.4c-2.3-.2-4.8-.8-7.5-2h0Z"/>
              </g>
              <g>
                <path class="st3" d="M1045.6,230h.3c1.2-.3,2.3-.6,3.4-1.1h0c.7-.3,1.4-.6,2.1-.9h0c.3-.2.7-.3,1-.5h0c.7-.4,1.4-.7,2.1-1,2.3-1.1,4.6-2.3,7.1-3.3-1.4-1.4-2.8-2.5-4.4-3.4-1.6-1-3.4-1.8-5.4-2.5-2.5-.9-4.9-1.3-7-1.5l-5.6,14.4c2.2.2,4.3,0,6.3-.4h0v.2Z"/>
                <path class="st3" d="M1048.5,231.9c1.4,1.4,3,2.7,4.7,3.7,1.8,1,3.8,1.8,6,2.4,2.9.8,5.4,1.1,7.7.9l3.5-15.1c-5.6.4-9.9,2.7-14.6,5.1-2.3,1.2-4.7,2.2-7.3,3h0Z"/>
                <path class="st5" d="M1059.2,237.9c-2.2-.6-4.2-1.4-6-2.4s-3.3-2.3-4.7-3.7c2.6-.8,5-1.9,7.3-3,4.7-2.3,9.1-4.7,14.6-5.1l.6-2.5c-2.4.1-4.6.5-6.7,1.2-3.2-3.4-6.8-5.8-11.6-7.3-2.5-.9-4.8-1.3-6.9-1.6l-.9,2.4c2.1.2,4.5.6,7,1.5,2,.7,3.8,1.5,5.4,2.5,1.6.9,3.1,2.1,4.4,3.4-2.4.9-4.7,2.1-7.1,3.3-.7.3-1.4.7-2.1,1h0c-.3.2-.7.3-1,.5h0c-.7.3-1.4.6-2.1.9h0c-1.1.4-2.2.7-3.4,1h-.3c-1.9.4-4.1.7-6.3.4l-.9,2.4c2.6.4,5.1.2,7.3-.2,1.6,1.9,3.5,3.4,5.6,4.8,2.1,1.3,4.5,2.3,7.2,3,2.8.8,5.4,1.1,7.8,1l.6-2.5c-2.3.1-4.9-.2-7.7-.9h-.1Z"/>
              </g>
              <g>
                <path class="st3" d="M1073,237.6h.3c1.1-.5,2.2-1,3.2-1.6h0c.7-.4,1.3-.8,2-1.2h0c.3-.2.6-.4.9-.6h0c.7-.4,1.3-.9,2-1.3,2.2-1.4,4.3-2.9,6.6-4.2-1.5-1.2-3.1-2.1-4.9-2.8-1.7-.8-3.6-1.3-5.7-1.7-2.7-.5-5-.6-7.2-.5l-3.5,15.1c2.2,0,4.3-.6,6.2-1.2h0Z"/>
                <path class="st3" d="M1076.1,239.1c3.1,2.4,6.9,4,11.3,4.6,2.9.4,5.4.3,7.6,0l1.9-15.4c-5.6.9-9.7,3.9-14,6.8-2.1,1.5-4.3,2.8-6.8,4h0Z"/>
                <path class="st5" d="M1087.5,243.6c-4.5-.6-8.2-2.1-11.3-4.6,2.5-1.2,4.7-2.6,6.8-4,4.3-2.9,8.4-5.9,14-6.8l.3-2.6c-2.4.3-4.6,1-6.6,1.9-3.7-3-7.6-4.8-12.6-5.7-2.6-.5-4.9-.7-7.1-.6l-.6,2.5c2.2-.1,4.5,0,7.2.5,2.1.4,3.9.9,5.7,1.7,1.8.7,3.3,1.7,4.9,2.8-2.3,1.2-4.4,2.7-6.6,4.2-.7.4-1.3.9-2,1.3h0c-.3.2-.6.4-.9.6h0c-.7.4-1.3.8-2,1.2h0c-1,.6-2.1,1-3.2,1.5h-.3c-1.9.8-3.9,1.2-6.2,1.3l-.6,2.5c2.7,0,5-.5,7.2-1.2,3.7,3.3,8.2,5.3,13.6,6,2.8.4,5.4.4,7.7,0l.3-2.6c-2.2.4-4.8.4-7.6,0h-.1Z"/>
              </g>
              <g>
                <path class="st3" d="M1101,241.8h.2c1.1-.7,2.1-1.2,3.1-1.9h0c.6-.4,1.2-.9,1.9-1.3h0c.3-.3.6-.5.9-.7h0c.6-.5,1.2-1,1.9-1.4,2-1.6,4.1-3.2,6.3-4.6-1.6-1.1-3.3-1.9-5.2-2.4-1.8-.6-3.8-1.1-5.9-1.3-2.8-.3-5.2-.1-7.3.2l-1.9,15.4c2.2-.3,4.1-1,5.9-1.9h0Z"/>
                <path class="st3" d="M1104.2,242.9c3.3,2.2,7,3.4,11.5,3.7,1.4.1,2.8.1,4,0,1.3,0,2.4-.3,3.6-.5l.9-15.5c-2.8.7-5.1,1.8-7.3,3.1-2.2,1.4-4.2,2.9-6.2,4.6-2,1.6-4.1,3.2-6.4,4.5h0Z"/>
                <path class="st5" d="M1115.7,246.6c-4.4-.3-8.2-1.5-11.5-3.7,2.3-1.4,4.4-2.9,6.4-4.5,2.1-1.6,4.1-3.2,6.2-4.6,2.2-1.3,4.5-2.4,7.3-3.1l.2-2.6c-1.2.2-2.4.6-3.5,1s-2.1.8-3.1,1.3c-3.9-2.8-8.1-4.3-13.2-4.8-2.7-.3-5.1-.1-7.3.1l-.3,2.6c2.2-.3,4.6-.5,7.3-.2,2.1.2,4.1.6,5.9,1.3,1.8.6,3.5,1.4,5.2,2.4-2.2,1.4-4.3,3.1-6.3,4.6-.6.5-1.2,1-1.9,1.4h0c-.3.2-.6.5-.9.7h0c-.6.5-1.2.9-1.9,1.3h0c-1,.7-2,1.2-3.1,1.8h-.2c-1.8,1-3.7,1.7-5.9,2l-.3,2.6c2.6-.3,4.8-1.1,6.9-2,2,1.4,4.1,2.6,6.3,3.4,2.3.8,4.7,1.3,7.4,1.5,1.4.1,2.8.1,4,0,1.3,0,2.5-.2,3.6-.5l.2-2.6c-1.1.2-2.3.4-3.6.5h-4,.1Z"/>
              </g>
              <g>
                <path class="st3" d="M1129,243.9h.2c1-.7,2-1.4,2.9-2.1h0c.6-.5,1.2-.9,1.8-1.4h0c.3-.3.6-.5.9-.8h0c.6-.5,1.2-1.1,1.8-1.6,1.9-1.7,3.9-3.4,6.1-4.9-3.4-2-7-2.9-11.3-3.1-2.8-.1-5.2,0-7.3.6l-.9,15.5c2.2-.5,4-1.3,5.8-2.2h0Z"/>
                <path class="st3" d="M1132.2,244.9c3.4,1.9,7.2,3,11.6,3.1,2.9,0,5.3-.3,7.5-.9l.2-15.5c-2.8.8-5.1,2-7.2,3.5s-4,3.1-6,4.9c-1.9,1.7-3.9,3.4-6.2,4.9h0Z"/>
                <path class="st5" d="M1143.9,248c-4.4-.1-8.2-1.1-11.6-3.1,2.2-1.5,4.2-3.2,6.2-4.9s3.9-3.4,6-4.9,4.4-2.7,7.2-3.5v-2.6c-2.4.6-4.5,1.5-6.4,2.6-4-2.6-8.3-3.9-13.5-4.1-2.7-.1-5.1,0-7.3.5l-.2,2.6c2.2-.5,4.6-.8,7.3-.6,4.3.2,7.9,1.1,11.3,3.1-2.2,1.5-4.1,3.2-6.1,4.9-.6.5-1.2,1-1.8,1.5h0c-.3.3-.6.5-.9.8h0c-.6.5-1.2,1-1.8,1.5h0c-.9.7-1.9,1.3-2.9,1.9h-.2c-1.7,1.1-3.6,1.9-5.8,2.4l-.2,2.6c2.5-.5,4.8-1.3,6.7-2.4,4.1,2.7,8.6,4,14,4.2,2.8,0,5.3-.2,7.6-.8v-2.6c-2.2.6-4.6.9-7.5.9h0Z"/>
              </g>
              <g>
                <path class="st3" d="M1157.1,244.6h.2c1-.8,1.9-1.5,2.8-2.2h0c.6-.5,1.2-1,1.7-1.5h0c.3-.3.6-.6.8-.8h0c.6-.6,1.1-1.1,1.7-1.6,1.9-1.8,3.7-3.6,5.8-5.2-3.5-1.8-7.1-2.6-11.5-2.6s-2.7.1-3.9.3c-1.2.1-2.3.4-3.4.7l-.2,15.5c2.1-.6,4-1.4,5.7-2.5h.3Z"/>
                <path class="st3" d="M1160.3,245.4c3.5,1.8,7.3,2.7,11.7,2.6,2.9,0,5.3-.5,7.5-1.2l-.4-15.5c-5.4,1.8-9,5.3-12.8,8.9-1.8,1.8-3.8,3.6-5.9,5.1h0Z"/>
                <path class="st5" d="M1172,248c-4.4.1-8.2-.8-11.7-2.6,2.2-1.6,4.1-3.4,5.9-5.1,3.8-3.6,7.4-7.1,12.8-8.9v-2.6c-2.5.7-4.5,1.7-6.4,2.9-2.1-1.2-4.2-2.1-6.5-2.6-2.3-.6-4.7-.9-7.3-.9s-2.7,0-3.9.2c-1.2.1-2.3.4-3.4.6v2.6c1-.3,2.2-.5,3.4-.7,1.2-.2,2.5-.3,3.9-.3,4.3,0,8,.9,11.5,2.6-2.1,1.6-4,3.4-5.8,5.2-.6.5-1.2,1.1-1.7,1.6h0c-.3.3-.6.5-.8.8h0c-.6.6-1.1,1.1-1.7,1.5h0c-.9.8-1.8,1.4-2.8,2.1h-.2c-1.7,1.2-3.5,2-5.7,2.6v2.6c2.5-.6,4.6-1.5,6.6-2.7,4.2,2.5,8.7,3.7,14.1,3.5,2.8,0,5.3-.4,7.5-1.1v-2.6c-2.2.7-4.7,1.1-7.5,1.2h-.3Z"/>
              </g>
              <g>
                <path class="st3" d="M1185,244.2l.2-.2c1-.7,1.9-1.4,2.8-2.1h0c.6-.5,1.1-1,1.7-1.5h0c.3-.3.5-.6.8-.8h0c.5-.6,1.1-1.2,1.7-1.7,1.8-1.9,3.6-3.7,5.7-5.4-3.5-1.7-7.2-2.3-11.6-2.2-2.8.1-5.2.6-7.3,1.3l.4,15.5c2.1-.7,3.9-1.6,5.5-2.7h0v-.2Z"/>
                <path class="st3" d="M1188.3,244.9c3.6,1.7,7.4,2.4,11.8,2.1,2.9-.1,5.3-.7,7.4-1.4l-1-15.5c-5.4,2-8.8,5.6-12.5,9.4-1.8,1.8-3.6,3.8-5.7,5.4h0Z"/>
                <path class="st5" d="M1200.1,247c-4.4.2-8.2-.4-11.8-2.1,2.1-1.6,3.9-3.6,5.7-5.4,3.7-3.8,7.1-7.4,12.5-9.4l-.2-2.6c-2.4.8-4.4,1.9-6.2,3.1-4.2-2.3-8.7-3.2-13.9-3-2.8.1-5.1.5-7.3,1.2v2.6c2.2-.7,4.6-1.2,7.4-1.3,4.3-.1,8.1.5,11.6,2.2-2.1,1.7-3.9,3.6-5.7,5.4-.6.6-1.1,1.1-1.7,1.7h0c-.3.3-.5.6-.8.8h0c-.5.6-1.1,1.1-1.7,1.6h0c-.9.8-1.8,1.5-2.8,2.2l-.2.2c-1.6,1.1-3.4,2-5.5,2.7v2.6c2.5-.7,4.7-1.8,6.5-3,4.3,2.4,8.8,3.3,14.2,3,2.8-.1,5.3-.6,7.4-1.4l-.2-2.6c-2.1.8-4.6,1.3-7.4,1.4h0Z"/>
              </g>
              <g>
                <path class="st3" d="M1213,242.7l.2-.2c1-.7,1.8-1.5,2.7-2.3h0c.6-.5,1.1-1.1,1.6-1.6h0c.2-.3.5-.6.8-.9h0c.5-.6,1.1-1.2,1.6-1.8,1.7-1.9,3.5-3.8,5.5-5.6-3.6-1.6-7.3-2.1-11.7-1.8-2.8.2-5.2.7-7.3,1.5l1,15.5c2.1-.8,3.8-1.7,5.4-2.9h.2Z"/>
                <path class="st3" d="M1216.3,243.3c3.6,1.6,7.4,2.2,11.8,1.8,2.8-.2,5.3-.8,7.4-1.6l-1.4-15.4c-5.3,2.1-8.7,5.9-12.2,9.7-1.7,1.9-3.5,3.8-5.6,5.6h0Z"/>
                <path class="st5" d="M1228.1,245.1c-4.4.4-8.2-.2-11.8-1.8,2.1-1.8,3.8-3.7,5.6-5.6,3.5-3.8,6.9-7.6,12.2-9.7l-.2-2.6c-2.4.9-4.4,2-6.2,3.3-4.3-2.1-8.8-3-14-2.6-2.8.2-5.1.7-7.2,1.4l.2,2.6c2.1-.8,4.5-1.3,7.3-1.5,4.3-.3,8.1.3,11.7,1.8-2,1.8-3.8,3.7-5.5,5.6-.5.6-1.1,1.2-1.6,1.7h0c-.3.3-.5.6-.8.8h0c-.5.6-1.1,1.1-1.6,1.7h0c-.8.8-1.7,1.6-2.7,2.3l-.2.2c-1.6,1.1-3.4,2.1-5.4,2.9l.2,2.6c2.4-.8,4.5-1.9,6.4-3.2,4.3,2.1,8.9,3,14.3,2.5,2.8-.2,5.2-.8,7.4-1.6l-.2-2.6c-2.1.8-4.5,1.4-7.4,1.6h0l-.5.2Z"/>
              </g>
              <g>
                <path class="st3" d="M1240.8,240.4l.2-.2c.9-.7,1.8-1.5,2.6-2.3h0c.5-.6,1.1-1.1,1.6-1.6h0c.2-.3.5-.6.8-.9h0c.5-.6,1-1.2,1.6-1.8,1.7-2,3.4-3.9,5.3-5.8-3.6-1.4-7.4-1.9-11.7-1.5-2.8.3-5.2.9-7.2,1.7l1.4,15.4c2-.8,3.8-1.9,5.3-3.1h0Z"/>
                <path class="st3" d="M1244.1,240.8c3.7,1.5,7.5,1.9,11.9,1.5,2.8-.3,5.2-1,7.3-1.9l-1.8-15.4c-5.3,2.3-8.5,6.1-11.9,10.1-1.7,1.9-3.4,3.9-5.4,5.7h0Z"/>
                <path class="st5" d="M1256,242.3c-4.4.5-8.2,0-11.9-1.5,2-1.8,3.7-3.8,5.4-5.7,3.4-4,6.7-7.8,11.9-10.1l-.3-2.6c-2.3.9-4.3,2.1-6.1,3.5-4.4-2-8.9-2.7-14.1-2.2-2.8.3-5.1.9-7.2,1.6l.2,2.6c2.1-.8,4.4-1.4,7.2-1.7,4.3-.4,8.1,0,11.7,1.5-1.9,1.8-3.7,3.8-5.3,5.8-.5.6-1,1.2-1.6,1.8h0c-.2.3-.5.6-.8.9h0c-.5.6-1,1.2-1.6,1.7h0c-.8.8-1.7,1.6-2.6,2.4l-.2.2c-1.6,1.2-3.3,2.3-5.3,3.1l.2,2.6c2.4-.9,4.4-2,6.2-3.4,2.2,1,4.4,1.7,6.8,2.1,2.4.4,4.8.4,7.5,0,2.8-.3,5.2-.9,7.3-1.8l-.3-2.6c-2.1.9-4.5,1.6-7.3,1.9h.2Z"/>
              </g>
              <g>
                <path class="st3" d="M1268.6,237.3l.2-.2c.9-.8,1.8-1.6,2.6-2.4h0c.5-.6,1-1.1,1.5-1.7h0c.2-.4.5-.6.7-.9h0c.5-.6,1-1.2,1.5-1.8,1.6-2,3.3-4,5.2-5.9-3.7-1.4-7.4-1.8-11.8-1.2-2.8.3-5.1,1-7.2,1.9l1.8,15.4c2-.9,3.7-1.9,5.3-3.2h.2Z"/>
                <path class="st3" d="M1271.9,237.7c3.7,1.4,7.5,1.8,11.9,1.2,2.8-.4,5.2-1.1,7.3-2l-2.2-15.3c-5.2,2.4-8.4,6.3-11.7,10.4-1.6,2-3.3,4-5.2,5.9h0v-.2Z"/>
                <path class="st5" d="M1283.8,238.8c-4.4.6-8.2.2-11.9-1.2,1.9-1.9,3.6-3.9,5.2-5.9,3.3-4,6.5-8,11.7-10.4l-.4-2.6c-2.3,1-4.3,2.2-6,3.6-4.4-1.9-8.9-2.5-14.1-1.8-2.8.3-5.1.9-7.2,1.8l.3,2.6c2-.9,4.4-1.5,7.2-1.9,4.3-.6,8.1-.2,11.8,1.2-1.9,1.9-3.6,3.9-5.2,5.9-.5.6-1,1.2-1.5,1.8h0c-.2.3-.5.6-.7.9h0c-.5.6-1,1.2-1.5,1.7h0c-.8.9-1.7,1.7-2.6,2.4l-.2.2c-1.5,1.2-3.2,2.3-5.3,3.2l.3,2.6c2.4-.9,4.4-2.1,6.2-3.5,4.4,1.9,9.1,2.5,14.4,1.8,2.8-.4,5.2-1.1,7.3-1.9l-.4-2.6c-2.1.9-4.4,1.6-7.3,2h-.1Z"/>
              </g>
              <g>
                <path class="st3" d="M1296.2,233.5l.2-.2c.9-.8,1.7-1.6,2.5-2.4h0c.5-.6,1-1.1,1.5-1.7h0c.2-.4.5-.6.7-.9h0c.5-.6,1-1.3,1.5-1.9,1.6-2,3.2-4.1,5.1-6-3.7-1.3-7.5-1.6-11.8-.9-2.8.4-5.1,1.1-7.1,2.1l2.2,15.3c2-.9,3.7-2,5.2-3.3h0Z"/>
                <path class="st3" d="M1299.6,233.8c3.7,1.3,7.6,1.6,11.9.9,2.8-.4,5.2-1.2,7.2-2.2l-2.5-15.3c-5.2,2.5-8.2,6.5-11.5,10.6-1.6,2-3.2,4.1-5.1,6h0Z"/>
                <path class="st5" d="M1311.5,234.7c-4.4.7-8.2.4-11.9-.9,1.9-1.9,3.5-4,5.1-6,3.2-4.1,6.3-8.1,11.5-10.6l-.4-2.6c-2.3,1-4.2,2.3-5.9,3.8-4.5-1.8-9-2.3-14.2-1.5-2.7.4-5.1,1.1-7.1,2l.4,2.6c2-.9,4.4-1.6,7.1-2.1,4.3-.6,8.1-.4,11.8.9-1.9,1.9-3.5,3.9-5.1,6-.5.6-1,1.2-1.5,1.9h0c-.2.3-.5.6-.7.9h0c-.5.7-1,1.2-1.5,1.8h0c-.8.9-1.6,1.7-2.5,2.5l-.2.2c-1.5,1.3-3.2,2.4-5.2,3.3l.4,2.6c2.4-1,4.3-2.3,6.1-3.7,4.5,1.9,9.1,2.3,14.4,1.5,2.8-.4,5.2-1.2,7.2-2.1l-.4-2.6c-2,1-4.4,1.7-7.2,2.2h-.2Z"/>
              </g>
              <g>
                <path class="st3" d="M1323.8,229.1l.2-.2c.9-.8,1.7-1.6,2.5-2.5h0c.5-.6,1-1.2,1.4-1.8h0c.2-.4.5-.7.7-1h0c.5-.7.9-1.3,1.4-1.9,1.6-2.1,3.1-4.2,4.9-6.1-3.7-1.2-7.5-1.4-11.8-.7-2.8.5-5.1,1.2-7.1,2.2l2.5,15.3c2-.9,3.6-2.1,5.1-3.4h.2Z"/>
                <path class="st3" d="M1327.1,229.4c3.7,1.2,7.6,1.4,11.9.6,2.8-.5,5.2-1.3,7.2-2.3l-2.8-15.2c-5.1,2.6-8.1,6.6-11.3,10.9-1.5,2.1-3.1,4.1-5,6.1h0Z"/>
                <path class="st5" d="M1339.1,230c-4.3.8-8.2.6-11.9-.6,1.9-1.9,3.4-4,5-6.1,3.1-4.2,6.1-8.2,11.3-10.9l-.5-2.6c-2.3,1.1-4.2,2.4-5.8,3.9-4.5-1.7-9-2.1-14.2-1.2-2.7.5-5.1,1.2-7.1,2.1l.4,2.6c2-1,4.3-1.7,7.1-2.2,4.3-.7,8.1-.5,11.8.7-1.8,1.9-3.4,4-4.9,6.1-.5.6-1,1.3-1.4,1.9h0c-.2.3-.5.6-.7.9h0c-.5.7-.9,1.2-1.4,1.8h0c-.8.9-1.6,1.7-2.5,2.5l-.2.2c-1.5,1.3-3.1,2.5-5.1,3.4l.4,2.6c2.3-1,4.3-2.3,6-3.8,4.5,1.8,9.2,2.1,14.4,1.2,2.8-.5,5.1-1.3,7.2-2.2l-.5-2.6c-2,1-4.3,1.8-7.2,2.3h-.2Z"/>
              </g>
              <g>
                <path class="st3" d="M1351.3,224.2l.2-.2c.9-.8,1.7-1.7,2.4-2.6h0c.5-.6.9-1.2,1.4-1.8h0c.2-.4.4-.7.7-1h0c.4-.7.9-1.3,1.4-1.9,1.5-2.1,3-4.2,4.8-6.2-3.7-1.1-7.5-1.2-11.8-.4-2.8.5-5.1,1.4-7.1,2.4l2.8,15.2c1.9-1,3.6-2.2,5-3.5h.2Z"/>
                <path class="st3" d="M1354.6,224.4c3.8,1.1,7.6,1.3,11.9.4,2.8-.6,5.1-1.4,7.1-2.5l-3.2-15.2c-5.1,2.7-8,6.8-11,11.1-1.5,2.1-3,4.2-4.9,6.2h0Z"/>
                <path class="st5" d="M1366.5,224.8c-4.3.9-8.2.7-11.9-.4,1.8-2,3.4-4.1,4.9-6.2,3.1-4.2,6-8.4,11-11.1l-.5-2.5c-2.2,1.1-4.1,2.5-5.8,4-4.5-1.6-9.1-1.9-14.2-.9-2.7.5-5,1.3-7.1,2.3l.5,2.6c2-1,4.3-1.8,7.1-2.4,4.3-.8,8.1-.7,11.8.4-1.8,2-3.3,4.1-4.8,6.2-.5.6-.9,1.3-1.4,1.9h0c-.2.3-.4.6-.7.9h0c-.5.7-.9,1.3-1.4,1.8h0c-.8.9-1.5,1.8-2.4,2.6l-.2.2c-1.4,1.3-3.1,2.5-5,3.5l.5,2.6c2.3-1.1,4.2-2.4,5.9-3.9,4.6,1.7,9.2,1.9,14.4.9,2.8-.6,5.1-1.4,7.1-2.4l-.5-2.5c-2,1.1-4.3,1.9-7.1,2.5h-.2Z"/>
              </g>
              <g>
                <path class="st3" d="M1380.8,220.1c.3.3,1.2.7,2.6.7s1.7,0,2.6-.3c2.4-.5,4.9-1.8,6.5-3.9,1.9-2.7,2.1-6.4,1.4-8.7-.3-1.2-.9-1.8-1.2-2h-1c-1.8,2-3.3,4.2-4.9,6.5-1.8,2.6-3.6,5.2-5.9,7.5h0v.2Z"/>
                <path class="st3" d="M1389.3,204.8c-3.8-1.1-7.6-1.1-11.8-.2s-5,1.4-7,2.5l3.2,15.2c5.1-2.7,8-6.9,11-11.2,1.4-2.1,2.9-4.3,4.7-6.3h0Z"/>
                <path class="st5" d="M1370.5,207.1l-.5-2.5c2-1,4.3-1.8,7-2.4,5.4-1.1,10.2-.9,15,.9l1.2.4s.2,0,.3.1h.2c1.1.6,1.9,1.8,2.4,3.5.8,2.9.6,7.4-1.8,10.8-2.7,3.7-7.5,5.3-11.1,5.3s-3.6-.6-4.4-1.5c-1.4,1.1-2.9,2.2-4.7,3.1l-.5-2.5c5.1-2.7,8-6.9,11-11.2,1.4-2.1,2.9-4.3,4.7-6.3-3.8-1.1-7.6-1.1-11.8-.2s-5,1.4-7,2.5h0ZM1391.6,206c-1.8,2-3.3,4.2-4.9,6.5-1.8,2.6-3.6,5.2-5.9,7.5.3.3,1.2.7,2.6.7s1.7,0,2.6-.3c2.4-.5,4.9-1.8,6.5-3.9,1.9-2.7,2.1-6.4,1.4-8.7-.3-1.2-.9-1.8-1.2-2h-1v.2Z"/>
                <path class="st0" d="M1394.2,198.4c-8.1,1.8-16.3,3.6-24.4,5.3l4.6,22c8.3-1.7,16.6-3.5,24.9-5.4l-5-21.9h0Z"/>
              </g>
            </g>
          </g>
          <g class="st6">
            <path class="st5" d="M223.5,220.4c-1.1,1.1-2.9,2.3-4.2,3l5.6,33.5,18-3.6,2.3,15.1v.4l-17.9,3.5,8.2,49.1c1.1-.6,2.5-.8,3.7-1.4,9.9-4.4,19.3-12.1,24.9-21.5,2.8-4.7,6.4-13.7,6.5-19.1,0-.3-.1-.6-.1-.9-.8.5-1.5,0-2.2-.2-.4,0-.7.1-1.1,0-.4,0-2.5-.8-2.6-1.1.9-3.2.9-6.6,1.2-9.9.7-7.1,1.5-14.5,1.7-21.8,0-.7-.5-1.4,0-2.2,1.4.5,3.2.9,4.5,1.5,8.5,3.6,16.7,13.7,20.8,21.8.6,1.3,1,3,1.7,4.3-3,1-5.5,3.1-8.4,4.4-.5,4.8-.9,9.7-2.1,14.4-7.8,32-36.7,49.2-68.5,48.5-24.8-.5-43.4-12.1-55.3-33.6-.8-1.5-1.1-3.2-2.3-4.5l-9.1-2.1c-.2-.2.1-4.7.2-5.3.4-4.1,1.7-9.4,3.2-13.3,2.1-5.7,5.9-11.5,11.1-14.9l15.5,30.1c-.8,2-3.3,2.4-4.8,3.6v.4c1.7,2.1,3,4.7,4.6,6.8,10.1,12.7,25.7,18.5,41.6,18.7.9,0,2-.5,2.9.1l-10.6-49.5-16.4,2.8-3.6-14.2,17-3.4-6.7-32.5c-5.7-.3-12-3.2-16.1-7.3-17.4-17.4-3.4-47.3,21.3-45,22,2.1,31.3,29.9,15.6,45.2h0ZM217,191.6c-15-16.3-37.1,5.4-22.8,20.9,2.1,2.3,7.2,4.5,10.4,4.6,13.3.2,21.5-15.6,12.4-25.5h0Z"/>
          </g>
        </g>
      </g>
    </g>
  </g>
  <g id="_レイヤー_21" data-name="レイヤー_2">
    <g id="uuid-0cf0b419-f200-4ce3-9eb9-a0343b414fe1" data-name="_レイヤー_21">
      <path class="st1" d="M-23,107s100.2,94.5,174.1,122.2,145.9,41.7,268.7,44.3,530.8-95.5,530.8-95.5"/>
      <path class="st2" d="M959.1,189.3s196.1-85.8,104.1-175.4-174.7,166.8-135.9,187.8,187.6,48.7,285.9,40.9,202.4-34.4,202.4-34.4"/>
    </g>
  </g>
</svg>