<?xml version="1.0" encoding="UTF-8"?>
<svg id="_レイヤー_2" data-name="レイヤー 2" xmlns="http://www.w3.org/2000/svg" xmlns:xlink="http://www.w3.org/1999/xlink" viewBox="0 0 1399.21 338.4">
  <defs>
    <style>
      .cls-1 {
        fill: none;
      }

      .cls-2 {
        fill: #fff;
      }

      .cls-3 {
        fill: #f6f3e7;
      }

      .cls-4 {
        fill: #2e659e;
      }

      .cls-5 {
        clip-path: url(#clippath);
      }
    </style>
    <clipPath id="clippath">
      <path class="cls-1" d="M146.79,173.07v167.33h149.62v-167.33h-149.62ZM227.21,217.72l-.94.4c-.64-.09-1.19-.21-1.71-.37-3.46-1.08-5.79-2.9-8.02-6.28l.05-1.17c3.38-4.29,4.17-9.81,2.07-14.41l.81-1.41c.25-.02.43-.02.61-.02,1.67,0,3.21.51,4.36.95l.09.04c1.78.68,5.48,2.1,7.49,4.02l.31.66c.38,6.44-1.39,12.52-5.12,17.6Z"/>
    </clipPath>
  </defs>
  <g id="TOP">
    <g>
      <path class="cls-4" d="M223.54,220.43c-1.09,1.06-2.92,2.27-4.25,2.96l5.63,33.48,18.01-3.61,2.3,15.1v.37s-17.94,3.47-17.94,3.47l8.18,49.13c1.15-.61,2.49-.83,3.67-1.35,9.95-4.36,19.29-12.07,24.9-21.47,2.79-4.67,6.36-13.68,6.55-19.08.01-.29-.15-.61-.12-.91-.78.48-1.47-.07-2.25-.19-.35-.05-.72.15-1.1.07-.43-.09-2.53-.75-2.58-1.08.87-3.2.88-6.62,1.19-9.92.67-7.15,1.45-14.54,1.66-21.75.02-.68-.5-1.37,0-2.19,1.43.52,3.17.91,4.55,1.5,8.46,3.64,16.73,13.71,20.75,21.78.65,1.3,1.01,3,1.72,4.31-3.05,1-5.47,3.06-8.36,4.39-.49,4.84-.91,9.71-2.06,14.43-7.83,32.01-36.7,49.18-68.48,48.51-24.75-.52-43.43-12.14-55.28-33.57-.81-1.47-1.14-3.25-2.29-4.54l-9.08-2.12c-.17-.25.11-4.66.17-5.28.41-4.09,1.74-9.42,3.2-13.3,2.15-5.71,5.94-11.54,11.06-14.93l15.53,30.06c-.81,2.04-3.28,2.35-4.84,3.57l.1.38c1.6,2.11,2.89,4.73,4.52,6.76,10.14,12.67,25.66,18.46,41.61,18.66.94.01,1.96-.49,2.91.1l-10.57-49.5-16.45,2.83-3.61-14.18,16.99-3.36-6.71-32.48c-5.73-.29-12.04-3.24-16.11-7.32-17.39-17.42-3.44-47.28,21.32-44.98,21.98,2.05,31.29,29.95,15.56,45.23ZM216.98,191.58c-15.04-16.32-37.05,5.44-22.78,20.92,2.14,2.32,7.23,4.51,10.36,4.56,13.29.19,21.52-15.6,12.41-25.47Z"/>
      <g>
        <path class="cls-3" d="M4.73,127.14c152.04,70.44,286.18,98.56,377.78,110.92,160.92,21.72,282.36.06,525.25-43.25,68.45-12.21,144.66-32.72,174.22-87.56,16.1-29.87,14.49-73.86-14.91-90.68-27.99-16.01-64.08,1.49-85.48,25.65-18.41,20.79-31.35,47.68-30.44,75.47,1.06,32.31,20.9,61.91,46.85,81.07,30.66,22.63,61.86,32.09,88.98,35.99,115.88,16.66,267.72-15.87,309.74-25.38"/>
        <g>
          <g>
            <path class="cls-2" d="M23.88,128.03c-.03-.44-.54-1.25-1.65-2.11-.61-.47-1.35-.91-2.18-1.28-2.2-.99-4.99-1.48-7.51-.67-3.15,1.01-5.52,3.85-6.38,6.06-.46,1.19-.42,1.98-.22,2.32.11.19.38.38.82.52,2.7-.5,5.23-1.37,7.89-2.28,2.97-1.02,5.98-2.05,9.22-2.57Z"/>
            <path class="cls-2" d="M7.91,135.19c2.4,3.1,5.47,5.42,9.49,7.23,2.6,1.17,4.98,1.84,7.21,2.14l6.25-14.18c-5.7-.77-10.44.88-15.4,2.57-2.42.83-4.92,1.68-7.56,2.23Z"/>
            <path class="cls-4" d="M24.61,144.57l-1.05,2.37c-2.24-.38-4.62-1.08-7.19-2.23-5.14-2.31-8.87-5.41-11.7-9.72l-.73-1.11c-.06-.09-.13-.17-.19-.27-.01-.03-.03-.06-.04-.09l-.12-.18h.03c-.52-1.1-.46-2.58.18-4.21,1.11-2.84,4.02-6.27,7.98-7.54,4.34-1.4,9.12.16,11.95,2.33,1.57,1.2,2.48,2.54,2.61,3.81,1.77-.12,3.61-.05,5.56.27l-1.05,2.37c-5.7-.77-10.44.88-15.4,2.57-2.42.83-4.92,1.68-7.56,2.23,2.4,3.1,5.47,5.42,9.49,7.23,2.6,1.17,4.98,1.84,7.21,2.14ZM6.77,132.88c2.7-.5,5.23-1.37,7.89-2.28,2.97-1.02,5.98-2.05,9.22-2.57-.03-.44-.54-1.25-1.65-2.11-.61-.47-1.35-.91-2.18-1.28-2.2-.99-4.99-1.48-7.51-.67-3.15,1.01-5.52,3.85-6.38,6.06-.46,1.19-.42,1.98-.22,2.32.11.19.38.38.82.52Z"/>
            <polygon class="cls-1" points="0 137.34 23.2 147.77 32.28 127.19 9.46 116.93 0 137.34"/>
          </g>
          <g>
            <path class="cls-2" d="M30.73,144.56l.28-.04c1.18-.19,2.32-.46,3.44-.78h.03c.73-.21,1.44-.44,2.16-.68l.09-.03c.35-.12.7-.24,1.06-.36l.05-.02c.73-.26,1.47-.53,2.22-.8,2.43-.89,4.88-1.79,7.47-2.41-2.45-3.03-5.52-5.27-9.53-6.96-2.6-1.09-4.93-1.79-7.14-2.07l-6.25,14.18c2.16.3,4.18.25,6.12-.01Z"/>
            <path class="cls-2" d="M33.4,146.58c2.47,3.04,5.58,5.3,9.65,7.02,2.63,1.11,5.02,1.73,7.26,1.98l5.96-14.31c-5.72-.64-10.42,1.11-15.35,2.91-2.41.88-4.89,1.79-7.52,2.4Z"/>
            <path class="cls-4" d="M43.05,153.59c-4.07-1.72-7.18-3.97-9.65-7.02,2.63-.61,5.11-1.51,7.52-2.4,4.93-1.81,9.63-3.55,15.35-2.91l1-2.39c-2.49-.35-4.81-.29-7,.02-2.84-3.9-6.43-6.68-11.27-8.73-2.56-1.07-4.88-1.81-7.09-2.15l-1.05,2.37c2.21.28,4.54.99,7.14,2.07,4.01,1.7,7.08,3.93,9.53,6.96-2.59.62-5.04,1.52-7.47,2.41-.75.27-1.49.54-2.22.8l-.05.02c-.36.12-.71.24-1.06.36l-.09.03c-.72.24-1.44.47-2.16.67h-.03c-1.12.33-2.26.59-3.44.79l-.28.04c-1.94.27-3.96.31-6.12.01l-1.05,2.37c2.52.42,4.85.44,7.06.15,2.85,3.91,6.52,6.72,11.44,8.8,2.59,1.1,4.99,1.75,7.23,2.08l1-2.4c-2.24-.26-4.63-.87-7.26-1.98Z"/>
          </g>
          <g>
            <path class="cls-2" d="M56.43,155.42l.28-.05c1.17-.2,2.29-.46,3.4-.8h.03c.72-.23,1.44-.47,2.15-.73l.09-.03c.35-.13.7-.26,1.05-.39l.05-.02c.72-.28,1.46-.56,2.21-.85,2.41-.94,4.85-1.9,7.42-2.58-2.51-2.98-5.63-5.13-9.67-6.77-2.59-1.1-4.96-1.7-7.17-1.95l-5.96,14.31c2.17.25,4.19.16,6.12-.15Z"/>
            <path class="cls-2" d="M59.12,157.43c2.53,2.98,5.69,5.17,9.8,6.8,2.65,1.05,5.06,1.62,7.3,1.82l5.66-14.43c-5.74-.51-10.4,1.34-15.3,3.25-2.39.93-4.85,1.89-7.47,2.56Z"/>
            <path class="cls-4" d="M68.92,164.23c-4.1-1.63-7.27-3.81-9.8-6.8,2.62-.67,5.08-1.62,7.47-2.56,4.89-1.91,9.56-3.76,15.3-3.25l.95-2.41c-2.5-.3-4.81-.19-7,.18-2.91-3.84-6.57-6.52-11.45-8.49-2.55-1.08-4.91-1.71-7.12-2.03l-1,2.39c2.21.25,4.58.85,7.17,1.95,4.04,1.64,7.16,3.78,9.67,6.77-2.58.68-5.01,1.63-7.42,2.58-.75.29-1.48.57-2.21.85l-.05.02c-.35.13-.7.26-1.05.39l-.09.03c-.71.26-1.43.5-2.15.72h-.03c-1.12.35-2.24.61-3.4.81l-.28.05c-1.93.31-3.95.4-6.12.15l-1,2.39c2.53.37,4.86.32,7.07,0,2.91,3.91,6.65,6.59,11.62,8.58,2.62,1.04,5.03,1.64,7.28,1.92l.95-2.42c-2.24-.21-4.65-.77-7.3-1.82Z"/>
          </g>
          <g>
            <path class="cls-2" d="M82.35,165.77l.28-.05c1.16-.22,2.28-.52,3.38-.87h.03c.71-.24,1.42-.47,2.13-.75l.09-.03c.35-.14.69-.27,1.04-.41l.05-.02c.72-.29,1.45-.59,2.19-.9,2.39-.99,4.81-2,7.37-2.73-2.57-2.94-5.75-4.97-9.8-6.59-2.62-1.04-5-1.59-7.21-1.79l-5.66,14.43c2.18.2,4.2.07,6.12-.29Z"/>
            <path class="cls-2" d="M85.08,167.73c2.58,2.97,5.8,5.06,9.93,6.61,2.67,1,5.1,1.51,7.34,1.66l5.36-14.54c-5.75-.39-10.38,1.56-15.23,3.58-2.37.98-4.82,2.01-7.41,2.7Z"/>
            <path class="cls-4" d="M95.01,174.34c-4.13-1.55-7.35-3.64-9.93-6.61,2.59-.68,5.04-1.72,7.41-2.7,4.85-2.02,9.48-3.96,15.23-3.58l.9-2.43c-2.51-.24-4.82-.08-7,.33-2.99-3.79-6.72-6.34-11.61-8.27-2.57-1.02-4.95-1.6-7.17-1.87l-.95,2.41c2.22.2,4.6.75,7.21,1.79,4.05,1.62,7.23,3.64,9.8,6.59-2.56.73-4.98,1.74-7.37,2.73-.74.3-1.47.6-2.19.9l-.05.02c-.35.14-.7.27-1.04.41l-.09.03c-.71.28-1.41.51-2.13.74h-.03c-1.1.36-2.22.65-3.38.88l-.28.05c-1.93.35-3.95.49-6.12.29l-.95,2.41c2.54.31,4.87.21,7.07-.15,2.97,3.9,6.78,6.47,11.78,8.36,2.64.98,5.06,1.53,7.32,1.76l.9-2.44c-2.25-.16-4.67-.67-7.34-1.66Z"/>
          </g>
          <g>
            <path class="cls-2" d="M108.47,175.59l.28-.06c1.16-.25,2.27-.57,3.37-.94h.03c.71-.25,1.41-.51,2.11-.79l.09-.03c.34-.14.69-.28,1.03-.43l.05-.02c.71-.31,1.44-.62,2.17-.94,2.37-1.04,4.76-2.1,7.31-2.89-1.32-1.43-2.78-2.66-4.42-3.7-1.65-1.03-3.47-1.92-5.51-2.69-2.64-.98-5.03-1.48-7.25-1.63l-5.36,14.54c2.18.15,4.2-.02,6.12-.42Z"/>
            <path class="cls-2" d="M111.24,177.49c2.63,2.95,5.9,4.94,10.06,6.41,2.69.94,5.13,1.4,7.38,1.51l5.06-14.65c-5.75-.27-10.34,1.78-15.15,3.9-2.35,1.02-4.78,2.12-7.34,2.84Z"/>
            <path class="cls-4" d="M121.3,183.9c-4.16-1.47-7.43-3.46-10.06-6.41,2.57-.72,5-1.81,7.34-2.84,4.81-2.12,9.4-4.16,15.15-3.9l.85-2.45c-2.51-.19-4.82.02-6.99.47-1.54-1.85-3.25-3.41-5.19-4.73-1.95-1.31-4.13-2.37-6.59-3.31-2.6-.97-4.98-1.5-7.21-1.71l-.9,2.43c2.22.15,4.61.65,7.25,1.63,2.04.77,3.86,1.66,5.51,2.69,1.64,1.04,3.1,2.27,4.42,3.7-2.55.79-4.94,1.84-7.31,2.89-.73.32-1.46.63-2.17.94l-.05.02c-.35.14-.69.29-1.03.43l-.09.03c-.7.27-1.4.54-2.11.78h-.03c-1.1.38-2.21.7-3.37.95l-.28.06c-1.92.39-3.94.57-6.12.42l-.9,2.43c2.54.26,4.88.11,7.07-.3,3.05,3.83,6.91,6.35,11.95,8.12,2.66.93,5.1,1.42,7.36,1.6l.85-2.45c-2.25-.11-4.68-.57-7.38-1.51Z"/>
          </g>
          <g>
            <path class="cls-2" d="M134.78,184.86l.27-.06c1.15-.27,2.26-.62,3.35-1.01h.03c.7-.27,1.4-.54,2.09-.83l.09-.04c.34-.15.68-.3,1.03-.45l.04-.02c.71-.32,1.42-.65,2.15-.99,2.35-1.09,4.72-2.2,7.25-3.04-1.35-1.41-2.83-2.6-4.5-3.61-1.67-1-3.51-1.85-5.56-2.58-2.66-.93-5.06-1.37-7.28-1.48l-5.06,14.65c2.19.11,4.2-.11,6.11-.54Z"/>
            <path class="cls-2" d="M137.59,186.71c2.69,2.89,6,4.82,10.19,6.2,2.71.88,5.15,1.29,7.41,1.36l4.75-14.75c-5.76-.15-10.3,1.99-15.07,4.21-2.32,1.07-4.73,2.22-7.28,2.99Z"/>
            <path class="cls-4" d="M147.79,192.91c-4.19-1.38-7.51-3.31-10.19-6.2,2.55-.77,4.96-1.91,7.28-2.99,4.77-2.22,9.31-4.36,15.07-4.21l.79-2.47c-2.52-.14-4.82.12-6.98.62-1.58-1.82-3.32-3.35-5.29-4.62-1.97-1.27-4.18-2.29-6.65-3.17-2.62-.91-5.01-1.39-7.24-1.56l-.85,2.45c2.23.1,4.63.55,7.28,1.48,2.05.73,3.89,1.58,5.56,2.58,1.67,1.01,3.15,2.2,4.5,3.61-2.53.84-4.9,1.95-7.25,3.04-.73.33-1.44.66-2.15.99l-.04.02c-.34.15-.69.3-1.03.45l-.09.04c-.69.29-1.39.56-2.09.82h-.03c-1.09.4-2.19.75-3.35,1.02l-.27.06c-1.91.43-3.92.65-6.11.54l-.85,2.45c2.55.2,4.88,0,7.06-.45,3.13,3.77,7.04,6.21,12.12,7.87,2.68.87,5.12,1.32,7.39,1.45l.8-2.47c-2.25-.06-4.69-.47-7.41-1.36Z"/>
          </g>
          <g>
            <path class="cls-2" d="M161.29,193.59l.27-.07c1.15-.3,2.24-.67,3.32-1.08h.03c.7-.28,1.38-.57,2.08-.89l.08-.04c.34-.16.67-.31,1.02-.47l.04-.02c.7-.34,1.41-.68,2.13-1.03,2.33-1.14,4.67-2.3,7.18-3.19-2.75-2.78-6.05-4.61-10.19-5.97-2.68-.87-5.09-1.27-7.31-1.33l-4.75,14.75c2.19.06,4.19-.2,6.1-.67Z"/>
            <path class="cls-2" d="M164.14,195.38c2.76,2.8,6.1,4.69,10.32,5.98,2.73.83,5.18,1.19,7.43,1.21l4.44-14.85c-5.76-.03-10.26,2.2-14.97,4.51-2.3,1.12-4.68,2.31-7.22,3.15Z"/>
            <path class="cls-4" d="M174.46,201.36c-4.22-1.29-7.57-3.18-10.32-5.98,2.54-.84,4.92-2.03,7.22-3.15,4.72-2.31,9.22-4.54,14.97-4.51l.74-2.48c-2.52-.09-4.81.21-6.96.76-3.22-3.6-7.1-5.92-12.1-7.54-2.63-.86-5.04-1.29-7.27-1.41l-.8,2.47c2.23.06,4.64.46,7.31,1.33,4.14,1.36,7.44,3.19,10.19,5.97-2.51.89-4.86,2.04-7.18,3.19-.72.35-1.43.69-2.13,1.03l-.04.02c-.34.16-.68.32-1.02.47l-.08.04c-.69.32-1.38.6-2.08.87h-.03c-1.08.43-2.18.8-3.32,1.09l-.27.07c-1.9.47-3.91.73-6.1.67l-.8,2.47c2.55.15,4.88-.1,7.05-.59,3.21,3.7,7.17,6.04,12.28,7.61,2.69.82,5.15,1.22,7.42,1.3l.74-2.49c-2.25-.02-4.7-.38-7.43-1.21Z"/>
          </g>
          <g>
            <path class="cls-2" d="M187.97,201.77l.27-.08c1.14-.32,2.23-.7,3.3-1.16h.03c.69-.31,1.38-.62,2.06-.95l.08-.04c.33-.16.67-.33,1.01-.49l.04-.02c.69-.35,1.39-.71,2.1-1.07,2.3-1.19,4.62-2.39,7.11-3.33-2.81-2.71-6.13-4.52-10.32-5.73-2.69-.82-5.11-1.17-7.34-1.18l-4.44,14.85c2.19.02,4.19-.28,6.08-.79Z"/>
            <path class="cls-2" d="M190.85,203.49c2.83,2.71,6.2,4.56,10.45,5.76,2.75.77,5.2,1.09,7.45,1.06l4.13-14.94c-5.75.08-10.2,2.4-14.87,4.81-2.28,1.18-4.63,2.38-7.16,3.31Z"/>
            <path class="cls-4" d="M201.3,209.24c-4.25-1.2-7.62-3.05-10.45-5.76,2.53-.93,4.88-2.14,7.16-3.31,4.67-2.41,9.11-4.73,14.87-4.81l.69-2.5c-2.52-.04-4.8.31-6.94.9-3.3-3.52-7.21-5.81-12.26-7.27-2.65-.8-5.06-1.19-7.3-1.26l-.74,2.48c2.23.01,4.64.36,7.34,1.18,4.18,1.21,7.51,3.02,10.32,5.73-2.49.94-4.81,2.14-7.11,3.33-.71.36-1.41.72-2.1,1.07l-.04.02c-.34.17-.67.33-1.01.49l-.08.04c-.68.33-1.37.64-2.06.94h-.03c-1.07.47-2.16.85-3.3,1.17l-.27.08c-1.89.51-3.89.81-6.08.79l-.74,2.49c2.55.1,4.87-.19,7.03-.74,3.3,3.58,7.3,5.87,12.45,7.34,2.71.76,5.17,1.12,7.44,1.16l.69-2.5c-2.25.02-4.71-.29-7.45-1.06Z"/>
          </g>
          <g>
            <path class="cls-2" d="M214.81,209.39l.27-.08c1.14-.36,2.22-.79,3.29-1.26h.03c.69-.32,1.37-.65,2.04-.99l.08-.04c.33-.17.66-.34.99-.51l.04-.02c.68-.37,1.38-.74,2.08-1.12,2.27-1.23,4.57-2.48,7.04-3.46-2.86-2.65-6.22-4.42-10.43-5.52-2.73-.7-5.14-1.05-7.37-1l-4.13,14.94c2.19-.02,4.18-.37,6.06-.91Z"/>
            <path class="cls-2" d="M217.75,211.01c2.88,2.66,6.29,4.44,10.56,5.56,2.76.72,5.22.99,7.47.92l3.81-15.02c-5.75.19-10.14,2.6-14.76,5.09-2.25,1.22-4.57,2.47-7.08,3.45Z"/>
            <path class="cls-4" d="M228.31,216.57c-4.27-1.12-7.68-2.9-10.56-5.56,2.51-.98,4.83-2.23,7.08-3.45,4.61-2.5,9.01-4.9,14.76-5.09l.64-2.51c-2.52,0-4.79.4-6.91,1.03-3.37-3.45-7.32-5.69-12.41-7.02-2.68-.69-5.09-1.07-7.33-1.09l-.69,2.5c2.23-.05,4.64.3,7.37,1,4.21,1.1,7.57,2.87,10.43,5.52-2.47.99-4.76,2.23-7.04,3.46-.7.38-1.4.75-2.08,1.12l-.04.02c-.33.17-.67.34-.99.51l-.08.04c-.68.34-1.35.67-2.04.98h-.03c-1.06.49-2.15.92-3.29,1.28l-.27.08c-1.88.55-3.87.89-6.06.91l-.69,2.5c2.56.04,4.86-.28,7.02-.89,3.39,3.46,7.43,5.72,12.6,7.07,2.72.71,5.19,1.02,7.46,1.02l.64-2.52c-2.25.07-4.71-.2-7.47-.92Z"/>
          </g>
          <g>
            <path class="cls-2" d="M241.83,216.4l.27-.09c1.13-.38,2.2-.83,3.26-1.33h.03c.68-.33,1.35-.67,2.02-1.03l.08-.04c.33-.18.65-.35.98-.53l.04-.02c.67-.38,1.36-.76,2.06-1.15,2.24-1.27,4.51-2.56,6.96-3.6-2.92-2.6-6.31-4.31-10.54-5.33-2.74-.67-5.18-.86-7.4-.8l-3.81,15.02c2.18-.05,4.18-.47,6.05-1.09Z"/>
            <path class="cls-2" d="M244.79,217.96c2.94,2.6,6.38,4.33,10.67,5.37,2.78.66,5.23.91,7.49.75l3.49-15.1c-5.75.36-10.08,2.8-14.64,5.4-2.22,1.26-4.52,2.56-7.01,3.58Z"/>
            <path class="cls-4" d="M255.46,223.33c-4.29-1.04-7.74-2.76-10.67-5.37,2.49-1.03,4.78-2.32,7.01-3.58,4.56-2.6,8.89-5.04,14.64-5.4l.58-2.53c-2.53.12-4.79.51-6.89,1.19-3.44-3.39-7.44-5.56-12.55-6.79-2.69-.65-5.13-.88-7.36-.89l-.64,2.51c2.22-.06,4.66.14,7.4.8,4.23,1.02,7.62,2.73,10.54,5.33-2.45,1.03-4.71,2.32-6.96,3.6-.7.39-1.38.78-2.06,1.15l-.04.02c-.33.18-.66.36-.98.53l-.08.04c-.67.35-1.34.69-2.02,1.02h-.03c-1.05.51-2.13.96-3.26,1.34l-.27.09c-1.87.61-3.87,1.04-6.05,1.09l-.64,2.51c2.55.02,4.87-.43,7.01-1.08,3.46,3.4,7.54,5.58,12.74,6.84,2.74.65,5.2.95,7.48.85l.58-2.53c-2.26.17-4.71-.09-7.49-.75Z"/>
          </g>
          <g>
            <path class="cls-2" d="M268.98,222.83l.27-.1c1.12-.4,2.18-.87,3.23-1.39h.03c.67-.35,1.34-.7,2-1.07l.08-.04c.32-.18.64-.37.97-.55l.04-.02c.67-.39,1.34-.79,2.03-1.19,2.22-1.31,4.45-2.65,6.87-3.72-2.97-2.55-6.39-4.2-10.64-5.15-2.75-.61-5.19-.78-7.41-.63l-3.49,15.1c2.19-.14,4.17-.59,6.03-1.24Z"/>
            <path class="cls-2" d="M271.97,224.34c2.99,2.55,6.47,4.22,10.77,5.18,2.79.59,5.27.71,7.52.53l3.16-15.17c-2.87.25-5.38,1.03-7.74,2.09-2.35,1.03-4.54,2.33-6.79,3.67-2.19,1.3-4.46,2.64-6.92,3.71Z"/>
            <path class="cls-4" d="M282.75,229.52c-4.31-.96-7.79-2.63-10.77-5.18,2.47-1.07,4.73-2.41,6.92-3.71,2.25-1.33,4.44-2.64,6.79-3.67,2.36-1.06,4.87-1.84,7.74-2.09l.53-2.54c-2.52.14-4.78.65-6.88,1.39-3.51-3.31-7.55-5.42-12.68-6.56-2.7-.6-5.14-.81-7.38-.72l-.58,2.53c2.23-.15,4.67.02,7.41.63,4.25.95,7.67,2.6,10.64,5.15-2.42,1.08-4.66,2.41-6.87,3.72-.69.4-1.36.8-2.03,1.19l-.04.02c-.33.18-.65.37-.97.55l-.08.04c-.66.37-1.32.72-2,1.05h-.03c-1.04.53-2.11,1-3.23,1.4l-.27.1c-1.86.65-3.84,1.1-6.03,1.24l-.58,2.53c2.56-.09,4.86-.55,6.99-1.25,3.53,3.34,7.65,5.45,12.87,6.62,2.76.58,5.24.74,7.51.63l.53-2.54c-2.25.18-4.72.06-7.52-.53Z"/>
          </g>
          <g>
            <path class="cls-2" d="M296.26,228.71l.26-.1c1.11-.42,2.16-.91,3.19-1.44h.03c.67-.36,1.32-.72,1.97-1.1l.08-.05c.32-.19.64-.38.96-.57l.04-.03c.66-.4,1.32-.81,2-1.23,2.18-1.34,4.4-2.77,6.8-3.91-3.04-2.42-6.49-4.02-10.75-4.9-2.76-.57-5.2-.69-7.42-.5l-3.16,15.17c2.18-.18,4.15-.66,6-1.34Z"/>
            <path class="cls-2" d="M299.29,230.16c1.52,1.25,3.16,2.28,4.95,3.1,1.8.81,3.77,1.39,5.94,1.8,2.8.53,5.28.62,7.52.4l2.84-15.24c-5.73.59-9.97,3.29-14.41,6.1-2.17,1.34-4.4,2.72-6.84,3.84Z"/>
            <path class="cls-4" d="M310.18,235.07c-2.17-.41-4.14-.99-5.94-1.8-1.8-.83-3.43-1.85-4.95-3.1,2.44-1.12,4.67-2.49,6.84-3.84,4.45-2.81,8.68-5.51,14.41-6.1l.47-2.55c-2.51.19-4.76.73-6.84,1.5-1.79-1.6-3.71-2.89-5.83-3.9-2.11-1.04-4.42-1.82-6.99-2.35-2.71-.56-5.15-.72-7.39-.59l-.53,2.54c2.22-.19,4.66-.06,7.42.5,4.27.88,7.72,2.48,10.75,4.9-2.4,1.15-4.62,2.58-6.8,3.91-.68.42-1.34.82-2,1.23l-.04.03c-.32.19-.64.38-.96.57l-.08.05c-.65.38-1.31.74-1.97,1.09h-.03c-1.03.55-2.09,1.03-3.19,1.46l-.26.1c-1.84.68-3.81,1.16-6,1.34l-.53,2.54c2.56-.13,4.85-.64,6.95-1.37,3.6,3.28,7.75,5.35,13.02,6.31,2.77.52,5.25.65,7.52.5l.48-2.55c-2.24.22-4.72.13-7.52-.4Z"/>
          </g>
          <g>
            <path class="cls-2" d="M323.66,234.02l.26-.1c1.1-.44,2.14-.94,3.16-1.51l.03-.02c.66-.37,1.31-.75,1.95-1.15l.08-.05c.31-.2.63-.4.95-.6l.04-.03c.65-.42,1.31-.85,1.98-1.29,2.16-1.42,4.34-2.86,6.71-4.05-3.08-2.4-6.57-3.87-10.86-4.62-2.77-.52-5.21-.61-7.42-.38l-2.84,15.24c2.18-.22,4.14-.73,5.96-1.44Z"/>
            <path class="cls-2" d="M326.71,235.41c3.1,2.4,6.65,3.89,11,4.64,2.81.48,5.29.54,7.52.27l2.51-15.3c-5.71.69-9.88,3.46-14.27,6.34-2.14,1.41-4.34,2.85-6.76,4.04Z"/>
            <path class="cls-4" d="M337.71,240.05c-4.35-.75-7.9-2.24-11-4.64,2.42-1.19,4.62-2.64,6.76-4.04,4.38-2.88,8.55-5.65,14.27-6.34l.42-2.56c-2.51.23-4.74.81-6.8,1.62-3.65-3.15-7.78-5.04-12.96-5.94-2.72-.51-5.16-.63-7.39-.47l-.47,2.55c2.22-.23,4.66-.14,7.42.38,4.29.75,7.78,2.22,10.86,4.62-2.38,1.19-4.55,2.63-6.71,4.05-.67.44-1.33.87-1.98,1.29l-.04.03c-.32.2-.63.4-.95.6l-.08.05c-.64.4-1.29.78-1.95,1.15l-.03.02c-1.02.57-2.06,1.07-3.16,1.51l-.26.1c-1.83.71-3.78,1.23-5.96,1.44l-.47,2.55c2.55-.18,4.83-.72,6.92-1.49,3.67,3.19,7.89,5.07,13.16,5.99,2.78.48,5.26.57,7.52.37l.42-2.56c-2.24.27-4.71.21-7.52-.27Z"/>
          </g>
          <g>
            <path class="cls-2" d="M351.17,238.7l.26-.11c1.09-.47,2.12-1.01,3.13-1.59l.03-.02c.65-.38,1.29-.77,1.92-1.18l.08-.05c.31-.2.62-.41.93-.61l.04-.03c.64-.43,1.29-.87,1.95-1.32,2.13-1.46,4.27-2.92,6.62-4.16-3.13-2.34-6.65-3.78-10.95-4.45-2.78-.44-5.23-.45-7.44-.15l-2.51,15.29c2.18-.28,4.12-.86,5.94-1.62Z"/>
            <path class="cls-2" d="M354.26,240.01c3.15,2.34,6.72,3.82,11.09,4.45,2.83.4,5.3.38,7.53.06l2.18-15.35c-5.7.84-9.82,3.76-14.13,6.69-2.11,1.44-4.28,2.92-6.67,4.15Z"/>
            <path class="cls-4" d="M365.35,244.46c-4.37-.63-7.94-2.1-11.09-4.45,2.39-1.23,4.56-2.71,6.67-4.15,4.31-2.93,8.43-5.85,14.13-6.69l.36-2.57c-2.5.3-4.73.94-6.77,1.81-3.73-3.02-7.88-4.91-13.08-5.71-2.74-.43-5.18-.47-7.41-.24l-.42,2.56c2.21-.3,4.66-.28,7.44.15,4.3.67,7.82,2.11,10.95,4.45-2.35,1.24-4.49,2.71-6.62,4.16-.66.45-1.31.89-1.95,1.32l-.04.03c-.31.21-.62.41-.93.61l-.08.05c-.63.41-1.27.8-1.92,1.18l-.03.02c-1.01.58-2.04,1.12-3.13,1.59l-.26.11c-1.81.77-3.76,1.34-5.94,1.62l-.42,2.56c2.55-.25,4.82-.87,6.89-1.7,3.74,3.09,7.98,4.97,13.28,5.75,2.79.4,5.28.42,7.53.16l.36-2.57c-2.23.32-4.71.34-7.53-.06Z"/>
          </g>
          <g>
            <path class="cls-2" d="M378.78,242.8l.26-.12c1.08-.49,2.1-1.04,3.09-1.64l.03-.02c.64-.4,1.28-.81,1.9-1.24l.08-.05c.3-.21.61-.43.92-.64l.04-.03c.63-.46,1.27-.92,1.92-1.39,2.1-1.53,4.21-3.07,6.53-4.39-3.18-2.25-6.73-3.51-11.05-4.08-2.79-.4-5.23-.37-7.43-.05l-2.18,15.35c2.17-.31,4.1-.92,5.9-1.71Z"/>
            <path class="cls-2" d="M381.89,244.07c3.21,2.24,6.83,3.55,11.22,4.07,2.84.34,5.32.27,7.54-.1l1.78-15.4c-5.66.97-9.7,3.95-13.96,7.05-2.08,1.51-4.22,3.07-6.59,4.38Z"/>
            <path class="cls-4" d="M393.11,248.14c-4.39-.53-8.02-1.83-11.22-4.07,2.37-1.31,4.51-2.86,6.59-4.38,4.25-3.1,8.29-6.08,13.96-7.05l.3-2.58c-2.49.35-4.69,1.05-6.71,1.96-3.79-2.97-7.99-4.61-13.2-5.29-2.74-.39-5.18-.4-7.41-.14l-.36,2.57c2.2-.33,4.65-.35,7.43.05,4.31.57,7.86,1.83,11.05,4.08-2.32,1.31-4.43,2.86-6.53,4.39-.65.47-1.29.93-1.92,1.39l-.04.03c-.31.22-.62.43-.92.64l-.08.05c-.63.43-1.26.85-1.9,1.24l-.03.02c-.99.6-2.01,1.15-3.09,1.64l-.26.12c-1.79.79-3.73,1.4-5.9,1.71l-.36,2.57c2.54-.29,4.79-.94,6.85-1.8,3.8,3.05,8.12,4.68,13.44,5.34,2.8.34,5.3.3,7.55,0l.3-2.58c-2.22.37-4.7.44-7.54.1Z"/>
          </g>
          <g>
            <path class="cls-2" d="M406.51,246.2l.25-.12c1.07-.51,2.07-1.09,3.05-1.7l.03-.02c.63-.4,1.25-.82,1.86-1.25l.08-.05c.3-.21.6-.43.9-.66l.04-.03c.62-.47,1.25-.96,1.88-1.44,2.05-1.59,4.12-3.2,6.4-4.58-1.62-1.07-3.33-1.9-5.17-2.51-.92-.31-1.88-.55-2.87-.76-.99-.23-2.02-.41-3.1-.54-2.79-.33-5.22-.26-7.41.12l-1.78,15.4c2.16-.36,4.08-1.01,5.85-1.84Z"/>
            <path class="cls-2" d="M409.65,247.4c3.26,2.26,6.93,3.37,11.34,3.79,2.85.25,5.33.11,7.54-.33l1.33-15.44c-5.63,1.15-9.58,4.25-13.75,7.47-2.03,1.56-4.14,3.23-6.46,4.52Z"/>
            <path class="cls-4" d="M420.99,251.19c-4.41-.42-8.08-1.53-11.34-3.79,2.32-1.29,4.43-2.95,6.46-4.52,4.17-3.23,8.12-6.33,13.75-7.47l.22-2.58c-2.47.43-4.65,1.19-6.64,2.16-1.94-1.42-3.96-2.52-6.16-3.32-1.1-.4-2.24-.73-3.43-.98-1.19-.26-2.43-.51-3.73-.66-2.74-.33-5.18-.29-7.38.03l-.3,2.58c2.19-.38,4.62-.45,7.41-.12,1.08.13,2.11.31,3.1.54.99.21,1.95.45,2.87.76,1.84.61,3.55,1.44,5.17,2.51-2.28,1.38-4.35,2.99-6.4,4.58-.64.49-1.26.97-1.88,1.44l-.04.03c-.3.23-.6.45-.9.66l-.08.05c-.61.43-1.23.85-1.86,1.25l-.03.02c-.98.62-1.98,1.19-3.05,1.7l-.25.12c-1.77.83-3.69,1.48-5.85,1.84l-.3,2.58c2.54-.35,4.77-1.04,6.81-1.95,3.88,3.03,8.25,4.52,13.59,5.01,2.81.25,5.31.14,7.55-.23l.22-2.59c-2.21.44-4.69.59-7.54.33Z"/>
          </g>
          <g>
            <path class="cls-2" d="M434.33,248.84l.25-.13c1.05-.55,2.04-1.15,3-1.8l.03-.02c.62-.42,1.22-.86,1.82-1.31l.07-.05c.29-.22.58-.45.88-.67l.04-.03c.61-.47,1.22-.96,1.84-1.48,2-1.65,4.02-3.33,6.26-4.78-3.31-2.03-6.93-3.06-11.25-3.5-2.8-.25-5.23-.1-7.4.35l-1.33,15.44c2.15-.43,4.05-1.13,5.8-2.02Z"/>
            <path class="cls-2" d="M437.51,249.94c3.32,2.2,7.03,3.2,11.45,3.47,2.86.16,5.33-.06,7.53-.57l.86-15.48c-5.59,1.32-9.45,4.55-13.52,7.91-.99.82-2,1.66-3.05,2.45-1.05.78-2.13,1.53-3.27,2.22Z"/>
            <path class="cls-4" d="M448.96,253.41c-4.42-.27-8.12-1.27-11.45-3.47,1.14-.69,2.23-1.45,3.27-2.22,1.05-.79,2.06-1.63,3.05-2.45,4.07-3.36,7.92-6.58,13.52-7.91l.14-2.59c-2.46.51-4.61,1.34-6.57,2.37-3.95-2.74-8.24-4.04-13.46-4.57-2.75-.25-5.18-.13-7.38.25l-.22,2.58c2.18-.44,4.61-.59,7.4-.35,4.32.44,7.94,1.47,11.25,3.5-2.24,1.46-4.25,3.13-6.26,4.78-.62.52-1.23,1.01-1.84,1.48l-.04.03c-.3.23-.59.45-.88.67l-.07.05c-.6.45-1.21.89-1.82,1.31l-.03.02c-.96.65-1.95,1.25-3,1.8l-.25.13c-1.75.89-3.65,1.59-5.8,2.02l-.22,2.58c2.53-.42,4.75-1.18,6.75-2.16,1.99,1.41,4.08,2.55,6.35,3.31,2.27.73,4.71,1.16,7.39,1.32,2.82.16,5.31-.03,7.55-.47l.14-2.59c-2.2.51-4.67.73-7.53.57Z"/>
          </g>
          <g>
            <path class="cls-2" d="M462.23,250.64l.25-.14c1.03-.58,2-1.21,2.94-1.89l.03-.02c.61-.44,1.2-.89,1.78-1.36l.07-.06c.28-.23.57-.47.86-.7l.04-.03c.59-.49,1.18-1,1.79-1.51,1.95-1.72,3.92-3.46,6.11-4.98-1.68-.96-3.44-1.68-5.31-2.18-1.87-.52-3.87-.88-6.04-.99-2.8-.16-5.22.07-7.39.58l-.86,15.47c2.14-.5,4.02-1.26,5.74-2.2Z"/>
            <path class="cls-2" d="M465.44,251.64c1.7,1,3.47,1.84,5.38,2.31,1.91.49,3.95.76,6.16.82,2.86.07,5.33-.23,7.51-.81l.38-15.5c-5.55,1.5-9.3,4.85-13.26,8.33-1.93,1.73-3.93,3.37-6.17,4.84Z"/>
            <path class="cls-4" d="M476.99,254.77c-2.21-.06-4.25-.32-6.16-.82-1.91-.48-3.69-1.31-5.38-2.31,2.24-1.47,4.24-3.11,6.17-4.84,3.96-3.48,7.72-6.83,13.26-8.33l.06-2.59c-2.44.59-4.57,1.49-6.5,2.58-4.04-2.59-8.37-3.81-13.59-4.17-2.75-.16-5.18.04-7.36.49l-.14,2.59c2.16-.51,4.59-.74,7.39-.58,2.17.12,4.16.47,6.04.99,1.88.49,3.63,1.21,5.31,2.18-2.19,1.53-4.16,3.26-6.11,4.98-.6.51-1.2,1.01-1.79,1.51l-.04.03c-.29.24-.58.47-.86.7l-.07.06c-.59.47-1.18.92-1.78,1.36l-.03.02c-.94.68-1.91,1.31-2.94,1.89l-.25.14c-1.72.94-3.6,1.7-5.74,2.2l-.14,2.59c2.52-.5,4.71-1.33,6.68-2.37,2.03,1.36,4.16,2.4,6.45,3.13,2.29.66,4.75,1.01,7.43,1.08,2.83.07,5.31-.2,7.53-.71l.06-2.6c-2.18.58-4.65.88-7.51.81Z"/>
          </g>
          <g>
            <path class="cls-2" d="M490.16,251.58l.24-.15c1.01-.61,1.96-1.28,2.88-1.98l.03-.02c.59-.46,1.17-.93,1.74-1.42l.07-.06c.28-.24.56-.48.84-.73l.04-.03c.57-.51,1.15-1.03,1.74-1.56,1.9-1.74,3.81-3.57,5.95-5.15-1.71-.91-3.49-1.57-5.38-2.01-1.89-.49-3.89-.76-6.06-.81-2.81-.07-5.22.23-7.37.82l-.38,15.49c2.12-.56,3.98-1.39,5.67-2.38Z"/>
            <path class="cls-2" d="M493.41,252.48c1.73.96,3.53,1.71,5.45,2.16,1.92.43,3.97.64,6.18.62,2.86-.02,5.32-.4,7.48-1.05l-.09-15.5c-5.5,1.67-9.15,5.14-13,8.74-1.88,1.77-3.82,3.47-6.02,5.02Z"/>
            <path class="cls-4" d="M505.05,255.26c-2.21.01-4.26-.19-6.18-.62-1.92-.46-3.73-1.21-5.45-2.16,2.2-1.55,4.14-3.25,6.02-5.02,3.85-3.61,7.5-7.07,13-8.74l-.02-2.59c-2.42.66-4.52,1.63-6.42,2.79-2.06-1.23-4.18-2.13-6.44-2.72-2.26-.59-4.66-.99-7.28-1.04-2.76-.07-5.17.2-7.34.72l-.06,2.59c2.15-.58,4.56-.89,7.37-.82,2.17.05,4.17.32,6.06.81,1.89.44,3.67,1.1,5.38,2.01-2.14,1.59-4.05,3.41-5.95,5.15-.59.53-1.17,1.05-1.74,1.56l-.04.03c-.28.24-.56.49-.84.73l-.07.06c-.57.49-1.15.96-1.74,1.42l-.03.02c-.92.71-1.87,1.37-2.88,1.98l-.24.15c-1.69.99-3.54,1.82-5.67,2.38l-.06,2.59c2.5-.58,4.67-1.48,6.61-2.58,2.07,1.3,4.23,2.26,6.54,2.92,2.31.63,4.77.88,7.46.87,2.83-.02,5.3-.36,7.5-.95l-.02-2.6c-2.16.65-4.62,1.03-7.48,1.05Z"/>
          </g>
          <g>
            <path class="cls-2" d="M518.12,251.65l.24-.15c1-.64,1.92-1.34,2.82-2.07l.02-.02c.58-.48,1.14-.97,1.7-1.47l.07-.06c.27-.25.54-.5.82-.75l.04-.03c.56-.53,1.12-1.07,1.69-1.62,1.84-1.76,3.7-3.67,5.8-5.31-1.74-.87-3.54-1.45-5.44-1.87-1.9-.43-3.91-.64-6.09-.62-2.81.02-5.21.4-7.34,1.05l.09,15.5c2.1-.63,3.93-1.51,5.59-2.56Z"/>
            <path class="cls-2" d="M521.39,252.45c1.75.91,3.58,1.57,5.52,2.01,1.94.38,3.99.52,6.2.44,2.86-.1,5.3-.56,7.44-1.27l-.54-15.49c-5.45,1.84-9,5.41-12.74,9.13-1.83,1.79-3.72,3.58-5.87,5.18Z"/>
            <path class="cls-4" d="M533.1,254.9c-2.21.08-4.26-.06-6.2-.44-1.94-.43-3.76-1.1-5.52-2.01,2.15-1.61,4.04-3.39,5.87-5.18,3.74-3.72,7.29-7.29,12.74-9.13l-.09-2.59c-2.41.73-4.48,1.76-6.34,2.98-2.09-1.17-4.24-2-6.52-2.52-2.28-.56-4.69-.86-7.31-.83-2.76.02-5.17.36-7.32.95l.02,2.59c2.13-.65,4.53-1.03,7.34-1.05,2.17-.01,4.18.19,6.09.62,1.9.42,3.7,1,5.44,1.87-2.1,1.64-3.95,3.55-5.8,5.31-.57.55-1.14,1.09-1.69,1.62l-.04.03c-.27.25-.55.5-.82.75l-.07.06c-.56.5-1.12,1-1.7,1.47l-.02.02c-.89.73-1.82,1.43-2.82,2.07l-.24.15c-1.66,1.05-3.49,1.93-5.59,2.56l.02,2.59c2.48-.66,4.62-1.63,6.52-2.79,2.11,1.23,4.29,2.13,6.62,2.72,2.33.59,4.8.74,7.48.66,2.82-.1,5.28-.52,7.46-1.17l-.09-2.6c-2.14.71-4.58,1.17-7.44,1.27Z"/>
          </g>
          <g>
            <path class="cls-2" d="M546.05,250.9l.23-.16c.98-.67,1.88-1.4,2.76-2.16l.02-.02c.56-.49,1.11-1,1.65-1.52l.07-.06c.26-.26.53-.52.79-.78l.03-.03c.54-.55,1.09-1.1,1.65-1.67,1.79-1.81,3.6-3.73,5.65-5.45-3.53-1.57-7.26-2.34-11.6-2.18-2.81.1-5.2.55-7.31,1.27l.54,15.49c2.08-.69,3.88-1.63,5.51-2.72Z"/>
            <path class="cls-2" d="M549.34,251.6c1.78.86,3.62,1.47,5.57,1.84,1.95.37,4,.42,6.2.29,2.85-.18,5.28-.7,7.4-1.47l-.96-15.47c-5.41,1.98-8.86,5.67-12.49,9.47-1.78,1.81-3.61,3.68-5.72,5.34Z"/>
            <path class="cls-4" d="M561.11,253.74c-2.21.13-4.25.08-6.2-.29-1.95-.38-3.79-.99-5.57-1.84,2.1-1.66,3.94-3.53,5.72-5.34,3.64-3.8,7.09-7.48,12.49-9.47l-.16-2.59c-2.39.8-4.43,1.89-6.26,3.15-2.13-1.11-4.3-1.88-6.59-2.35-2.3-.52-4.71-.72-7.33-.63-2.76.1-5.16.52-7.3,1.17l.09,2.59c2.11-.71,4.5-1.16,7.31-1.27,4.34-.16,8.07.61,11.6,2.18-2.05,1.71-3.85,3.64-5.65,5.45-.56.56-1.11,1.12-1.65,1.67l-.03.03c-.27.26-.53.52-.79.78l-.07.06c-.54.52-1.09,1.03-1.65,1.52l-.02.02c-.87.76-1.78,1.48-2.76,2.16l-.23.16c-1.63,1.1-3.43,2.03-5.51,2.72l.09,2.59c2.46-.74,4.56-1.77,6.44-2.98,4.28,2.32,8.84,3.39,14.18,2.99,2.81-.18,5.26-.67,7.42-1.38l-.16-2.59c-2.12.77-4.55,1.29-7.4,1.47Z"/>
          </g>
          <g>
            <path class="cls-2" d="M573.94,249.39l.23-.17c.96-.7,1.85-1.45,2.7-2.23l.02-.02c.55-.51,1.09-1.03,1.61-1.57l.06-.07c.26-.26.51-.53.77-.8l.03-.04c.53-.56,1.06-1.13,1.6-1.71,1.75-1.88,3.51-3.77,5.52-5.56-1.79-.75-3.62-1.3-5.54-1.63-1.93-.32-3.95-.41-6.12-.27-2.81.18-5.19.7-7.28,1.47l.96,15.47c2.06-.75,3.84-1.73,5.43-2.88Z"/>
            <path class="cls-2" d="M577.24,250c3.6,1.59,7.42,2.3,11.81,1.86,2.84-.25,5.25-.83,7.35-1.66l-1.32-15.44c-5.36,2.1-8.72,5.92-12.27,9.74-1.73,1.86-3.52,3.78-5.58,5.5Z"/>
            <path class="cls-4" d="M589.05,251.86c-4.39.44-8.22-.27-11.81-1.86,2.06-1.72,3.84-3.64,5.58-5.5,3.54-3.82,6.9-7.64,12.27-9.74l-.22-2.58c-2.37.86-4.39,2-6.19,3.31-4.31-2.07-8.78-2.98-14.01-2.65-2.76.18-5.15.66-7.27,1.37l.16,2.59c2.09-.77,4.48-1.29,7.28-1.47,2.17-.14,4.19-.05,6.12.27,1.93.33,3.76.88,5.54,1.63-2.01,1.79-3.77,3.68-5.52,5.56-.54.58-1.08,1.15-1.6,1.71l-.03.04c-.26.27-.52.54-.77.8l-.06.07c-.53.54-1.06,1.06-1.61,1.57l-.02.02c-.85.79-1.74,1.53-2.7,2.23l-.23.17c-1.6,1.14-3.37,2.13-5.43,2.88l.16,2.59c2.43-.8,4.51-1.89,6.35-3.16,2.17,1.11,4.4,1.88,6.75,2.33,1.18.23,2.38.37,3.63.44,1.24.04,2.53,0,3.86-.12,2.81-.25,5.23-.8,7.37-1.56l-.22-2.59c-2.1.82-4.51,1.4-7.35,1.66Z"/>
          </g>
          <g>
            <path class="cls-2" d="M601.76,247.19l.22-.17c.94-.72,1.81-1.49,2.65-2.3l.02-.02c.54-.52,1.06-1.06,1.58-1.61l.06-.07c.25-.27.5-.54.75-.82l.03-.04c.51-.57,1.04-1.16,1.56-1.75,1.7-1.93,3.42-3.87,5.4-5.64-3.61-1.52-7.37-2.06-11.71-1.67-2.8.25-5.18.83-7.25,1.65l1.32,15.44c2.04-.8,3.79-1.83,5.36-3.01Z"/>
            <path class="cls-2" d="M605.08,247.72c3.63,1.51,7.46,2.09,11.84,1.63,2.83-.31,5.23-.95,7.31-1.82l-1.64-15.41c-5.32,2.23-8.6,6.1-12.07,9.97-1.69,1.91-3.43,3.87-5.45,5.64Z"/>
            <path class="cls-4" d="M616.92,249.34c-4.39.46-8.22-.12-11.84-1.63,2.02-1.77,3.76-3.73,5.45-5.64,3.46-3.87,6.74-7.73,12.07-9.97l-.27-2.58c-2.36.91-4.36,2.09-6.13,3.44-4.36-2-8.85-2.85-14.09-2.36-2.76.25-5.14.79-7.25,1.55l.22,2.58c2.07-.82,4.45-1.4,7.25-1.65,4.34-.39,8.1.15,11.71,1.67-1.97,1.77-3.69,3.71-5.4,5.64-.53.59-1.05,1.18-1.56,1.75l-.03.04c-.25.28-.51.55-.75.82l-.06.07c-.52.55-1.04,1.09-1.58,1.61l-.02.02c-.83.81-1.7,1.58-2.65,2.3l-.22.17c-1.57,1.18-3.32,2.21-5.36,3.01l.22,2.58c2.41-.86,4.46-2,6.27-3.31,4.38,2.09,8.97,2.9,14.28,2.36,2.8-.31,5.21-.91,7.33-1.72l-.27-2.58c-2.08.87-4.47,1.5-7.31,1.82Z"/>
          </g>
          <g>
            <path class="cls-2" d="M629.52,244.4l.22-.18c.93-.74,1.78-1.53,2.6-2.36l.02-.02c.53-.53,1.04-1.08,1.54-1.64l.06-.07c.24-.28.49-.55.74-.83l.03-.04c.5-.59,1.01-1.18,1.53-1.79,1.67-1.96,3.35-3.95,5.29-5.75-3.64-1.45-7.42-1.9-11.75-1.42-2.8.31-5.16.94-7.22,1.81l1.64,15.41c2.02-.84,3.75-1.91,5.29-3.12Z"/>
            <path class="cls-2" d="M632.84,244.86c3.65,1.45,7.48,1.89,11.86,1.41,2.83-.31,5.21-1.03,7.27-1.92l-1.9-15.38c-5.29,2.37-8.51,6.16-11.89,10.14-1.65,1.94-3.36,3.94-5.34,5.75Z"/>
            <path class="cls-4" d="M644.71,246.26c-4.38.49-8.21.04-11.86-1.41,1.98-1.81,3.68-3.81,5.34-5.75,3.39-3.98,6.61-7.77,11.89-10.14l-.32-2.57c-2.34.95-4.32,2.19-6.07,3.54-4.4-2.01-8.91-2.69-14.14-2.11-2.76.31-5.13.9-7.22,1.71l.27,2.58c2.06-.87,4.42-1.5,7.22-1.81,4.33-.48,8.11-.03,11.75,1.42-1.94,1.81-3.63,3.79-5.29,5.75-.52.6-1.03,1.2-1.53,1.79l-.03.04c-.25.28-.49.56-.74.83l-.06.07c-.5.56-1.02,1.11-1.54,1.64l-.02.02c-.82.82-1.67,1.61-2.6,2.36l-.22.18c-1.54,1.21-3.27,2.28-5.29,3.12l.27,2.58c2.39-.92,4.41-2.1,6.19-3.45,4.42,2.01,9,2.68,14.31,2.09,2.8-.3,5.19-.99,7.29-1.83l-.32-2.58c-2.06.89-4.44,1.61-7.27,1.92Z"/>
          </g>
          <g>
            <path class="cls-2" d="M657.21,241.12l.22-.18c.91-.76,1.75-1.56,2.56-2.4l.02-.02c.52-.54,1.02-1.1,1.52-1.67l.06-.07c.24-.28.48-.56.73-.85l.03-.04c.49-.6.99-1.2,1.5-1.81,1.64-1.99,3.29-4.01,5.21-5.85-3.66-1.38-7.45-1.76-11.78-1.2-2.8.36-5.15,1.04-7.2,1.94l1.9,15.38c2-.88,3.71-1.98,5.23-3.22Z"/>
            <path class="cls-2" d="M660.53,241.51c3.67,1.38,7.5,1.76,11.87,1.19,2.82-.37,5.2-1.02,7.25-1.97l-2.12-15.35c-5.26,2.38-8.43,6.22-11.75,10.28-1.62,1.97-3.29,4-5.24,5.85Z"/>
            <path class="cls-4" d="M672.4,242.71c-4.37.57-8.19.19-11.87-1.19,1.95-1.85,3.62-3.88,5.24-5.85,3.32-4.05,6.49-7.9,11.75-10.28l-.35-2.57c-2.33.99-4.3,2.18-6.03,3.57-4.43-1.93-8.96-2.52-14.19-1.84-2.75.36-5.12,1-7.2,1.85l.32,2.57c2.05-.9,4.4-1.58,7.2-1.94,4.33-.56,8.12-.18,11.78,1.2-1.92,1.84-3.57,3.86-5.21,5.85-.51.61-1.01,1.22-1.5,1.81l-.03.04c-.24.29-.49.57-.73.85l-.06.07c-.5.57-1,1.13-1.52,1.67l-.02.02c-.8.84-1.64,1.64-2.56,2.4l-.22.18c-1.52,1.24-3.23,2.34-5.23,3.22l.32,2.57c2.37-.96,4.37-2.18,6.12-3.56,4.45,1.93,9.03,2.51,14.32,1.83,2.78-.37,5.18-.98,7.27-1.87l-.36-2.57c-2.05.95-4.42,1.59-7.25,1.97Z"/>
          </g>
          <g>
            <path class="cls-2" d="M684.83,237.44l.21-.18c.9-.77,1.73-1.59,2.52-2.44l.02-.02c.51-.55,1.01-1.12,1.49-1.69l.06-.07c.24-.28.47-.57.71-.86l.03-.04c.49-.6.98-1.21,1.48-1.84,1.61-2.02,3.24-4.06,5.13-5.93-3.68-1.33-7.47-1.65-11.8-1.02-2.8.4-5.14,1.11-7.18,2.05l2.12,15.35c1.99-.91,3.68-2.03,5.18-3.3Z"/>
            <path class="cls-2" d="M688.16,237.78c3.69,1.33,7.51,1.65,11.87,1.02,2.81-.41,5.18-1.12,7.22-2.06l-2.29-15.33c-5.24,2.42-8.36,6.34-11.63,10.44-1.6,2-3.24,4.05-5.16,5.93Z"/>
            <path class="cls-4" d="M700.03,238.8c-4.36.63-8.18.31-11.87-1.02,1.92-1.88,3.56-3.93,5.16-5.93,3.27-4.09,6.39-8.02,11.63-10.44l-.38-2.56c-2.32.99-4.28,2.24-6,3.64-4.46-1.87-8.99-2.39-14.22-1.63-2.75.4-5.11,1.08-7.18,1.96l.36,2.57c2.03-.94,4.38-1.65,7.18-2.05,4.32-.63,8.12-.3,11.8,1.02-1.9,1.87-3.52,3.91-5.13,5.93-.5.62-.99,1.23-1.48,1.84l-.03.04c-.24.29-.48.58-.71.86l-.06.07c-.49.58-.98,1.14-1.49,1.69l-.02.02c-.79.85-1.62,1.67-2.52,2.44l-.21.18c-1.5,1.27-3.19,2.39-5.18,3.3l.36,2.57c2.35-.99,4.33-2.24,6.06-3.65,4.47,1.87,9.05,2.38,14.32,1.62,2.78-.4,5.16-1.08,7.24-1.96l-.38-2.57c-2.04.94-4.4,1.65-7.22,2.06Z"/>
          </g>
          <g>
            <path class="cls-2" d="M712.39,233.43l.21-.19c.89-.78,1.71-1.61,2.49-2.47l.02-.02c.51-.56.99-1.13,1.48-1.71l.06-.07c.23-.29.47-.58.7-.87l.03-.04c.48-.61.97-1.23,1.46-1.85,1.59-2.04,3.2-4.1,5.08-5.99-3.69-1.28-7.49-1.56-11.81-.88-2.79.45-5.14,1.14-7.16,2.08l2.29,15.33c1.98-.92,3.66-2.02,5.15-3.31Z"/>
            <path class="cls-2" d="M715.72,233.74c3.7,1.28,7.52,1.56,11.86.88,2.81-.44,5.16-1.18,7.19-2.14l-2.42-15.31c-5.22,2.48-8.31,6.45-11.54,10.58-1.58,2.02-3.2,4.09-5.1,6Z"/>
            <path class="cls-4" d="M727.59,234.62c-4.34.68-8.17.41-11.86-.88,1.9-1.9,3.52-3.98,5.1-6,3.23-4.13,6.31-8.1,11.54-10.58l-.41-2.56c-2.32,1.02-4.26,2.29-5.97,3.71-4.48-1.81-9.02-2.28-14.24-1.46-2.75.44-5.11,1.1-7.17,1.99l.38,2.56c2.03-.94,4.37-1.63,7.16-2.08,4.32-.68,8.12-.4,11.81.88-1.88,1.89-3.49,3.96-5.08,5.99-.49.63-.98,1.25-1.46,1.85l-.03.04c-.24.29-.47.58-.7.87l-.06.07c-.48.58-.97,1.15-1.48,1.71l-.02.02c-.78.86-1.6,1.69-2.49,2.47l-.21.19c-1.49,1.28-3.17,2.39-5.15,3.31l.38,2.57c2.34-1,4.32-2.23,6.03-3.67,4.48,1.81,9.06,2.27,14.32,1.45,2.77-.43,5.14-1.14,7.21-2.05l-.41-2.56c-2.03.96-4.38,1.7-7.19,2.14Z"/>
          </g>
          <g>
            <path class="cls-2" d="M739.9,229.12l.21-.19c.89-.78,1.7-1.61,2.48-2.47l.02-.02c.5-.56.99-1.13,1.46-1.71l.06-.07c.23-.29.46-.58.7-.87l.03-.04c.47-.61.96-1.23,1.45-1.86,1.57-2.05,3.17-4.13,5.03-6.04-3.7-1.25-7.51-1.49-11.83-.82-2.79.44-5.13,1.18-7.15,2.13l2.42,15.31c1.97-.93,3.64-2.08,5.12-3.36Z"/>
            <path class="cls-2" d="M743.23,229.42c3.72,1.29,7.53,1.52,11.87.81,2.8-.46,5.14-1.23,7.17-2.2l-2.52-15.29c-5.21,2.53-8.27,6.52-11.46,10.68-1.56,2.04-3.16,4.11-5.05,6.01Z"/>
            <path class="cls-4" d="M755.1,230.23c-4.33.72-8.15.49-11.87-.81,1.89-1.9,3.49-3.97,5.05-6.01,3.19-4.16,6.25-8.16,11.46-10.68l-.42-2.56c-2.31,1.04-4.25,2.33-5.94,3.77-4.49-1.78-9.04-2.18-14.27-1.38-2.75.43-5.1,1.14-7.16,2.04l.41,2.56c2.02-.96,4.36-1.7,7.15-2.13,4.32-.66,8.13-.43,11.83.82-1.87,1.91-3.46,3.99-5.03,6.04-.49.63-.97,1.25-1.45,1.86l-.03.04c-.23.29-.47.58-.7.87l-.06.07c-.48.58-.96,1.15-1.46,1.71l-.02.02c-.78.86-1.59,1.69-2.48,2.47l-.21.19c-1.48,1.28-3.15,2.42-5.12,3.36l.41,2.56c2.33-1.02,4.29-2.29,5.99-3.72,4.51,1.82,9.09,2.26,14.33,1.38,2.76-.46,5.12-1.18,7.18-2.11l-.42-2.56c-2.02.98-4.36,1.74-7.17,2.2Z"/>
          </g>
          <g>
            <path class="cls-2" d="M767.36,224.62l.21-.19c.88-.79,1.69-1.63,2.46-2.49l.02-.02c.5-.56.98-1.14,1.45-1.72l.06-.07c.23-.29.46-.58.69-.87l.03-.04c.47-.61.95-1.23,1.44-1.87,1.56-2.05,3.15-4.12,5-6.03-3.71-1.25-7.52-1.49-11.84-.78-2.79.46-5.13,1.22-7.14,2.2l2.52,15.29c1.96-.95,3.62-2.11,5.09-3.4Z"/>
            <path class="cls-2" d="M770.69,224.9c3.72,1.25,7.54,1.49,11.88.77,2.8-.46,5.14-1.25,7.15-2.24l-2.6-15.28c-5.2,2.57-8.24,6.55-11.41,10.71-1.55,2.03-3.14,4.12-5.02,6.04Z"/>
            <path class="cls-4" d="M782.57,225.67c-4.33.72-8.16.48-11.88-.77,1.87-1.92,3.47-4,5.02-6.04,3.17-4.16,6.21-8.14,11.41-10.71l-.44-2.56c-2.31,1.05-4.24,2.36-5.93,3.8-4.51-1.77-9.06-2.2-14.28-1.33-2.75.46-5.1,1.18-7.15,2.11l.42,2.56c2.01-.98,4.35-1.74,7.14-2.2,4.32-.72,8.13-.47,11.84.78-1.86,1.91-3.44,3.98-5,6.03-.49.63-.96,1.25-1.44,1.87l-.03.04c-.23.29-.46.58-.69.87l-.06.07c-.47.59-.96,1.16-1.45,1.72l-.02.02c-.77.87-1.58,1.7-2.46,2.49l-.21.19c-1.47,1.3-3.13,2.45-5.09,3.4l.42,2.56c2.32-1.04,4.27-2.33,5.96-3.77,4.51,1.77,9.09,2.19,14.33,1.32,2.76-.45,5.11-1.21,7.17-2.14l-.44-2.56c-2.02.99-4.35,1.78-7.15,2.24Z"/>
          </g>
          <g>
            <path class="cls-2" d="M794.82,219.99l.21-.19c.88-.8,1.68-1.64,2.44-2.51,0,0,.01-.02.02-.02.49-.56.97-1.14,1.44-1.73l.06-.07c.23-.29.46-.58.69-.88.01-.01.02-.03.03-.04.47-.61.95-1.24,1.43-1.88,1.55-2.06,3.13-4.14,4.98-6.07-3.72-1.23-7.54-1.45-11.86-.7-2.79.48-5.13,1.25-7.14,2.25l2.63,15.27c1.95-.96,3.6-2.13,5.06-3.43Z"/>
            <path class="cls-2" d="M798.15,220.25c3.72,1.23,7.54,1.45,11.86.7,2.79-.48,5.13-1.25,7.14-2.25l-2.63-15.27c-5.2,2.56-8.23,6.57-11.38,10.75-1.54,2.04-3.12,4.14-4.98,6.07Z"/>
            <path class="cls-4" d="M810.01,220.95c-4.32.75-8.14.52-11.86-.7,1.86-1.93,3.44-4.03,4.98-6.07,3.15-4.18,6.18-8.19,11.38-10.75l-.44-2.55c-2.31,1.05-4.24,2.35-5.93,3.81-4.51-1.75-9.08-2.14-14.31-1.24-2.75.47-5.1,1.22-7.15,2.15l.44,2.56c2.01-.99,4.35-1.76,7.14-2.25,4.32-.74,8.14-.52,11.86.7-1.85,1.92-3.43,4.01-4.98,6.07-.48.63-.95,1.26-1.43,1.88-.01.01-.02.03-.03.04-.23.29-.46.59-.69.88l-.06.07c-.47.59-.95,1.17-1.44,1.73,0,0-.01.02-.02.02-.77.87-1.57,1.71-2.44,2.51l-.21.19c-1.46,1.3-3.11,2.47-5.06,3.43l.44,2.56c2.31-1.05,4.24-2.35,5.93-3.81,4.51,1.75,9.08,2.14,14.31,1.24,2.75-.47,5.1-1.21,7.15-2.15l-.44-2.56c-2.01.99-4.35,1.76-7.14,2.25Z"/>
          </g>
          <g>
            <path class="cls-2" d="M822.2,215.27l.21-.19c.87-.8,1.68-1.64,2.44-2.52l.02-.02c.49-.57.97-1.15,1.44-1.74l.06-.07c.23-.29.46-.58.69-.88l.03-.04c.47-.62.94-1.24,1.42-1.88,1.55-2.07,3.12-4.16,4.96-6.09-3.72-1.21-7.54-1.42-11.85-.66-2.79.49-5.12,1.26-7.13,2.25l2.65,15.27c1.95-.96,3.6-2.13,5.06-3.43Z"/>
            <path class="cls-2" d="M825.53,215.52c3.72,1.21,7.54,1.42,11.86.66,2.79-.49,5.13-1.27,7.13-2.27l-2.69-15.27c-5.19,2.58-8.2,6.6-11.34,10.79-1.53,2.05-3.11,4.15-4.97,6.09Z"/>
            <path class="cls-4" d="M837.4,216.17c-4.32.76-8.14.56-11.86-.66,1.86-1.94,3.43-4.04,4.97-6.09,3.14-4.19,6.16-8.22,11.34-10.79l-.45-2.55c-2.3,1.06-4.23,2.37-5.91,3.83-4.52-1.73-9.08-2.11-14.3-1.19-2.75.48-5.09,1.22-7.14,2.16l.44,2.55c2.01-.99,4.34-1.76,7.13-2.25,4.32-.76,8.13-.55,11.85.66-1.85,1.93-3.41,4.02-4.96,6.09-.48.64-.95,1.26-1.42,1.88l-.03.04c-.23.3-.46.59-.69.88l-.06.07c-.47.59-.95,1.17-1.44,1.74l-.02.02c-.76.87-1.56,1.72-2.44,2.52l-.21.19c-1.46,1.3-3.11,2.47-5.06,3.43l.44,2.56c2.31-1.06,4.25-2.35,5.93-3.81,4.52,1.73,9.09,2.11,14.32,1.18,2.75-.48,5.1-1.23,7.15-2.18l-.45-2.56c-2.01,1-4.34,1.78-7.13,2.27Z"/>
          </g>
          <g>
            <path class="cls-2" d="M849.58,210.45l.21-.19c.87-.8,1.67-1.64,2.43-2.52l.02-.02c.49-.57.97-1.15,1.44-1.74l.06-.07c.23-.29.45-.58.68-.88l.03-.04c.47-.62.94-1.24,1.42-1.88,1.55-2.07,3.11-4.16,4.95-6.08-3.72-1.21-7.54-1.42-11.86-.66-2.79.49-5.12,1.27-7.13,2.27l2.69,15.26c1.95-.97,3.6-2.14,5.05-3.45Z"/>
            <path class="cls-2" d="M852.92,210.69c3.73,1.21,7.55,1.42,11.87.66,2.79-.5,5.12-1.28,7.13-2.28l-2.71-15.26c-5.19,2.59-8.19,6.62-11.33,10.8-1.53,2.05-3.1,4.15-4.96,6.09Z"/>
            <path class="cls-4" d="M864.79,211.35c-4.32.76-8.14.56-11.87-.66,1.85-1.94,3.43-4.04,4.96-6.09,3.14-4.19,6.14-8.21,11.33-10.8l-.45-2.55c-2.3,1.07-4.23,2.38-5.91,3.84-4.52-1.73-9.09-2.11-14.31-1.19-2.75.48-5.09,1.24-7.14,2.18l.45,2.55c2.01-1,4.34-1.78,7.13-2.27,4.32-.76,8.13-.55,11.86.66-1.84,1.93-3.41,4.02-4.95,6.08-.48.64-.95,1.26-1.42,1.88l-.03.04c-.23.3-.46.59-.68.88l-.06.07c-.47.59-.94,1.17-1.44,1.74l-.02.02c-.76.87-1.56,1.72-2.43,2.52l-.21.19c-1.46,1.31-3.1,2.48-5.05,3.45l.45,2.55c2.31-1.06,4.24-2.37,5.92-3.83,4.52,1.73,9.1,2.1,14.33,1.18,2.75-.49,5.1-1.24,7.14-2.19l-.45-2.56c-2.01,1-4.34,1.79-7.13,2.28Z"/>
          </g>
          <g>
            <path class="cls-2" d="M876.97,205.6l.21-.19c.87-.8,1.67-1.65,2.43-2.52,0,0,.01-.02.02-.02.49-.57.97-1.15,1.43-1.74.02-.02.04-.05.06-.07.23-.29.46-.59.68-.88,0-.01.02-.03.03-.04.47-.62.94-1.25,1.42-1.88,1.54-2.07,3.11-4.16,4.95-6.09-3.73-1.21-7.54-1.4-11.86-.64-2.79.5-5.12,1.28-7.13,2.28l2.72,15.26c1.95-.97,3.59-2.15,5.05-3.46Z"/>
            <path class="cls-2" d="M880.3,205.84c3.73,1.21,7.55,1.41,11.86.64,2.79-.5,5.12-1.28,7.13-2.28l-2.72-15.26c-5.19,2.59-8.19,6.62-11.32,10.81-1.53,2.05-3.1,4.15-4.95,6.09Z"/>
            <path class="cls-4" d="M892.16,206.47c-4.32.77-8.14.57-11.86-.64,1.85-1.94,3.42-4.04,4.95-6.09,3.13-4.2,6.14-8.23,11.32-10.81l-.45-2.55c-2.3,1.07-4.23,2.38-5.91,3.84-4.52-1.72-9.1-2.09-14.32-1.16-2.75.49-5.1,1.25-7.14,2.19l.45,2.55c2.01-1,4.34-1.79,7.13-2.28,4.32-.77,8.14-.57,11.86.64-1.84,1.93-3.4,4.03-4.95,6.09-.48.64-.94,1.27-1.42,1.88-.01.01-.02.03-.03.04-.23.3-.45.59-.68.88-.02.02-.04.05-.06.07-.47.59-.94,1.17-1.43,1.74,0,0-.01.02-.02.02-.76.88-1.56,1.72-2.43,2.52l-.21.19c-1.46,1.31-3.1,2.49-5.05,3.46l.45,2.55c2.3-1.07,4.23-2.38,5.91-3.84,4.52,1.72,9.1,2.09,14.32,1.16,2.75-.49,5.1-1.24,7.14-2.19l-.46-2.56c-2.01,1-4.34,1.79-7.13,2.28Z"/>
          </g>
          <g>
            <path class="cls-2" d="M904.33,200.73l.21-.19c.87-.8,1.67-1.65,2.43-2.52l.02-.02c.49-.57.97-1.15,1.43-1.74l.06-.07c.23-.29.45-.59.68-.88l.03-.04c.46-.62.93-1.25,1.41-1.89,1.53-2.07,3.08-4.17,4.89-6.12-3.72-1.16-7.48-1.37-11.8-.6-2.79.5-5.12,1.28-7.12,2.28l2.72,15.26c1.95-.97,3.59-2.15,5.05-3.46Z"/>
            <path class="cls-2" d="M907.66,200.97c3.73,1.2,7.6,1.39,11.95.56,2.81-.52,5.16-1.37,7.16-2.41l-3.02-15.2c-5.08,2.68-8.02,6.73-11.14,10.94-1.52,2.05-3.1,4.17-4.95,6.11Z"/>
            <path class="cls-4" d="M919.61,201.52c-4.35.83-8.22.64-11.95-.56,1.85-1.94,3.43-4.06,4.95-6.11,3.11-4.22,6.06-8.26,11.14-10.94l-.51-2.54c-2.25,1.1-4.13,2.45-5.77,3.92-4.52-1.67-9-2.03-14.22-1.1-2.75.49-5.09,1.25-7.14,2.19l.45,2.55c2.01-1,4.33-1.79,7.12-2.28,4.32-.77,8.08-.57,11.8.6-1.81,1.96-3.35,4.05-4.89,6.12-.48.64-.95,1.27-1.41,1.89l-.03.04c-.23.3-.46.59-.68.88l-.06.07c-.47.6-.94,1.17-1.43,1.74l-.02.02c-.76.88-1.56,1.72-2.43,2.52l-.21.19c-1.46,1.31-3.1,2.49-5.05,3.46l.45,2.55c2.31-1.07,4.23-2.38,5.91-3.84,4.5,1.72,9.16,2.08,14.43,1.08,2.78-.52,5.15-1.33,7.2-2.32l-.51-2.55c-2.01,1.04-4.35,1.89-7.16,2.41Z"/>
          </g>
          <g>
            <path class="cls-2" d="M931.78,195.52l.2-.2c.85-.83,1.63-1.69,2.37-2.59l.02-.02c.47-.59.93-1.18,1.38-1.79l.05-.07c.22-.3.43-.6.65-.91l.03-.04c.44-.63.89-1.28,1.34-1.93,1.46-2.12,2.92-4.28,4.64-6.3-3.74-1.02-7.51-1.09-11.75-.2-2.74.56-5.02,1.42-6.99,2.44l3.02,15.2c1.95-1.01,3.58-2.24,5.01-3.59Z"/>
            <path class="cls-2" d="M935.14,195.66c3.79,1.07,7.67,1.12,12.01.11,2.8-.63,5.12-1.59,7.09-2.71l-3.69-15.05c-4.93,2.89-7.7,7.04-10.66,11.38-1.45,2.1-2.95,4.27-4.75,6.28Z"/>
            <path class="cls-4" d="M947.15,195.77c-4.34,1.01-8.22.95-12.01-.11,1.8-2.01,3.3-4.18,4.75-6.28,2.96-4.34,5.73-8.49,10.66-11.38l-.62-2.52c-2.19,1.19-3.99,2.61-5.57,4.15-4.56-1.5-9.05-1.69-14.15-.62-2.69.55-4.98,1.38-6.98,2.35l.51,2.54c1.97-1.02,4.24-1.88,6.99-2.44,4.24-.9,8-.83,11.75.2-1.72,2.01-3.18,4.18-4.64,6.3-.45.65-.9,1.3-1.34,1.93l-.03.04c-.22.3-.44.61-.65.91l-.05.07c-.45.61-.9,1.21-1.38,1.79l-.02.02c-.74.9-1.52,1.76-2.37,2.59l-.2.2c-1.43,1.35-3.06,2.59-5.01,3.59l.51,2.54c2.32-1.11,4.23-2.49,5.89-4,4.62,1.58,9.29,1.76,14.55.55,2.77-.63,5.12-1.56,7.15-2.63l-.62-2.52c-1.97,1.12-4.29,2.08-7.09,2.71Z"/>
          </g>
          <g>
            <path class="cls-2" d="M959.11,189.23l.19-.21c.82-.86,1.56-1.76,2.25-2.71l.02-.03c.45-.61.87-1.23,1.29-1.86l.05-.08c.2-.31.4-.62.61-.94l.03-.04c.41-.66.82-1.32,1.24-2,1.35-2.18,2.68-4.45,4.28-6.54-3.78-.82-7.52-.7-11.68.41-2.7.68-4.92,1.64-6.83,2.75l3.69,15.05c1.91-1.1,3.49-2.41,4.86-3.82Z"/>
            <path class="cls-2" d="M962.48,189.2c1.93.44,3.87.62,5.86.54,1.99-.1,4.04-.46,6.2-1.07,2.78-.82,5.05-1.9,6.96-3.15l-4.62-14.79c-2.36,1.58-4.16,3.45-5.72,5.49-1.56,2.02-2.88,4.22-4.24,6.47-1.33,2.19-2.73,4.41-4.44,6.51Z"/>
            <path class="cls-4" d="M974.54,188.67c-2.15.61-4.2.97-6.2,1.07-2,.08-3.94-.1-5.86-.54,1.71-2.1,3.1-4.33,4.44-6.51,1.36-2.25,2.67-4.45,4.24-6.47,1.56-2.04,3.36-3.92,5.72-5.49l-.77-2.47c-2.09,1.32-3.8,2.82-5.27,4.46-2.31-.62-4.58-.93-6.89-.9-2.32.02-4.69.34-7.19,1.01-2.65.67-4.87,1.59-6.82,2.65l.62,2.52c1.91-1.12,4.13-2.07,6.83-2.75,4.16-1.1,7.9-1.22,11.68-.41-1.6,2.09-2.93,4.35-4.28,6.54-.42.68-.84,1.34-1.24,2l-.03.04c-.2.31-.41.63-.61.94l-.05.08c-.42.63-.84,1.25-1.29,1.86l-.02.03c-.69.95-1.43,1.84-2.25,2.71l-.19.21c-1.37,1.41-2.95,2.73-4.86,3.82l.62,2.52c2.28-1.22,4.14-2.7,5.73-4.27,4.7,1.35,9.41,1.28,14.65-.23,2.75-.82,5.06-1.86,7.03-3.07l-.77-2.48c-1.91,1.25-4.18,2.32-6.96,3.15Z"/>
          </g>
          <g>
            <path class="cls-2" d="M986.13,181.38l.18-.22c.76-.92,1.44-1.89,2.06-2.87l.02-.03c.4-.64.79-1.29,1.16-1.94l.05-.08c.18-.32.36-.65.54-.98l.02-.04c.36-.68.73-1.37,1.1-2.08,1.17-2.31,2.33-4.63,3.76-6.84-1.92-.28-3.79-.31-5.69-.1-1.9.21-3.85.62-5.87,1.32-2.62.88-4.77,1.93-6.58,3.19l4.62,14.79c1.85-1.24,3.35-2.64,4.63-4.14Z"/>
            <path class="cls-2" d="M989.51,181.11c3.93.62,7.83.14,12.06-1.46,2.72-1.07,4.93-2.28,6.73-3.75l-5.9-14.33c-4.37,3.56-6.52,8.04-8.91,12.71-1.16,2.3-2.4,4.61-3.97,6.82Z"/>
            <path class="cls-4" d="M1001.56,179.65c-4.22,1.59-8.13,2.08-12.06,1.46,1.57-2.22,2.81-4.52,3.97-6.82,2.39-4.67,4.54-9.15,8.91-12.71l-.99-2.4c-1.92,1.53-3.51,3.12-4.82,4.87-4.66-.86-9.06-.52-13.92,1.13-2.56.87-4.72,1.88-6.56,3.08l.77,2.48c1.81-1.26,3.97-2.3,6.58-3.19,2.02-.7,3.96-1.11,5.87-1.32,1.9-.22,3.78-.18,5.69.1-1.43,2.2-2.58,4.53-3.76,6.84-.37.7-.74,1.4-1.1,2.08l-.02.04c-.18.33-.36.65-.54.98l-.05.08c-.37.66-.76,1.31-1.16,1.94l-.02.03c-.63.98-1.3,1.95-2.06,2.87l-.18.22c-1.28,1.5-2.78,2.9-4.63,4.14l.77,2.48c2.21-1.39,4-2.96,5.49-4.65,2.4.49,4.79.64,7.22.44,2.42-.25,4.9-.81,7.47-1.8,2.7-1.06,4.96-2.25,6.82-3.68l-.99-2.4c-1.79,1.46-4.01,2.67-6.73,3.75Z"/>
          </g>
          <g>
            <path class="cls-2" d="M1012.56,171.35l.16-.24c.67-1,1.26-2.02,1.79-3.05v-.03c.36-.67.68-1.35.99-2.04l.04-.08c.15-.33.3-.68.44-1.03l.02-.05c.29-.72.58-1.45.87-2.2.93-2.42,1.86-4.79,2.99-7.18-1.9-.03-3.77.09-5.62.49-.93.19-1.85.46-2.79.78-.94.3-1.9.67-2.86,1.1-2.48,1.14-4.52,2.36-6.2,3.75l5.9,14.33c1.75-1.41,3.14-2.89,4.28-4.55Z"/>
            <path class="cls-2" d="M1015.92,170.75c2,.13,3.96-.06,5.94-.52.99-.23,1.98-.52,2.99-.88.99-.39,1.99-.84,3.01-1.36,2.64-1.32,4.68-2.9,6.32-4.54l-7.61-13.5c-1.93,2.02-3.28,4.21-4.42,6.47-1.12,2.29-1.99,4.71-2.94,7.13-.93,2.38-1.91,4.88-3.28,7.2Z"/>
            <path class="cls-4" d="M1027.85,167.99c-1.02.52-2.02.98-3.01,1.36-1,.36-2,.65-2.99.88-1.98.45-3.93.65-5.94.52,1.38-2.33,2.36-4.83,3.28-7.2.96-2.42,1.82-4.84,2.94-7.13,1.14-2.26,2.49-4.46,4.42-6.47l-1.27-2.26c-1.72,1.69-3.02,3.53-4.14,5.36-2.36-.19-4.57-.04-6.82.34-1.12.2-2.23.49-3.34.86-1.12.36-2.27.78-3.42,1.3-2.42,1.11-4.46,2.29-6.17,3.63l.99,2.4c1.68-1.39,3.72-2.61,6.2-3.75.97-.43,1.92-.8,2.86-1.1.94-.31,1.86-.58,2.79-.78,1.85-.4,3.73-.52,5.62-.49-1.13,2.39-2.06,4.76-2.99,7.18-.29.74-.59,1.48-.87,2.2l-.02.05c-.14.35-.29.69-.44,1.03l-.04.08c-.31.69-.63,1.37-.97,2.04v.03c-.55,1.04-1.14,2.05-1.81,3.05l-.16.24c-1.13,1.66-2.53,3.14-4.28,4.55l.99,2.4c2.11-1.58,3.77-3.29,5.1-5.16,2.45.26,4.88.21,7.29-.3,2.42-.48,4.86-1.33,7.33-2.63,2.63-1.32,4.72-2.89,6.45-4.5l-1.27-2.26c-1.64,1.64-3.68,3.22-6.32,4.54Z"/>
          </g>
          <g>
            <path class="cls-2" d="M1037.88,158.36l.13-.25c.55-1.08,1.02-2.13,1.39-3.26v-.03c.26-.72.48-1.45.69-2.18l.03-.09c.1-.36.19-.72.29-1.08v-.05c.2-.75.39-1.51.58-2.28.59-2.49,1.08-5.07,1.85-7.52-1.9.2-3.67.64-5.42,1.29-1.78.61-3.49,1.49-5.26,2.59-2.33,1.36-4.08,2.93-5.6,4.45l7.61,13.5c1.61-1.56,2.77-3.34,3.71-5.09Z"/>
            <path class="cls-2" d="M1041.16,157.31c1.99-.2,3.95-.64,5.87-1.37,1.89-.79,3.79-1.82,5.66-3.18,2.38-1.84,4.26-3.62,5.58-5.6l-9.81-12c-.38.58-.71,1.17-1.02,1.75-.32.57-.62,1.15-.88,1.73-.53,1.17-.95,2.37-1.31,3.59-.74,2.42-1.26,4.89-1.82,7.48-.56,2.51-1.24,5.04-2.27,7.61Z"/>
            <path class="cls-4" d="M1052.7,152.76c-1.88,1.36-3.77,2.39-5.66,3.18-1.92.74-3.87,1.18-5.87,1.37,1.03-2.57,1.71-5.1,2.27-7.61.56-2.59,1.08-5.06,1.82-7.48.36-1.22.78-2.42,1.31-3.59.27-.58.56-1.16.88-1.73.31-.58.65-1.17,1.02-1.75l-1.64-2.01c-.66.98-1.24,1.97-1.77,2.93-.52.98-.96,1.97-1.34,2.98-2.29.21-4.52.56-6.59,1.31-2.11.71-4.19,1.68-6.27,3.01-2.26,1.32-4.01,2.85-5.56,4.32l1.27,2.26c1.52-1.52,3.27-3.08,5.6-4.45,1.76-1.1,3.48-1.98,5.26-2.59,1.75-.65,3.52-1.09,5.42-1.29-.78,2.46-1.26,5.04-1.85,7.52-.19.77-.38,1.53-.56,2.28v.05c-.11.36-.21.72-.31,1.08l-.03.09c-.21.73-.43,1.46-.68,2.18v.03c-.39,1.13-.86,2.18-1.41,3.26l-.13.25c-.94,1.75-2.1,3.52-3.71,5.09l1.27,2.26c1.96-1.79,3.36-3.83,4.48-5.81,2.52-.03,4.88-.55,7.27-1.35,2.36-.84,4.66-2.13,6.98-3.77,2.38-1.84,4.32-3.63,5.74-5.61l-1.64-2.01c-1.32,1.98-3.2,3.77-5.58,5.6Z"/>
          </g>
          <g>
            <path class="cls-2" d="M1061.08,141.44l.08-.28c.34-1.17.59-2.33.78-3.48v-.03c.12-.75.23-1.48.28-2.25v-.09c.03-.37.06-.75.08-1.13v-.05c.03-.77.06-1.56.1-2.36.03-1.28.07-2.56.1-3.83.01-1.3.05-2.59.15-3.88-1.78.6-3.38,1.39-4.99,2.31-1.58.95-3.04,2.13-4.58,3.48-.99.88-1.81,1.8-2.58,2.67-.78.87-1.45,1.74-2.03,2.64l9.8,12c1.3-1.9,2.24-3.74,2.81-5.71Z"/>
            <path class="cls-2" d="M1064.14,139.78c3.89-1.14,7.37-3.38,10.5-6.91,1.05-1.1,1.83-2.31,2.56-3.43.7-1.14,1.31-2.22,1.75-3.34l-12.28-9.46c-.45,1.28-.83,2.5-1.06,3.76-.25,1.24-.35,2.54-.48,3.76-.23,2.47-.14,5.07-.21,7.68-.09,2.53-.18,5.25-.77,7.94Z"/>
            <path class="cls-4" d="M1074.64,132.86c-3.13,3.54-6.61,5.78-10.5,6.91.59-2.68.68-5.41.77-7.94.08-2.61-.02-5.21.21-7.68.13-1.23.23-2.52.48-3.76.23-1.26.61-2.48,1.06-3.76l-2.05-1.58c-.86,2.14-1.38,4.23-1.64,6.35-2.26.61-4.21,1.48-6.11,2.55-1.93,1.04-3.63,2.44-5.47,4.04-.95.85-1.75,1.74-2.52,2.58-.77.84-1.45,1.69-2.04,2.56l1.64,2.01c.58-.89,1.25-1.77,2.03-2.64.78-.87,1.6-1.79,2.58-2.67,1.54-1.35,3-2.53,4.58-3.48,1.61-.92,3.21-1.71,4.99-2.31-.1,1.28-.14,2.58-.15,3.88-.03,1.27-.07,2.56-.1,3.83-.03.8-.06,1.58-.09,2.36v.05c-.03.38-.05.75-.07,1.13v.09c-.06.77-.16,1.5-.28,2.25v.03c-.19,1.15-.44,2.31-.79,3.48l-.08.28c-.57,1.97-1.51,3.81-2.81,5.71l1.64,2.01c.81-1.09,1.5-2.18,2.08-3.27.58-1.08,1.01-2.23,1.38-3.32,1.23-.28,2.43-.64,3.6-1.08,1.15-.47,2.26-1.06,3.36-1.72,2.22-1.29,4.22-3.09,6.17-5.25,1.05-1.11,1.86-2.33,2.61-3.46.73-1.15,1.39-2.25,1.87-3.38l-2.06-1.58c-.43,1.12-1.05,2.2-1.75,3.34-.72,1.12-1.51,2.32-2.56,3.43Z"/>
          </g>
          <g>
            <path class="cls-2" d="M1080.39,119.83v-.29c.06-1.24.02-2.43-.09-3.6v-.03c-.07-.76-.17-1.51-.28-2.25v-.09c-.07-.37-.12-.72-.2-1.1v-.05c-.17-.77-.34-1.54-.53-2.32-.6-2.51-1.19-4.97-1.74-7.46-.79.5-1.47,1.04-2.19,1.6-.72.56-1.39,1.17-2.02,1.82-.64.65-1.2,1.36-1.8,2.09-.61.72-1.18,1.5-1.73,2.34-.35.54-.68,1.08-.97,1.61-.31.52-.62,1.02-.88,1.53-.53,1.01-.96,2.01-1.3,3.01l12.28,9.45c.84-2.18,1.3-4.24,1.45-6.26Z"/>
            <path class="cls-2" d="M1082.94,117.43c.88-.52,1.76-1.08,2.54-1.74.78-.66,1.52-1.38,2.22-2.17.7-.79,1.4-1.61,2.02-2.55.61-.96,1.21-1.97,1.74-3.06,1.34-2.84,2.07-5.46,2.28-7.89l-14.5-5.47c-.27,5.29,1.31,9.84,2.49,14.97.58,2.49,1.17,5.16,1.21,7.91Z"/>
            <path class="cls-4" d="M1091.46,107.91c-.53,1.09-1.13,2.11-1.74,3.06-.62.94-1.32,1.76-2.02,2.55-.71.78-1.45,1.5-2.22,2.17-.78.66-1.66,1.21-2.54,1.74-.04-2.75-.64-5.42-1.21-7.91-1.17-5.12-2.75-9.68-2.49-14.97l-2.43-.92c-.15,2.25-.02,4.35.28,6.4-.94.6-1.86,1.19-2.71,1.83-.82.64-1.66,1.32-2.44,2.07-.78.74-1.5,1.54-2.17,2.42-.71.85-1.41,1.75-2.05,2.74-.34.52-.65,1.04-.94,1.55-.3.5-.6.99-.86,1.48-.53.98-.96,1.95-1.32,2.92l2.05,1.58c.34-1,.76-2,1.3-3.01.26-.51.57-1.01.88-1.53.29-.53.62-1.07.97-1.61.55-.84,1.12-1.62,1.73-2.34.6-.73,1.16-1.44,1.8-2.09.63-.65,1.3-1.25,2.02-1.82.73-.56,1.41-1.1,2.19-1.6.55,2.49,1.13,4.95,1.74,7.46.18.77.36,1.54.52,2.32v.05c.09.38.14.73.2,1.1v.09c.13.74.22,1.49.29,2.25v.03c.11,1.17.15,2.37.1,3.6v.29c-.16,2.02-.63,4.08-1.46,6.26l2.06,1.58c.54-1.28.96-2.53,1.28-3.74.32-1.21.53-2.39.6-3.58,2.23-1.18,4.37-2.6,6.1-4.51.89-.94,1.74-1.96,2.54-3.07.78-1.14,1.52-2.42,2.18-3.77,1.36-2.87,2.15-5.56,2.46-8.06l-2.43-.92c-.22,2.42-.94,5.05-2.28,7.89Z"/>
          </g>
          <g>
            <path class="cls-2" d="M1093.3,93.55l-.07-.29c-.32-1.2-.7-2.32-1.16-3.41v-.03c-.32-.71-.65-1.39-1-2.07l-.04-.08c-.17-.33-.35-.66-.52-.99l-.02-.04c-.36-.68-.79-1.36-1.19-2.03-1.32-2.19-2.76-4.32-4.03-6.53-2.3,2.92-3.79,5.99-4.86,9.8-.35,1.23-.6,2.39-.8,3.49-.17,1.12-.3,2.17-.35,3.19l14.5,5.47c.24-2.34,0-4.5-.45-6.48Z"/>
            <path class="cls-2" d="M1095.03,90.46c2.73-3.09,4.43-6.98,5.07-11.76.42-3.09.23-5.81-.28-8.18l-15.49-.68c1.38,5.1,4.28,8.97,7.08,13.46.66,1.09,1.33,2.22,1.96,3.41.61,1.19,1.16,2.43,1.65,3.75Z"/>
            <path class="cls-4" d="M1100.1,78.7c-.63,4.78-2.34,8.67-5.07,11.76-.49-1.32-1.04-2.57-1.65-3.75-.63-1.19-1.3-2.32-1.96-3.41-2.8-4.48-5.71-8.35-7.08-13.46l-2.59-.11c.54,2.18,1.32,4.15,2.26,6.01-2.93,3.47-4.76,6.99-6.02,11.45-.33,1.17-.58,2.29-.78,3.36-.18,1.08-.32,2.1-.39,3.1l2.43.92c.05-1.03.18-2.08.35-3.19.2-1.1.46-2.26.8-3.49,1.07-3.8,2.56-6.88,4.86-9.8,1.26,2.21,2.7,4.34,4.03,6.53.41.67.83,1.36,1.19,2.03l.02.04c.18.33.35.66.52.99l.04.08c.35.68.68,1.36.99,2.07v.03c.47,1.09.85,2.21,1.17,3.41l.07.29c.46,1.98.69,4.14.45,6.48l2.43.92c.19-1.4.25-2.73.17-4.01-.06-1.27-.22-2.48-.49-3.64,3.65-3.62,5.95-8.33,6.73-14.26.42-3.12.28-5.92-.16-8.39l-2.59-.11c.51,2.37.7,5.09.28,8.18Z"/>
          </g>
          <g>
            <path class="cls-2" d="M1097.35,64.49l-.16-.25c-.64-1.04-1.41-2-2.19-2.89l-.02-.02c-.51-.57-1.01-1.12-1.58-1.65l-.07-.06c-.27-.25-.55-.51-.83-.77l-.04-.03c-.58-.52-1.17-1.03-1.77-1.54-1-.79-2.01-1.59-3-2.38-.99-.78-2.02-1.55-2.97-2.36-1.15,3.45-1.6,6.76-1.4,10.65.07,1.26.15,2.43.35,3.53.14,1.11.39,2.14.66,3.13l15.48.68c-.54-2.31-1.37-4.29-2.47-6.04Z"/>
            <path class="cls-2" d="M1098.02,60.98c1.59-3.83,1.96-8.16.86-13-.19-.78-.39-1.53-.61-2.24-.23-.71-.51-1.39-.78-2.04-.53-1.3-1.21-2.45-1.91-3.49l-14.6,5.2c3.13,4.01,7.17,6.61,11.29,9.92,1.01.81,2.02,1.66,2.97,2.6.96.93,1.93,1.94,2.77,3.05Z"/>
            <path class="cls-4" d="M1098.88,47.99c1.1,4.84.73,9.16-.86,13-.84-1.11-1.81-2.12-2.77-3.05-.95-.93-1.96-1.79-2.97-2.6-4.12-3.31-8.16-5.91-11.29-9.92l-2.44.87c.64.85,1.34,1.63,2.02,2.39.71.75,1.45,1.46,2.19,2.15-1.56,4.15-2.15,7.92-1.92,12.46.07,1.19.14,2.32.32,3.39.12,1.07.35,2.08.59,3.05l2.59.11c-.27-.99-.52-2.03-.66-3.13-.2-1.1-.28-2.28-.35-3.53-.2-3.89.25-7.2,1.4-10.65.95.81,1.98,1.58,2.97,2.36.99.79,2,1.59,3,2.38.6.5,1.19,1.02,1.77,1.54l.04.03c.28.26.56.51.83.77l.07.06c.57.53,1.06,1.08,1.58,1.65l.02.02c.78.89,1.55,1.84,2.19,2.89l.16.25c1.09,1.75,1.93,3.73,2.47,6.04l2.59.11c-.27-1.39-.66-2.68-1.09-3.88-.47-1.2-1.02-2.3-1.62-3.33,2.31-4.63,3-9.95,1.61-16-.19-.79-.39-1.56-.61-2.29-.23-.73-.51-1.44-.78-2.11-.53-1.35-1.2-2.57-1.89-3.68l-2.45.87c.7,1.04,1.38,2.19,1.91,3.49.27.65.55,1.32.78,2.04.22.71.42,1.46.61,2.24Z"/>
          </g>
          <g>
            <path class="cls-2" d="M1090.89,35.44l-.25-.17c-1.02-.72-2.11-1.3-3.21-1.78h-.03c-.71-.33-1.4-.62-2.14-.86l-.09-.03c-.36-.11-.72-.22-1.09-.33h-.05c-.75-.23-1.51-.43-2.26-.61-1.26-.27-2.52-.49-3.73-.72-1.24-.2-2.49-.37-3.67-.59.55,3.49,1.52,6.41,3.21,9.66,1.05,2.12,2.2,3.86,3.41,5.42l14.6-5.2c-.65-1.02-1.45-1.9-2.22-2.69-.76-.8-1.61-1.48-2.47-2.08Z"/>
            <path class="cls-2" d="M1090,31.88c-.24-4.26-1.99-8.53-5.51-12.4-2.25-2.52-4.74-4.16-7.08-5.25l-9.6,12.17c4.56,1.59,9.27,1.74,14.48,2.82,1.27.26,2.58.58,3.84,1.02,1.29.43,2.61.95,3.86,1.64Z"/>
            <path class="cls-4" d="M1084.49,19.48c3.52,3.87,5.27,8.15,5.51,12.4-1.25-.69-2.57-1.21-3.86-1.64-1.27-.44-2.58-.76-3.84-1.02-5.21-1.07-9.92-1.23-14.48-2.82l-1.6,2.04c1.87.68,3.75,1.11,5.67,1.48.56,4.23,1.53,7.53,3.47,11.22.98,1.97,2.06,3.63,3.19,5.15l2.44-.87c-1.21-1.56-2.35-3.3-3.41-5.42-1.69-3.25-2.66-6.18-3.21-9.66,1.18.22,2.43.39,3.67.59,1.21.23,2.47.45,3.73.72.75.18,1.51.38,2.26.6h.05c.37.13.73.24,1.09.35l.09.03c.74.24,1.43.53,2.14.85h.03c1.1.5,2.19,1.08,3.21,1.8l.25.17c.86.6,1.71,1.28,2.47,2.08.77.79,1.56,1.68,2.22,2.69l2.44-.87c-1.57-2.5-3.46-4.41-5.43-5.86.15-5.33-1.78-10.8-6.26-15.69-2.31-2.6-4.89-4.37-7.32-5.61l-1.61,2.04c2.34,1.09,4.83,2.73,7.08,5.25Z"/>
          </g>
          <g>
            <path class="cls-2" d="M1070.73,12.69h-.3c-1.26-.07-2.51.1-3.69.29h-.03c-.76.13-1.51.29-2.26.52l-.09.03c-.36.11-.72.22-1.08.33l-.05.02c-.75.25-1.46.48-2.2.79-1.2.5-2.34.99-3.47,1.53-1.14.55-2.26,1.09-3.35,1.62,2.45,2.55,4.88,4.38,8,6.08,1.02.54,1.93,1.07,2.89,1.44.89.46,1.83.76,2.71,1.08l9.59-12.17c-2.32-1.01-4.55-1.49-6.68-1.55Z"/>
            <path class="cls-2" d="M1067.96,10.2c-2.63-3.41-6.58-5.93-11.66-7.1-.82-.21-1.62-.34-2.39-.42-.78-.09-1.53-.17-2.25-.18-1.46.02-2.81.05-4.07.32l-1.11,15.46c1.21-.34,2.34-.7,3.46-1.18,1.1-.4,2.21-.98,3.29-1.47,2.19-1.06,4.4-2.25,6.84-3.28,2.38-1,5-1.86,7.89-2.15Z"/>
            <path class="cls-4" d="M1056.3,3.1c5.08,1.16,9.03,3.68,11.66,7.1-2.9.29-5.51,1.15-7.89,2.15-2.44,1.03-4.65,2.22-6.84,3.28-1.08.5-2.19,1.07-3.29,1.47-1.12.48-2.25.83-3.46,1.18l-.19,2.59c1.01-.28,1.94-.52,2.89-.9.93-.32,1.83-.68,2.74-1.11,2.91,3.17,5.55,5.31,9.08,7.22.94.49,1.78.99,2.68,1.33.83.43,1.7.72,2.53,1.03l1.61-2.04c-.89-.31-1.82-.62-2.71-1.08-.96-.37-1.87-.9-2.89-1.44-3.13-1.71-5.56-3.53-8-6.08,1.09-.53,2.21-1.07,3.35-1.62,1.13-.54,2.27-1.03,3.47-1.53.74-.32,1.46-.54,2.2-.79l.05-.02c.36-.11.73-.22,1.08-.33l.09-.03c.75-.23,1.49-.38,2.26-.51h.03c1.18-.19,2.43-.36,3.69-.3h.3c2.13.06,4.36.54,6.68,1.55l1.61-2.04c-1.38-.69-2.78-1.14-4.09-1.52-1.35-.31-2.65-.49-3.88-.58-2.91-4.58-7.78-7.95-14.19-9.43-.84-.21-1.67-.35-2.47-.44-.8-.1-1.58-.19-2.34-.22-1.52,0-2.94,0-4.27.23l-.19,2.59c1.26-.27,2.61-.3,4.07-.32.73.02,1.48.1,2.25.18.78.08,1.58.21,2.39.42Z"/>
          </g>
          <g>
            <path class="cls-2" d="M1041.29,5.22l-.25.16c-1.06.7-2.02,1.4-2.9,2.24l-.02.02c-.57.53-1.11,1.08-1.62,1.63l-.06.07c-.25.27-.5.56-.74.85l-.03.04c-.5.61-.99,1.22-1.47,1.84-1.55,2.04-2.95,4.16-4.46,6.17,3.52,1,6.78,1.26,10.48,1.01,1.2-.06,2.3-.22,3.33-.36,1.04-.19,2.01-.36,2.94-.63l1.11-15.46c-2.45.44-4.52,1.31-6.3,2.4Z"/>
            <path class="cls-2" d="M1037.68,4.63c-3.97-1.49-8.4-1.62-13.15-.31-1.53.43-2.92.94-4.15,1.55-1.25.58-2.34,1.27-3.33,1.98l5.58,14.46c4.09-3.3,6.42-7.47,9.55-11.74.76-1.06,1.58-2.07,2.49-3.08.9-1.03,1.9-1.97,3.01-2.88Z"/>
            <path class="cls-4" d="M1024.54,4.33c4.74-1.32,9.18-1.18,13.15.31-1.11.91-2.11,1.85-3.01,2.88-.9,1.01-1.73,2.02-2.49,3.08-3.14,4.27-5.46,8.44-9.55,11.74l.93,2.42c.88-.68,1.68-1.42,2.44-2.14.75-.75,1.44-1.52,2.11-2.29,4.27,1.37,8.02,1.74,12.26,1.45,1.12-.06,2.16-.2,3.13-.33.98-.18,1.9-.33,2.79-.57l.19-2.59c-.93.27-1.9.44-2.94.63-1.03.14-2.14.3-3.33.36-3.7.24-6.96-.01-10.48-1.01,1.51-2.02,2.91-4.13,4.46-6.17.48-.62.96-1.24,1.47-1.84l.03-.04c.24-.29.49-.58.74-.85l.06-.07c.52-.56,1.06-1.1,1.62-1.63l.02-.02c.88-.84,1.84-1.54,2.9-2.24l.25-.16c1.78-1.09,3.85-1.96,6.3-2.4l.19-2.59c-1.5.23-2.88.55-4.14,1.03-.63.23-1.24.47-1.82.74-.57.29-1.12.59-1.65.9-4.83-2.24-10.39-2.65-16.3-.98-1.56.44-2.98.95-4.26,1.56-1.3.58-2.44,1.27-3.49,1.97l.93,2.42c.99-.71,2.08-1.41,3.33-1.98,1.24-.61,2.62-1.12,4.15-1.55Z"/>
          </g>
          <g>
            <path class="cls-2" d="M1012.51,12.54l-.16.24c-.69,1.01-1.26,2.07-1.76,3.15v.03c-.34.7-.64,1.38-.91,2.1l-.03.09c-.13.35-.25.7-.38,1.06l-.02.05c-.25.74-.5,1.48-.73,2.23-.74,2.47-1.39,4.94-2.23,7.37,3.72-.24,7.05-1.17,10.6-2.93,2.3-1.11,4.15-2.31,5.73-3.6l-5.58-14.46c-1.91,1.4-3.38,2.98-4.54,4.67Z"/>
            <path class="cls-2" d="M1009.06,13.31c-4.12.04-8.14,1.33-12.09,3.98-2.56,1.71-4.47,3.58-5.9,5.5l9.52,12.23c3.07-4.43,4.06-9.18,5.54-14.24.36-1.24.76-2.49,1.24-3.73.47-1.25,1.01-2.52,1.69-3.73Z"/>
            <path class="cls-4" d="M996.96,17.28c3.96-2.65,7.97-3.94,12.09-3.98-.68,1.21-1.22,2.48-1.69,3.73-.48,1.24-.87,2.5-1.24,3.73-1.49,5.06-2.48,9.81-5.54,14.24l1.59,2.05c1.35-1.87,2.36-3.78,3.17-5.71,4.58-.11,8.49-1.12,12.64-3.18,2.2-1.06,4-2.21,5.57-3.42l-.93-2.42c-1.59,1.28-3.43,2.48-5.73,3.6-3.55,1.75-6.88,2.69-10.6,2.93.84-2.43,1.48-4.9,2.23-7.37.23-.75.48-1.49.73-2.23l.02-.05c.13-.36.25-.71.38-1.06l.03-.09c.27-.72.57-1.4.89-2.1v-.03c.51-1.07,1.08-2.14,1.78-3.15l.16-.24c1.16-1.69,2.63-3.27,4.54-4.67l-.93-2.42c-2.36,1.6-4.13,3.44-5.51,5.36-5.14-.3-10.15,1.12-15.04,4.4-2.58,1.72-4.56,3.61-6.1,5.53l1.59,2.05c1.43-1.91,3.33-3.79,5.9-5.5Z"/>
          </g>
          <g>
            <path class="cls-2" d="M988.1,28.49l-.09.28c-.38,1.16-.64,2.32-.82,3.49v.03c-.13.75-.22,1.5-.3,2.26v.09c-.04.37-.06.75-.09,1.12v.05c-.05.78-.08,1.56-.11,2.35-.07,2.57-.05,5.13-.22,7.7,3.53-1.2,6.52-3,9.51-5.69,1.95-1.72,3.42-3.43,4.61-5.15l-9.52-12.23c-1.39,1.87-2.34,3.77-2.97,5.7Z"/>
            <path class="cls-2" d="M985.01,30.14c-3.92,1.11-7.46,3.4-10.56,6.97-.98,1.14-1.82,2.27-2.53,3.37-.7,1.11-1.24,2.24-1.7,3.32l12.19,9.58c.95-2.59,1.42-5.06,1.6-7.59.18-2.53.12-5.06.19-7.69.02-1.29.08-2.6.2-3.92.12-1.33.3-2.68.61-4.03Z"/>
            <path class="cls-4" d="M974.46,37.11c3.1-3.57,6.64-5.85,10.56-6.97-.31,1.35-.5,2.7-.61,4.03-.13,1.32-.18,2.63-.2,3.92-.06,2.63,0,5.16-.19,7.69-.18,2.54-.65,5-1.6,7.59l2.04,1.6c.46-1.09.79-2.19,1.08-3.25.3-1.06.51-2.12.66-3.18,4.43-1.36,7.92-3.32,11.45-6.52,1.87-1.65,3.33-3.31,4.54-4.96l-1.59-2.05c-1.19,1.72-2.66,3.43-4.61,5.15-2.99,2.69-5.97,4.49-9.51,5.69.17-2.56.15-5.12.22-7.7.03-.79.06-1.57.11-2.35v-.05c.03-.38.06-.75.08-1.12v-.09c.08-.75.18-1.5.3-2.26v-.03c.19-1.17.45-2.33.83-3.49l.09-.28c.63-1.94,1.58-3.84,2.97-5.7l-1.59-2.05c-1.73,2.16-2.89,4.39-3.67,6.6-4.96,1.07-9.41,3.71-13.24,8.13-.98,1.15-1.83,2.27-2.58,3.38-.73,1.12-1.31,2.25-1.82,3.34l2.04,1.6c.46-1.08,1-2.2,1.7-3.32.71-1.1,1.55-2.23,2.53-3.37Z"/>
          </g>
          <g>
            <path class="cls-2" d="M968.72,49.98l-.02.29c-.1,1.2-.1,2.38,0,3.57v.03c.06.76.14,1.52.24,2.27v.09c.06.37.12.73.17,1.11v.05c.13.77.24,1.52.41,2.31.52,2.55,1.02,5.03,1.39,7.61,1.58-.98,3.11-2.04,4.4-3.34,1.32-1.28,2.6-2.71,3.73-4.41,1.58-2.13,2.58-4.21,3.37-6.18l-12.19-9.57c-.91,2.09-1.32,4.18-1.5,6.18Z"/>
            <path class="cls-2" d="M966.11,52.26c-1.75.99-3.43,2.16-4.85,3.67-1.45,1.49-2.79,3.22-3.91,5.28-1.52,2.62-2.33,5.16-2.8,7.47l13.95,6.76c.43-2.68.27-5.22-.02-7.71-.16-1.25-.41-2.51-.66-3.76-.25-1.24-.5-2.51-.75-3.8-.53-2.54-.92-5.14-.96-7.91Z"/>
            <path class="cls-4" d="M957.36,61.22c1.12-2.07,2.46-3.79,3.91-5.28,1.42-1.51,3.1-2.68,4.85-3.67.05,2.77.44,5.37.96,7.91.25,1.29.51,2.56.75,3.8.25,1.25.5,2.51.66,3.76.3,2.48.46,5.03.02,7.71l2.33,1.13c.45-2.28.43-4.49.34-6.59,1.02-.55,1.97-1.14,2.85-1.78.91-.63,1.78-1.3,2.59-2.04,1.58-1.5,3.12-3.15,4.46-5.17,1.53-2.06,2.53-4.09,3.37-6.01l-2.04-1.6c-.79,1.96-1.8,4.04-3.37,6.18-1.13,1.71-2.41,3.13-3.73,4.41-1.3,1.3-2.82,2.35-4.4,3.34-.37-2.58-.87-5.05-1.39-7.61-.16-.79-.27-1.54-.4-2.31v-.05c-.06-.37-.11-.74-.17-1.11v-.09c-.11-.75-.19-1.51-.25-2.27v-.03c-.1-1.19-.1-2.36,0-3.57l.02-.29c.18-2,.59-4.09,1.5-6.18l-2.04-1.6c-1.16,2.45-1.68,4.89-1.95,7.17-2.29,1.06-4.31,2.48-6.19,4.21-1.79,1.79-3.49,3.86-4.87,6.41-1.53,2.63-2.4,5.21-2.95,7.56l2.34,1.13c.47-2.31,1.27-4.85,2.8-7.47Z"/>
          </g>
          <g>
            <path class="cls-2" d="M954.41,75.09l.04.29c.2,1.22.48,2.38.82,3.51v.03c.23.73.47,1.44.73,2.15l.03.09c.13.35.25.69.41,1.04l.02.05c.31.73.63,1.45.95,2.17.53,1.16,1.06,2.33,1.59,3.49.54,1.16,1.1,2.34,1.57,3.53.67-.66,1.28-1.33,1.83-2.04.58-.7,1.14-1.42,1.63-2.18.51-.76.93-1.57,1.37-2.41.45-.84.86-1.72,1.23-2.66.46-1.22.89-2.36,1.2-3.47.32-1.1.5-2.19.67-3.23l-13.95-6.75c-.41,2.27-.38,4.41-.15,6.4Z"/>
            <path class="cls-2" d="M952.39,77.93c-.76.68-1.5,1.4-2.13,2.2-.63.8-1.22,1.65-1.76,2.55-1.13,1.79-1.9,3.87-2.56,6.15-.45,1.47-.62,2.92-.77,4.25-.14,1.34-.18,2.6-.05,3.81l15.23,2.88c-.22-1.34-.41-2.58-.77-3.8-.33-1.21-.82-2.41-1.25-3.56-.45-1.16-.98-2.3-1.53-3.46-.28-.58-.56-1.16-.85-1.75-.27-.58-.54-1.17-.81-1.76-1.05-2.32-2.14-4.82-2.74-7.5Z"/>
            <path class="cls-4" d="M945.93,88.83c.66-2.29,1.43-4.37,2.56-6.15.54-.9,1.13-1.75,1.76-2.55.63-.8,1.38-1.51,2.13-2.2.6,2.68,1.69,5.18,2.74,7.5.27.59.54,1.18.81,1.76.29.59.57,1.17.85,1.75.55,1.16,1.08,2.3,1.53,3.46.43,1.15.93,2.35,1.25,3.56.36,1.22.55,2.47.77,3.8l2.55.48c-.16-1.14-.29-2.22-.52-3.27-.23-1.05-.54-2.07-.89-3.07,3.46-3.06,5.63-6.43,7.48-10.84.44-1.17.86-2.28,1.18-3.36.33-1.08.52-2.14.71-3.15l-2.33-1.13c-.17,1.03-.35,2.12-.67,3.23-.32,1.11-.75,2.25-1.2,3.47-.37.94-.78,1.82-1.23,2.66-.44.84-.86,1.65-1.37,2.41-.49.76-1.05,1.49-1.63,2.18-.55.71-1.16,1.38-1.83,2.04-.47-1.19-1.03-2.36-1.57-3.53-.53-1.16-1.06-2.33-1.59-3.49-.33-.72-.65-1.44-.95-2.17l-.02-.05c-.15-.35-.28-.69-.41-1.04l-.03-.09c-.26-.71-.5-1.42-.72-2.15v-.03c-.35-1.13-.63-2.29-.83-3.51l-.04-.29c-.23-1.99-.26-4.12.15-6.4l-2.33-1.13c-.56,2.7-.64,5.19-.37,7.5-1.95,1.59-3.74,3.4-5.08,5.61-.68,1.09-1.34,2.25-1.88,3.5-.52,1.26-.98,2.6-1.38,4.02-.45,1.48-.64,2.95-.81,4.31-.16,1.37-.24,2.67-.14,3.92l2.55.48c-.13-1.21-.09-2.47.05-3.81.16-1.33.32-2.78.77-4.25Z"/>
          </g>
          <g>
            <path class="cls-2" d="M946.67,103.18l.12.27c.51,1.13,1.08,2.17,1.7,3.16l.02.03c.39.64.87,1.27,1.33,1.88l.06.08c.23.29.46.59.7.89l.03.04c.49.61.99,1.21,1.5,1.8.81.97,1.69,1.91,2.57,2.86.87.95,1.71,1.9,2.5,2.87.94-1.63,1.55-3.26,2.07-4.97.28-.86.49-1.74.66-2.65.08-.46.15-.92.2-1.39.08-.47.16-.95.21-1.44.16-1.27.17-2.46.18-3.59.03-1.13-.04-2.2-.18-3.23l-15.23-2.88c.23,2.35.7,4.4,1.56,6.28Z"/>
            <path class="cls-2" d="M945.46,106.51c-1.06,1.76-1.83,3.67-2.4,5.74-.23,1.04-.39,2.12-.5,3.25-.09,1.12-.2,2.29-.09,3.5.22,3.12.7,5.79,1.73,8.01l15.37-2.03c-2.29-4.78-5.78-8.06-9.34-12.01-1.69-1.92-3.35-4.01-4.78-6.46Z"/>
            <path class="cls-4" d="M942.48,119c-.11-1.21,0-2.37.09-3.5.11-1.12.27-2.21.5-3.25.57-2.07,1.34-3.98,2.4-5.74,1.42,2.45,3.08,4.54,4.78,6.46,3.56,3.95,7.05,7.23,9.34,12.01l2.57-.34c-1.01-2.05-1.99-3.85-3.28-5.52,1.04-1.95,2.07-3.87,2.63-5.86.3-1,.63-2.02.83-3.08.1-.53.19-1.07.26-1.62.07-.55.18-1.11.24-1.69.16-1.21.17-2.36.18-3.46.04-1.09-.01-2.14-.13-3.15l-2.55-.48c.14,1.03.21,2.1.18,3.23,0,1.13-.02,2.32-.18,3.59-.06.49-.13.97-.21,1.44-.06.47-.12.94-.2,1.39-.16.91-.38,1.79-.66,2.65-.52,1.71-1.13,3.34-2.07,4.97-.79-.98-1.63-1.93-2.5-2.87-.88-.95-1.76-1.89-2.57-2.86-.51-.6-1.01-1.19-1.5-1.8l-.03-.04c-.23-.3-.47-.59-.7-.89l-.06-.08c-.46-.61-.94-1.24-1.33-1.88l-.02-.03c-.62-.99-1.19-2.04-1.7-3.16l-.12-.27c-.87-1.89-1.34-3.94-1.56-6.28l-2.55-.48c.08,1.4.26,2.72.51,3.95.26,1.24.69,2.41,1.13,3.5-3.05,4.17-4.43,9.23-4.22,15.24.22,3.16.67,5.91,1.66,8.24l2.57-.34c-1.03-2.23-1.51-4.89-1.73-8.01Z"/>
          </g>
          <g>
            <path class="cls-2" d="M947.67,132.51l.2.22c.84.91,1.72,1.72,2.62,2.46l.03.02c.58.48,1.17.94,1.83,1.36l.08.05c.31.2.63.41.95.62l.04.03c.66.42,1.34.83,2.01,1.23,1.1.64,2.2,1.29,3.29,1.93,1.14.63,2.26,1.27,3.34,1.95.33-1.84.39-3.59.39-5.41-.04-1.8-.38-3.61-.73-5.55-.26-1.25-.62-2.39-.99-3.45-.32-1.07-.71-2.06-1.16-2.98l-15.36,2.03c.93,2.17,2.03,3.99,3.46,5.5Z"/>
            <path class="cls-2" d="M947.59,136.05c-.91,4-.62,8.23,1.04,12.72.48,1.47,1.17,2.74,1.84,3.91.68,1.16,1.38,2.21,2.14,3.14l14.09-6.46c-.88-1.01-1.81-1.89-2.81-2.68-.99-.79-2.08-1.49-3.09-2.17-2.05-1.36-4.41-2.5-6.65-3.83-2.16-1.31-4.52-2.72-6.56-4.61Z"/>
            <path class="cls-4" d="M948.63,148.77c-1.67-4.48-1.96-8.71-1.04-12.72,2.05,1.89,4.41,3.3,6.56,4.61,2.24,1.33,4.59,2.47,6.65,3.83,1.01.69,2.1,1.38,3.09,2.17,1,.79,1.93,1.67,2.81,2.68l2.36-1.08c-1.44-1.76-3.09-3.16-4.81-4.38.56-2.26.7-4.35.7-6.48.01-1.07-.05-2.13-.2-3.21-.18-1.07-.33-2.18-.56-3.31-.24-1.19-.59-2.29-.94-3.32-.3-1.04-.66-2-1.08-2.92l-2.57.34c.45.93.84,1.91,1.16,2.98.37,1.06.73,2.2.99,3.45.35,1.94.7,3.75.73,5.55,0,1.82-.07,3.57-.39,5.41-1.08-.69-2.2-1.33-3.34-1.95-1.09-.64-2.2-1.29-3.29-1.93-.68-.4-1.35-.81-2.01-1.23l-.04-.03c-.32-.21-.64-.41-.95-.62l-.08-.05c-.66-.42-1.25-.88-1.83-1.36l-.03-.02c-.9-.75-1.78-1.56-2.62-2.46l-.2-.22c-1.43-1.51-2.53-3.32-3.46-5.5l-2.57.34c.51,1.32,1.09,2.52,1.71,3.62.66,1.09,1.43,2.07,2.2,2.97-.38,1.23-.66,2.48-.85,3.76-.13,1.26-.16,2.54-.11,3.85.08,1.3.15,2.67.49,3.99.31,1.34.71,2.7,1.21,4.1.49,1.49,1.18,2.78,1.84,3.98.68,1.2,1.38,2.29,2.12,3.27l2.36-1.08c-.75-.93-1.46-1.97-2.14-3.14-.66-1.17-1.36-2.43-1.84-3.91Z"/>
          </g>
          <g>
            <path class="cls-2" d="M957.49,160.01l.24.15c1.06.62,2.16,1.13,3.24,1.58h.03c.71.3,1.42.57,2.13.81l.09.03c.35.11.7.23,1.06.35h.05c.72.25,1.5.45,2.27.65,2.53.64,4.96,1.25,7.44,2.02-.32-3.76-1.43-7.07-3.36-10.61-.67-1.12-1.25-2.17-1.91-3.11-.65-.94-1.35-1.78-2.08-2.54l-14.09,6.46c1.55,1.76,3.19,3.11,4.88,4.2Z"/>
            <path class="cls-2" d="M958.42,163.37c.05,1.02.16,2.03.35,3.05.18,1.02.51,1.98.86,2.96.73,1.96,1.7,3.95,3.1,5.84.89,1.23,1.78,2.34,2.7,3.29.95.93,1.91,1.73,2.87,2.43l12.08-9.72c-1.13-.76-2.3-1.37-3.47-1.89-1.14-.55-2.31-.99-3.51-1.37-1.2-.39-2.46-.69-3.68-1.01-1.22-.31-2.48-.64-3.74-.96-1.24-.32-2.52-.66-3.8-1.08-1.24-.44-2.5-.94-3.75-1.54Z"/>
            <path class="cls-4" d="M962.73,175.22c-1.41-1.89-2.38-3.88-3.1-5.84-.35-.99-.68-1.95-.86-2.96-.18-1.01-.3-2.03-.35-3.05,1.25.6,2.51,1.1,3.75,1.54,1.28.41,2.56.75,3.8,1.08,1.27.33,2.52.65,3.74.96,1.22.32,2.49.63,3.68,1.01,1.2.38,2.38.82,3.51,1.37,1.17.52,2.34,1.13,3.47,1.89l2.02-1.63c-.95-.68-1.92-1.25-2.91-1.75-.96-.52-1.92-.97-2.9-1.36-.06-1.15-.19-2.26-.39-3.32-.16-1.09-.38-2.16-.69-3.19-.29-1.05-.73-2.04-1.13-3.08-.41-1.04-.91-2.06-1.5-3.1-.65-1.08-1.21-2.1-1.84-3.02-.63-.92-1.29-1.75-1.99-2.51l-2.36,1.08c.73.76,1.42,1.6,2.08,2.54.66.94,1.24,1.99,1.91,3.11,1.93,3.54,3.04,6.85,3.36,10.61-2.48-.77-4.91-1.39-7.44-2.02-.77-.2-1.55-.4-2.27-.64h-.05c-.35-.13-.71-.25-1.06-.36l-.09-.03c-.71-.25-1.43-.51-2.13-.8h-.03c-1.09-.46-2.18-.97-3.24-1.59l-.24-.15c-1.69-1.08-3.33-2.44-4.88-4.2l-2.36,1.08c1.79,2.15,3.63,3.82,5.6,5.08.01,2.51.31,5.05,1.13,7.48.85,2.41,1.98,4.89,3.71,7.22.89,1.24,1.79,2.37,2.71,3.35.96.96,1.92,1.81,2.88,2.55l2.02-1.63c-.96-.7-1.92-1.5-2.87-2.43-.92-.95-1.81-2.06-2.7-3.29Z"/>
          </g>
          <g>
            <path class="cls-2" d="M974.02,183.8l.28.08c1.17.35,2.31.62,3.46.81h.03c.76.11,1.52.19,2.28.26h.09c.37.03.74.06,1.12.09h.05c.77.04,1.55.08,2.35.12,2.52.13,5.17.05,7.72.3-.56-1.82-1.38-3.41-2.3-5.02-.91-1.62-2.13-3.07-3.47-4.6-1.74-1.98-3.54-3.41-5.25-4.62l-12.07,9.72c1.84,1.38,3.78,2.25,5.71,2.86Z"/>
            <path class="cls-2" d="M975.66,186.88c.59,1.93,1.43,3.76,2.53,5.54,1.14,1.73,2.59,3.36,4.3,4.96,1.13,1.01,2.27,1.83,3.38,2.56,1.11.71,2.18,1.34,3.29,1.77l9.69-12.1c-2.55-.99-5.01-1.49-7.56-1.66-2.48-.26-5.03-.24-7.69-.27-2.54-.09-5.19-.25-7.93-.8Z"/>
            <path class="cls-4" d="M982.49,197.38c-1.71-1.6-3.16-3.23-4.3-4.96-1.1-1.77-1.94-3.61-2.53-5.54,2.74.54,5.39.71,7.93.8,2.66.04,5.2.01,7.69.27,2.56.18,5.01.67,7.56,1.66l1.62-2.02c-2.18-.89-4.25-1.49-6.39-1.79-.64-2.23-1.43-4.28-2.56-6.14-.53-.96-1.12-1.9-1.79-2.81-.66-.92-1.46-1.76-2.23-2.69-1.67-1.91-3.43-3.33-5.08-4.56l-2.02,1.63c1.71,1.21,3.51,2.64,5.25,4.62,1.34,1.53,2.56,2.98,3.47,4.6.92,1.61,1.74,3.2,2.3,5.02-2.55-.26-5.2-.18-7.72-.3-.79-.04-1.58-.08-2.35-.11h-.05c-.38-.03-.75-.06-1.12-.08h-.09c-.76-.07-1.52-.15-2.28-.26h-.03c-1.15-.19-2.3-.46-3.46-.82l-.28-.08c-1.93-.61-3.87-1.48-5.71-2.86l-2.02,1.63c2.13,1.71,4.41,2.77,6.59,3.53,1.06,4.96,3.69,9.24,7.94,13.14,1.13,1.01,2.28,1.85,3.4,2.61,1.12.74,2.2,1.41,3.32,1.89l1.62-2.03c-1.11-.43-2.18-1.06-3.29-1.77-1.1-.73-2.25-1.55-3.38-2.56Z"/>
          </g>
          <g>
            <path class="cls-2" d="M995.32,203.27l.29.02c1.21.08,2.39.07,3.56,0h.03c.76-.04,1.51-.11,2.26-.19h.09c.37-.05.73-.1,1.1-.14h.05c.76-.1,1.54-.22,2.33-.36,2.56-.43,5.1-.9,7.68-1.08-1.81-3.4-4.3-6.02-7.69-8.5-2.26-1.55-4.17-2.69-6.19-3.42l-9.68,12.1c2.14.87,4.17,1.38,6.17,1.56Z"/>
            <path class="cls-2" d="M997.56,205.86c.92,1.78,2.04,3.44,3.48,4.88,1.43,1.45,3.04,2.85,5.01,4.03,2.54,1.53,4.87,2.59,7.16,3.1l7.68-13.46c-5.43-1.23-10.27-.21-15.44.64-1.26.21-2.57.43-3.88.58-1.3.14-2.64.22-4.01.23Z"/>
            <path class="cls-4" d="M1006.05,214.78c-1.97-1.18-3.58-2.58-5.01-4.03-1.43-1.44-2.56-3.1-3.48-4.88,1.37,0,2.7-.09,4.01-.23,1.31-.15,2.62-.37,3.88-.58,5.17-.85,10.01-1.87,15.44-.64l1.28-2.25c-2.36-.54-4.54-.84-6.71-.8-1.07-2.07-2.26-3.98-3.74-5.67-1.5-1.66-3.19-3.25-5.22-4.7-2.2-1.51-4.05-2.64-6.03-3.41l-1.62,2.02c2.02.73,3.93,1.87,6.19,3.42,3.38,2.48,5.88,5.1,7.69,8.5-2.59.19-5.13.65-7.68,1.08-.79.14-1.57.26-2.33.35h-.05c-.37.05-.74.09-1.1.14h-.09c-.75.09-1.5.16-2.26.2h-.03c-1.17.07-2.35.07-3.56,0l-.29-.02c-1.99-.18-4.03-.69-6.17-1.56l-1.62,2.03c1.25.56,2.47,1,3.66,1.34.6.17,1.18.31,1.76.43.58.1,1.16.17,1.73.23,1.03,2.24,2.32,4.33,3.98,6.18,1.69,1.81,3.65,3.53,6.05,4.99,2.53,1.53,4.88,2.64,7.19,3.24l1.29-2.26c-2.28-.51-4.62-1.57-7.16-3.1Z"/>
          </g>
          <g>
            <path class="cls-2" d="M1019.47,218.46l.29-.02c1.21-.09,2.38-.26,3.52-.49h.03c.74-.15,1.47-.33,2.2-.51l.09-.02c.36-.09.71-.18,1.08-.3h.05c.74-.25,1.5-.48,2.26-.72,2.47-.81,4.88-1.56,7.44-2.2-1.17-1.48-2.43-2.87-3.89-4.05-1.47-1.16-3.09-2.24-4.94-3.21-2.42-1.21-4.59-2.06-6.71-2.51l-7.68,13.46c2.21.52,4.25.72,6.26.58Z"/>
            <path class="cls-2" d="M1022.05,220.72c1.16,1.66,2.54,3.07,4.16,4.32.8.63,1.66,1.22,2.58,1.78.93.54,1.92,1.02,2.97,1.48,2.71,1.21,5.22,1.8,7.53,2.03l5.62-14.44c-1.39-.11-2.72-.08-4.02.06-1.29.13-2.54.33-3.78.62-1.24.29-2.46.65-3.69,1.04-1.21.38-2.44.78-3.69,1.17-2.44.77-5,1.58-7.69,1.94Z"/>
            <path class="cls-4" d="M1031.76,228.3c-1.05-.46-2.04-.94-2.97-1.48-.92-.56-1.78-1.15-2.58-1.78-1.61-1.25-3-2.66-4.16-4.32,2.69-.36,5.26-1.17,7.69-1.94,1.25-.4,2.49-.79,3.69-1.17,1.23-.39,2.46-.75,3.69-1.04,1.24-.29,2.48-.49,3.78-.62,1.3-.14,2.63-.17,4.02-.06l.94-2.42c-2.39-.25-4.64-.1-6.76.2-1.34-1.94-2.84-3.56-4.52-5.06-.85-.74-1.76-1.42-2.74-2.04-.97-.65-1.99-1.28-3.1-1.85-2.35-1.17-4.49-2.04-6.57-2.55l-1.29,2.25c2.12.45,4.29,1.31,6.71,2.51,1.85.97,3.47,2.05,4.94,3.21,1.46,1.18,2.72,2.57,3.89,4.05-2.57.64-4.98,1.4-7.44,2.2-.76.24-1.52.47-2.26.7h-.05c-.36.13-.72.22-1.08.31l-.09.02c-.73.19-1.46.36-2.2.51h-.03c-1.15.23-2.31.41-3.52.5l-.29.02c-2.01.14-4.05-.07-6.26-.58l-1.29,2.25c2.58.7,4.97.99,7.28.86,1.35,2.08,2.91,3.99,4.85,5.54,1.92,1.58,4.13,2.97,6.72,4.06,2.7,1.21,5.24,1.85,7.59,2.16l.94-2.42c-2.31-.23-4.83-.82-7.53-2.03Z"/>
          </g>
          <g>
            <path class="cls-2" d="M1045.58,229.97l.28-.06c1.18-.26,2.3-.57,3.4-.99h.03c.71-.27,1.42-.56,2.11-.86l.09-.04c.34-.15.68-.3,1.02-.45l.04-.02c.7-.33,1.41-.66,2.12-1,2.31-1.12,4.63-2.33,7.05-3.26-1.36-1.36-2.82-2.49-4.45-3.44-1.61-1-3.38-1.79-5.37-2.46-2.54-.94-4.87-1.32-7-1.52l-5.62,14.44c2.24.25,4.33.03,6.28-.35Z"/>
            <path class="cls-2" d="M1048.46,231.85c1.4,1.42,2.96,2.67,4.74,3.67,1.78.98,3.75,1.82,5.96,2.41,2.86.76,5.41,1.05,7.73.92l3.53-15.09c-5.58.39-9.91,2.71-14.63,5.05-2.31,1.16-4.69,2.22-7.32,3.04Z"/>
            <path class="cls-4" d="M1059.15,237.93c-2.21-.59-4.18-1.43-5.96-2.41-1.77-1.01-3.33-2.26-4.74-3.67,2.63-.82,5.02-1.89,7.32-3.04,4.72-2.34,9.05-4.66,14.63-5.05l.59-2.52c-2.42.12-4.61.52-6.68,1.16-3.22-3.42-6.85-5.75-11.58-7.34-2.47-.91-4.76-1.31-6.88-1.57l-.94,2.42c2.13.2,4.46.58,7,1.52,1.98.67,3.76,1.46,5.37,2.46,1.62.95,3.09,2.08,4.45,3.44-2.43.93-4.74,2.14-7.05,3.26-.72.34-1.43.67-2.12,1l-.04.02c-.34.15-.68.3-1.02.45l-.09.04c-.7.3-1.4.58-2.11.85h-.03c-1.11.43-2.23.74-3.4,1l-.28.06c-1.95.39-4.05.61-6.28.35l-.94,2.42c2.63.38,5.08.17,7.32-.21,1.61,1.92,3.49,3.43,5.6,4.77,2.13,1.28,4.52,2.3,7.22,3.04,2.85.76,5.43,1.1,7.8,1.03l.59-2.53c-2.32.14-4.87-.16-7.73-.92Z"/>
          </g>
          <g>
            <path class="cls-2" d="M1073.03,237.61l.27-.1c1.13-.42,2.19-.89,3.23-1.45l.03-.02c.67-.36,1.33-.74,1.97-1.13l.08-.05c.31-.19.63-.39.95-.59l.04-.03c.65-.42,1.3-.84,1.97-1.28,2.15-1.44,4.27-2.92,6.57-4.17-1.54-1.16-3.14-2.1-4.89-2.82-1.74-.77-3.62-1.31-5.68-1.71-2.66-.54-5.02-.65-7.17-.53l-3.53,15.09c2.25-.09,4.27-.55,6.15-1.23Z"/>
            <path class="cls-2" d="M1076.13,239.07c3.14,2.45,6.88,3.98,11.34,4.57,2.87.37,5.39.33,7.63-.02l1.86-15.39c-5.61.92-9.65,3.91-14,6.82-2.13,1.46-4.35,2.84-6.83,4.02Z"/>
            <path class="cls-4" d="M1087.47,243.64c-4.46-.59-8.2-2.12-11.34-4.57,2.48-1.18,4.7-2.56,6.83-4.02,4.34-2.91,8.39-5.9,14-6.82l.31-2.57c-2.45.33-4.63,1.01-6.64,1.91-3.74-2.96-7.62-4.8-12.57-5.74-2.59-.53-4.92-.66-7.06-.6l-.59,2.52c2.15-.12,4.51-.01,7.17.53,2.06.41,3.94.94,5.68,1.71,1.75.72,3.35,1.66,4.89,2.82-2.3,1.25-4.43,2.73-6.57,4.17-.67.43-1.32.86-1.97,1.28l-.04.03c-.32.2-.64.39-.95.59l-.08.05c-.65.39-1.3.77-1.97,1.13l-.03.02c-1.04.55-2.1,1.02-3.23,1.45l-.27.1c-1.88.68-3.91,1.14-6.15,1.23l-.59,2.53c2.66-.02,5.03-.52,7.2-1.24,3.71,3.29,8.2,5.26,13.64,5.99,2.85.37,5.38.37,7.67.08l.31-2.58c-2.25.35-4.76.39-7.63.02Z"/>
          </g>
          <g>
            <path class="cls-2" d="M1101.01,241.75l.25-.13c1.07-.53,2.08-1.12,3.06-1.75l.03-.02c.63-.41,1.25-.84,1.86-1.28l.07-.05c.3-.22.6-.44.9-.66l.04-.03c.61-.47,1.23-.94,1.86-1.42,2.03-1.61,4.07-3.24,6.31-4.65-1.63-1.05-3.34-1.86-5.17-2.45-1.83-.62-3.78-1.05-5.92-1.27-2.76-.3-5.18-.13-7.34.2l-1.86,15.39c2.18-.32,4.12-1.03,5.91-1.88Z"/>
            <path class="cls-2" d="M1104.19,242.9c3.3,2.23,7.02,3.38,11.47,3.72,1.44.11,2.78.13,4.04.05,1.26-.09,2.44-.28,3.55-.54l.93-15.47c-2.79.69-5.14,1.77-7.32,3.12-2.18,1.35-4.18,2.95-6.24,4.59-2.01,1.62-4.1,3.17-6.44,4.54Z"/>
            <path class="cls-4" d="M1115.66,246.61c-4.45-.34-8.17-1.49-11.47-3.72,2.34-1.37,4.42-2.92,6.44-4.54,2.06-1.64,4.06-3.24,6.24-4.59,2.18-1.34,4.53-2.43,7.32-3.12l.16-2.59c-1.22.25-2.37.6-3.46.99-1.08.38-2.11.82-3.08,1.32-3.89-2.8-8.1-4.26-13.24-4.83-2.7-.29-5.12-.15-7.29.11l-.31,2.57c2.16-.33,4.58-.5,7.34-.2,2.14.21,4.09.65,5.92,1.27,1.83.59,3.54,1.4,5.17,2.45-2.24,1.41-4.28,3.05-6.31,4.65-.63.48-1.25.96-1.86,1.42l-.04.03c-.3.22-.6.44-.9.66l-.07.05c-.61.44-1.23.87-1.86,1.28l-.03.02c-.98.63-1.99,1.22-3.06,1.75l-.25.13c-1.78.85-3.72,1.56-5.91,1.88l-.31,2.58c2.58-.29,4.84-1.08,6.89-2,1.97,1.45,4.06,2.59,6.34,3.42,2.28.79,4.74,1.27,7.45,1.48,1.42.11,2.77.13,4.03.08,1.27-.08,2.46-.24,3.59-.46l.16-2.59c-1.11.25-2.29.44-3.55.54-1.26.07-2.6.06-4.04-.05Z"/>
          </g>
          <g>
            <path class="cls-2" d="M1129.02,243.92l.25-.14c1.04-.59,2.01-1.21,2.95-1.91l.03-.02c.61-.45,1.2-.92,1.78-1.4l.07-.06c.28-.24.57-.48.86-.72l.04-.03c.59-.51,1.18-1.02,1.78-1.54,1.94-1.7,3.89-3.42,6.06-4.93-3.37-1.96-7-2.93-11.31-3.11-2.78-.15-5.19.08-7.34.59l-.93,15.47c2.15-.5,4.04-1.26,5.77-2.21Z"/>
            <path class="cls-2" d="M1132.25,244.91c3.41,1.95,7.17,2.97,11.62,3.1,2.87.04,5.35-.28,7.53-.89l.18-15.5c-2.75.78-5.06,2.01-7.17,3.49-2.11,1.48-4.02,3.14-5.99,4.87-1.92,1.68-3.92,3.41-6.17,4.92Z"/>
            <path class="cls-4" d="M1143.87,248c-4.45-.13-8.21-1.14-11.62-3.1,2.25-1.51,4.25-3.24,6.17-4.92,1.97-1.73,3.88-3.4,5.99-4.87,2.11-1.48,4.41-2.72,7.17-3.49l.03-2.59c-2.42.61-4.53,1.53-6.44,2.65-4.04-2.57-8.34-3.91-13.53-4.11-2.73-.15-5.13.05-7.3.5l-.16,2.59c2.15-.52,4.56-.75,7.34-.59,4.31.18,7.94,1.15,11.31,3.11-2.17,1.51-4.12,3.23-6.06,4.93-.6.52-1.2,1.04-1.78,1.54l-.04.03c-.29.24-.57.48-.86.72l-.07.06c-.59.48-1.18.95-1.78,1.4l-.03.02c-.94.7-1.91,1.32-2.95,1.91l-.25.14c-1.73.94-3.62,1.71-5.77,2.21l-.16,2.59c2.54-.51,4.75-1.34,6.74-2.38,4.09,2.69,8.58,3.98,13.98,4.16,2.84.04,5.34-.25,7.56-.79l.03-2.6c-2.18.6-4.66.93-7.53.89Z"/>
          </g>
          <g>
            <path class="cls-2" d="M1157.05,244.64l.24-.15c1.01-.64,1.95-1.33,2.85-2.06l.02-.02c.58-.47,1.15-.96,1.72-1.47l.07-.06c.27-.25.55-.5.83-.75l.04-.03c.56-.53,1.13-1.07,1.71-1.61,1.87-1.76,3.74-3.59,5.85-5.21-3.46-1.75-7.14-2.63-11.46-2.61-1.4,0-2.7.1-3.92.27-1.22.15-2.35.38-3.41.69l-.18,15.5c2.12-.58,3.97-1.42,5.65-2.47Z"/>
            <path class="cls-2" d="M1160.31,245.45c3.49,1.84,7.28,2.7,11.72,2.59,2.87-.06,5.32-.46,7.47-1.16l-.44-15.49c-5.45,1.77-9.02,5.27-12.81,8.92-1.85,1.75-3.76,3.56-5.94,5.15Z"/>
            <path class="cls-4" d="M1172.03,248.04c-4.44.11-8.22-.75-11.72-2.59,2.18-1.59,4.09-3.39,5.94-5.15,3.79-3.65,7.36-7.15,12.81-8.92l-.07-2.59c-2.4.72-4.48,1.69-6.34,2.88-2.08-1.21-4.21-2.07-6.47-2.64-2.26-.6-4.66-.88-7.26-.87-1.37,0-2.66.09-3.87.25-1.21.14-2.35.35-3.42.62l-.03,2.59c1.07-.3,2.2-.53,3.41-.69,1.22-.17,2.52-.27,3.92-.27,4.33-.01,8,.86,11.46,2.61-2.11,1.62-3.98,3.45-5.85,5.21-.58.54-1.15,1.08-1.71,1.61l-.04.03c-.28.25-.55.5-.83.75l-.07.06c-.56.5-1.13.99-1.72,1.47l-.02.02c-.91.73-1.85,1.42-2.85,2.06l-.24.15c-1.68,1.05-3.53,1.89-5.65,2.47l-.03,2.59c2.51-.6,4.67-1.54,6.6-2.7,4.19,2.47,8.73,3.66,14.11,3.53,2.83-.06,5.31-.42,7.5-1.06l-.07-2.6c-2.15.71-4.61,1.1-7.47,1.16Z"/>
          </g>
          <g>
            <path class="cls-2" d="M1185.04,244.16l.23-.16c.98-.67,1.89-1.39,2.77-2.15l.02-.02c.57-.49,1.12-1,1.66-1.52l.07-.06c.26-.26.53-.52.8-.78l.03-.04c.54-.55,1.09-1.12,1.65-1.69,1.8-1.86,3.61-3.74,5.66-5.42-3.52-1.69-7.24-2.31-11.57-2.18-2.8.1-5.19.55-7.3,1.26l.44,15.49c2.09-.69,3.9-1.62,5.54-2.72Z"/>
            <path class="cls-2" d="M1188.33,244.86c3.56,1.72,7.36,2.36,11.79,2.15,2.86-.12,5.29-.69,7.41-1.44l-.97-15.47c-5.39,2.01-8.85,5.59-12.49,9.37-1.78,1.83-3.62,3.75-5.74,5.39Z"/>
            <path class="cls-4" d="M1200.12,247.01c-4.43.21-8.23-.43-11.79-2.15,2.11-1.65,3.95-3.56,5.74-5.39,3.65-3.77,7.1-7.36,12.49-9.37l-.16-2.59c-2.38.79-4.42,1.9-6.25,3.13-4.25-2.3-8.67-3.18-13.89-3.02-2.75.1-5.14.51-7.28,1.16l.07,2.59c2.11-.71,4.5-1.16,7.3-1.26,4.33-.12,8.05.5,11.57,2.18-2.05,1.68-3.86,3.56-5.66,5.42-.56.57-1.11,1.14-1.65,1.69l-.03.04c-.27.26-.53.52-.8.78l-.07.06c-.54.52-1.09,1.03-1.66,1.52l-.02.02c-.88.76-1.79,1.48-2.77,2.15l-.23.16c-1.64,1.09-3.45,2.03-5.54,2.72l.07,2.59c2.47-.73,4.59-1.76,6.47-2.97,4.28,2.37,8.84,3.28,14.2,3.01,2.83-.12,5.28-.65,7.44-1.35l-.16-2.59c-2.13.76-4.55,1.32-7.41,1.44Z"/>
          </g>
          <g>
            <path class="cls-2" d="M1212.97,242.7l.23-.17c.96-.7,1.84-1.47,2.69-2.26l.02-.02c.55-.52,1.08-1.05,1.61-1.59l.06-.07c.25-.27.51-.54.77-.81l.03-.04c.52-.57,1.06-1.15,1.6-1.73,1.74-1.91,3.49-3.82,5.49-5.58-3.58-1.55-7.32-2.15-11.65-1.81-2.8.21-5.18.7-7.27,1.48l.97,15.47c2.06-.75,3.84-1.73,5.44-2.87Z"/>
            <path class="cls-2" d="M1216.28,243.27c3.6,1.56,7.43,2.18,11.83,1.78,2.85-.25,5.26-.83,7.36-1.65l-1.43-15.43c-5.34,2.1-8.68,5.9-12.21,9.74-1.72,1.89-3.5,3.82-5.56,5.57Z"/>
            <path class="cls-4" d="M1228.11,245.06c-4.41.4-8.23-.22-11.83-1.78,2.05-1.75,3.83-3.68,5.56-5.57,3.53-3.84,6.87-7.63,12.21-9.74l-.24-2.58c-2.36.86-4.37,1.99-6.16,3.3-4.32-2.09-8.77-2.97-14-2.55-2.75.2-5.14.67-7.25,1.38l.16,2.59c2.09-.77,4.47-1.27,7.27-1.48,4.33-.34,8.07.27,11.65,1.81-2,1.76-3.75,3.67-5.49,5.58-.54.59-1.07,1.16-1.6,1.73l-.03.04c-.26.27-.52.54-.77.81l-.06.07c-.53.54-1.06,1.07-1.61,1.59l-.02.02c-.85.79-1.74,1.56-2.69,2.26l-.23.17c-1.6,1.14-3.37,2.12-5.44,2.87l.16,2.59c2.44-.8,4.52-1.89,6.36-3.16,4.35,2.15,8.93,3.01,14.27,2.54,2.81-.25,5.25-.79,7.39-1.56l-.24-2.59c-2.1.82-4.51,1.4-7.36,1.65Z"/>
          </g>
          <g>
            <path class="cls-2" d="M1240.82,240.35l.22-.17c.94-.73,1.8-1.51,2.63-2.33l.02-.02c.53-.53,1.05-1.07,1.56-1.62l.06-.07c.25-.27.5-.55.75-.83l.03-.04c.51-.58,1.02-1.17,1.55-1.77,1.68-1.96,3.38-3.95,5.33-5.75-3.62-1.45-7.38-1.9-11.71-1.49-2.8.27-5.16.9-7.23,1.71l1.43,15.43c2.04-.79,3.78-1.86,5.34-3.05Z"/>
            <path class="cls-2" d="M1244.14,240.84c3.65,1.5,7.47,1.94,11.87,1.46,2.84-.3,5.23-.96,7.31-1.85l-1.83-15.39c-5.28,2.31-8.53,6.07-11.95,10.07-1.67,1.95-3.39,3.92-5.4,5.72Z"/>
            <path class="cls-4" d="M1256.01,242.3c-4.39.49-8.22.05-11.87-1.46,2-1.8,3.73-3.76,5.4-5.72,3.42-4,6.66-7.76,11.95-10.07l-.31-2.57c-2.34.94-4.32,2.13-6.08,3.47-4.38-2.02-8.86-2.68-14.08-2.18-2.75.27-5.12.86-7.22,1.61l.24,2.58c2.07-.81,4.43-1.44,7.23-1.71,4.33-.42,8.09.04,11.71,1.49-1.95,1.81-3.65,3.79-5.33,5.75-.52.6-1.04,1.19-1.55,1.77l-.03.04c-.25.28-.5.55-.75.83l-.06.07c-.51.55-1.03,1.1-1.56,1.62l-.02.02c-.83.81-1.69,1.59-2.63,2.33l-.22.17c-1.56,1.19-3.3,2.26-5.34,3.05l.24,2.58c2.41-.86,4.45-2.04,6.25-3.36,2.2,1.03,4.45,1.73,6.82,2.09,2.36.35,4.84.36,7.5.07,2.81-.3,5.22-.92,7.33-1.76l-.31-2.58c-2.07.89-4.47,1.55-7.31,1.85Z"/>
          </g>
          <g>
            <path class="cls-2" d="M1268.57,237.27l.22-.18c.92-.75,1.76-1.55,2.57-2.39l.02-.02c.52-.54,1.02-1.1,1.52-1.67l.06-.07c.24-.28.48-.56.73-.85l.03-.04c.49-.6.99-1.2,1.5-1.81,1.64-2,3.29-4,5.19-5.86-3.66-1.36-7.43-1.76-11.75-1.19-2.79.34-5.14.99-7.19,1.88l1.83,15.39c2.02-.86,3.73-1.95,5.26-3.18Z"/>
            <path class="cls-2" d="M1271.9,237.68c3.68,1.37,7.52,1.77,11.89,1.16,2.83-.39,5.2-1.09,7.26-2.02l-2.19-15.34c-5.24,2.38-8.38,6.32-11.71,10.35-1.62,1.98-3.29,4.01-5.25,5.86Z"/>
            <path class="cls-4" d="M1283.8,238.84c-4.37.61-8.22.21-11.89-1.16,1.95-1.85,3.63-3.88,5.25-5.86,3.32-4.03,6.47-7.97,11.71-10.35l-.37-2.57c-2.32.98-4.28,2.21-6,3.61-4.42-1.88-8.93-2.5-14.14-1.81-2.75.33-5.1.95-7.18,1.78l.31,2.57c2.04-.89,4.4-1.54,7.19-1.88,4.32-.57,8.09-.17,11.75,1.19-1.91,1.86-3.56,3.86-5.19,5.86-.51.61-1.01,1.22-1.5,1.81l-.03.04c-.24.29-.49.57-.73.85l-.06.07c-.5.57-1,1.13-1.52,1.67l-.02.02c-.8.84-1.65,1.64-2.57,2.39l-.22.18c-1.53,1.23-3.25,2.31-5.26,3.18l.31,2.58c2.38-.94,4.4-2.14,6.16-3.51,4.45,1.93,9.05,2.53,14.36,1.8,2.79-.39,5.19-1.06,7.28-1.93l-.37-2.57c-2.05.93-4.43,1.63-7.26,2.02Z"/>
          </g>
          <g>
            <path class="cls-2" d="M1296.23,233.5l.21-.18c.9-.78,1.72-1.6,2.51-2.45l.02-.02c.51-.55,1-1.12,1.48-1.7l.06-.07c.23-.29.47-.57.71-.86l.03-.04c.48-.61.97-1.23,1.46-1.85,1.59-2.04,3.19-4.09,5.06-5.98-3.69-1.29-7.47-1.55-11.78-.93-2.78.41-5.12,1.13-7.14,2.06l2.19,15.34c1.99-.9,3.68-2.04,5.18-3.31Z"/>
            <path class="cls-2" d="M1299.57,233.84c3.71,1.32,7.55,1.57,11.91.9,2.82-.45,5.17-1.21,7.2-2.19l-2.53-15.29c-5.18,2.52-8.25,6.48-11.48,10.61-1.58,2.02-3.2,4.09-5.11,5.97Z"/>
            <path class="cls-4" d="M1311.49,234.74c-4.36.67-8.2.42-11.91-.9,1.91-1.88,3.54-3.96,5.11-5.97,3.23-4.12,6.29-8.09,11.48-10.61l-.42-2.56c-2.3,1.03-4.23,2.31-5.92,3.75-4.47-1.83-8.99-2.26-14.19-1.51-2.74.4-5.08,1.09-7.14,1.97l.37,2.57c2.03-.93,4.36-1.65,7.14-2.06,4.31-.62,8.09-.36,11.78.93-1.87,1.89-3.47,3.95-5.06,5.98-.49.63-.98,1.24-1.46,1.85l-.03.04c-.24.29-.47.58-.71.86l-.06.07c-.48.58-.97,1.15-1.48,1.7l-.02.02c-.79.85-1.61,1.67-2.51,2.45l-.21.18c-1.5,1.27-3.19,2.41-5.18,3.31l.37,2.57c2.36-.99,4.34-2.26,6.07-3.67,4.5,1.86,9.1,2.31,14.39,1.49,2.78-.44,5.16-1.18,7.23-2.1l-.42-2.56c-2.03.97-4.39,1.74-7.2,2.19Z"/>
          </g>
          <g>
            <path class="cls-2" d="M1323.8,229.13l.21-.19c.88-.8,1.69-1.64,2.46-2.51l.02-.02c.5-.56.97-1.14,1.45-1.73l.06-.07c.23-.29.46-.58.69-.88l.03-.04c.47-.62.94-1.24,1.42-1.88,1.55-2.07,3.11-4.16,4.94-6.09-3.71-1.21-7.5-1.4-11.8-.68-2.78.48-5.1,1.24-7.1,2.21l2.53,15.29c1.97-.94,3.64-2.1,5.11-3.41Z"/>
            <path class="cls-2" d="M1327.14,229.39c3.74,1.24,7.58,1.42,11.92.65,2.81-.51,5.15-1.32,7.16-2.33l-2.84-15.24c-5.13,2.63-8.12,6.65-11.26,10.85-1.53,2.05-3.11,4.15-4.99,6.08Z"/>
            <path class="cls-4" d="M1339.07,230.04c-4.35.77-8.19.59-11.92-.65,1.87-1.93,3.45-4.02,4.99-6.08,3.14-4.19,6.12-8.22,11.26-10.85l-.48-2.55c-2.28,1.08-4.18,2.4-5.84,3.87-4.51-1.73-9.04-2.08-14.22-1.21-2.73.47-5.06,1.2-7.1,2.11l.42,2.56c2.01-.96,4.33-1.73,7.1-2.21,4.3-.72,8.08-.53,11.8.68-1.83,1.93-3.39,4.02-4.94,6.09-.48.63-.96,1.26-1.42,1.88l-.03.04c-.23.29-.46.59-.69.88l-.06.07c-.47.59-.95,1.17-1.45,1.73l-.02.02c-.77.87-1.58,1.71-2.46,2.51l-.21.19c-1.47,1.31-3.13,2.47-5.11,3.41l.42,2.56c2.34-1.03,4.29-2.33,5.99-3.79,4.54,1.76,9.15,2.13,14.41,1.18,2.77-.5,5.13-1.28,7.19-2.24l-.48-2.55c-2.01,1.01-4.35,1.83-7.16,2.33Z"/>
          </g>
          <g>
            <path class="cls-2" d="M1351.26,224.19l.21-.19c.86-.81,1.66-1.67,2.41-2.55l.02-.02c.48-.57.95-1.16,1.41-1.76l.06-.07c.22-.3.44-.59.67-.89l.03-.04c.45-.63.92-1.26,1.38-1.91,1.51-2.1,3.02-4.21,4.81-6.19-3.74-1.14-7.53-1.25-11.81-.44-2.77.53-5.07,1.35-7.06,2.35l2.84,15.24c1.95-.98,3.59-2.19,5.04-3.52Z"/>
            <path class="cls-2" d="M1354.61,224.38c3.76,1.15,7.61,1.28,11.93.4,2.8-.57,5.12-1.41,7.11-2.47l-3.15-15.18c-5.08,2.72-7.98,6.82-11.03,11.07-1.49,2.07-3.03,4.22-4.86,6.18Z"/>
            <path class="cls-4" d="M1366.54,224.78c-4.33.88-8.18.74-11.93-.4,1.83-1.96,3.37-4.11,4.86-6.18,3.06-4.25,5.96-8.35,11.03-11.07l-.53-2.54c-2.25,1.13-4.13,2.48-5.76,3.98-4.54-1.61-9.08-1.91-14.24-.91-2.72.52-5.04,1.31-7.06,2.26l.48,2.55c1.99-1.01,4.29-1.83,7.06-2.35,4.28-.81,8.07-.69,11.81.44-1.79,1.97-3.31,4.09-4.81,6.19-.47.65-.93,1.28-1.38,1.91l-.03.04c-.23.3-.45.6-.67.89l-.06.07c-.46.6-.93,1.19-1.41,1.76l-.02.02c-.75.89-1.54,1.74-2.41,2.55l-.21.19c-1.45,1.33-3.08,2.53-5.04,3.52l.48,2.55c2.32-1.08,4.24-2.43,5.91-3.91,4.57,1.67,9.19,1.94,14.43.89,2.76-.56,5.11-1.37,7.14-2.38l-.53-2.54c-1.99,1.07-4.31,1.91-7.11,2.47Z"/>
          </g>
          <g>
            <path class="cls-2" d="M1380.76,220.09c.29.34,1.19.69,2.61.72.78.02,1.65-.07,2.55-.27,2.39-.52,4.95-1.8,6.49-3.95,1.92-2.69,2.08-6.38,1.42-8.66-.35-1.23-.87-1.83-1.23-1.98-.21-.09-.53-.08-.97.07-1.83,2.01-3.34,4.22-4.93,6.53-1.78,2.58-3.6,5.21-5.93,7.54Z"/>
            <path class="cls-2" d="M1389.33,204.84c-3.76-1.05-7.55-1.1-11.82-.2-2.75.59-5.04,1.44-7.01,2.5l3.15,15.18c5.14-2.74,8.02-6.88,10.99-11.19,1.45-2.1,2.93-4.27,4.69-6.28Z"/>
            <path class="cls-4" d="M1370.5,207.13l-.53-2.54c2-1,4.3-1.82,7.01-2.4,5.42-1.15,10.18-.88,15.01.89l1.24.45c.1.03.21.06.31.1.03.01.06.03.08.04l.2.07-.02.02c1.07.57,1.93,1.78,2.42,3.46.85,2.93.64,7.4-1.77,10.8-2.65,3.72-7.51,5.34-11.13,5.27-2.01-.04-3.55-.58-4.41-1.52-1.38,1.15-2.94,2.17-4.74,3.07l-.53-2.54c5.14-2.74,8.02-6.88,10.99-11.19,1.45-2.1,2.93-4.27,4.69-6.28-3.76-1.05-7.55-1.1-11.82-.2-2.75.59-5.04,1.44-7.01,2.5ZM1391.62,206.01c-1.83,2.01-3.34,4.22-4.93,6.53-1.78,2.58-3.6,5.21-5.93,7.54.29.34,1.19.69,2.61.72.78.02,1.65-.07,2.55-.27,2.39-.52,4.95-1.8,6.49-3.95,1.92-2.69,2.08-6.38,1.42-8.66-.35-1.23-.87-1.83-1.23-1.98-.21-.09-.53-.08-.97.07Z"/>
            <path class="cls-1" d="M1394.24,198.4c-8.14,1.84-16.29,3.61-24.45,5.3l4.57,22.03c8.3-1.72,16.59-3.52,24.86-5.39l-4.97-21.94Z"/>
          </g>
        </g>
      </g>
      <g class="cls-5">
        <path class="cls-4" d="M223.54,220.43c-1.09,1.06-2.92,2.27-4.25,2.96l5.63,33.48,18.01-3.61,2.3,15.1v.37s-17.94,3.47-17.94,3.47l8.18,49.13c1.15-.61,2.49-.83,3.67-1.35,9.95-4.36,19.29-12.07,24.9-21.47,2.79-4.67,6.36-13.68,6.55-19.08.01-.29-.15-.61-.12-.91-.78.48-1.47-.07-2.25-.19-.35-.05-.72.15-1.1.07-.43-.09-2.53-.75-2.58-1.08.87-3.2.88-6.62,1.19-9.92.67-7.15,1.45-14.54,1.66-21.75.02-.68-.5-1.37,0-2.19,1.43.52,3.17.91,4.55,1.5,8.46,3.64,16.73,13.71,20.75,21.78.65,1.3,1.01,3,1.72,4.31-3.05,1-5.47,3.06-8.36,4.39-.49,4.84-.91,9.71-2.06,14.43-7.83,32.01-36.7,49.18-68.48,48.51-24.75-.52-43.43-12.14-55.28-33.57-.81-1.47-1.14-3.25-2.29-4.54l-9.08-2.12c-.17-.25.11-4.66.17-5.28.41-4.09,1.74-9.42,3.2-13.3,2.15-5.71,5.94-11.54,11.06-14.93l15.53,30.06c-.81,2.04-3.28,2.35-4.84,3.57l.1.38c1.6,2.11,2.89,4.73,4.52,6.76,10.14,12.67,25.66,18.46,41.61,18.66.94.01,1.96-.49,2.91.1l-10.57-49.5-16.45,2.83-3.61-14.18,16.99-3.36-6.71-32.48c-5.73-.29-12.04-3.24-16.11-7.32-17.39-17.42-3.44-47.28,21.32-44.98,21.98,2.05,31.29,29.95,15.56,45.23ZM216.98,191.58c-15.04-16.32-37.05,5.44-22.78,20.92,2.14,2.32,7.23,4.51,10.36,4.56,13.29.19,21.52-15.6,12.41-25.47Z"/>
      </g>
    </g>
  </g>
</svg>